<svg width="19" height="18" viewBox="0 0 19 18" fill="none" xmlns="http://www.w3.org/2000/svg">
<path d="M16.4264 3.31125L10.7764 0.27125C10.1764 -0.04875 9.4664 -0.04875 8.8664 0.27125L3.2264 3.31125C2.8164 3.54125 2.5564 3.98125 2.5564 4.46125C2.5564 4.95125 2.8064 5.39125 3.2264 5.61125L8.8764 8.65125C9.1764 8.81125 9.5064 8.89125 9.8264 8.89125C10.1464 8.89125 10.4864 8.81125 10.7764 8.65125L16.4264 5.61125C16.8364 5.39125 17.0964 4.95125 17.0964 4.46125C17.0964 3.98125 16.8364 3.54125 16.4264 3.31125Z" fill="#23C99A"/>
<path d="M7.94593 9.71058L2.69593 7.09058C2.28593 6.88058 1.82593 6.91058 1.43593 7.14058C1.05593 7.38058 0.825928 7.79058 0.825928 8.24058V13.2006C0.825928 14.0606 1.30593 14.8306 2.07593 15.2206L7.32593 17.8406C7.50593 17.9306 7.70593 17.9806 7.90593 17.9806C8.13593 17.9806 8.37593 17.9106 8.58593 17.7906C8.96593 17.5506 9.19593 17.1406 9.19593 16.6906V11.7306C9.18593 10.8706 8.70593 10.1006 7.94593 9.71058Z" fill="#23C99A"/>
<path d="M18.8256 8.24058V10.7006C18.3456 10.5606 17.8356 10.5006 17.3256 10.5006C15.9656 10.5006 14.6356 10.9706 13.5856 11.8106C12.1456 12.9406 11.3256 14.6506 11.3256 16.5006C11.3256 16.9906 11.3856 17.4806 11.5156 17.9506C11.3656 17.9306 11.2156 17.8706 11.0756 17.7806C10.6956 17.5506 10.4656 17.1406 10.4656 16.6906V11.7306C10.4656 10.8706 10.9456 10.1006 11.7056 9.71058L16.9556 7.09058C17.3656 6.88058 17.8256 6.91058 18.2156 7.14058C18.5956 7.38058 18.8256 7.79058 18.8256 8.24058Z" fill="#23C99A"/>
</svg>
