<svg width="34" height="34" viewBox="0 0 34 34" fill="none" xmlns="http://www.w3.org/2000/svg">
<path d="M17.0002 2.83203C9.19433 2.83203 2.8335 9.19286 2.8335 16.9987C2.8335 24.8045 9.19433 31.1654 17.0002 31.1654C24.806 31.1654 31.1668 24.8045 31.1668 16.9987C31.1668 9.19286 24.806 2.83203 17.0002 2.83203ZM22.6668 18.0612H18.0627V22.6654C18.0627 23.2462 17.581 23.7279 17.0002 23.7279C16.4193 23.7279 15.9377 23.2462 15.9377 22.6654V18.0612H11.3335C10.7527 18.0612 10.271 17.5795 10.271 16.9987C10.271 16.4179 10.7527 15.9362 11.3335 15.9362H15.9377V11.332C15.9377 10.7512 16.4193 10.2695 17.0002 10.2695C17.581 10.2695 18.0627 10.7512 18.0627 11.332V15.9362H22.6668C23.2477 15.9362 23.7293 16.4179 23.7293 16.9987C23.7293 17.5795 23.2477 18.0612 22.6668 18.0612Z" fill="#EE7402"/>
</svg>
