<svg width="32" height="32" viewBox="0 0 32 32" fill="none" xmlns="http://www.w3.org/2000/svg">
<path d="M16 32C24.8366 32 32 24.8366 32 16C32 7.16344 24.8366 0 16 0C7.16344 0 0 7.16344 0 16C0 24.8366 7.16344 32 16 32Z" fill="#FFCE00"/>
<path d="M31.9996 15.9993C31.9996 15.513 31.9779 15.0317 31.9354 14.5564L26.6068 9.22784L24.4503 11.214L19.4121 6.17578L5.4502 22.8498L14.5334 31.933C15.0163 31.9769 15.5053 31.9993 15.9996 31.9993C24.8362 31.9993 31.9996 24.8359 31.9996 15.9993V15.9993Z" fill="#FFA300"/>
<path d="M24.8354 8.30156H20.2392L19.5922 6.52637C19.359 5.88662 18.7508 5.46094 18.0699 5.46094H13.9307C13.2498 5.46094 12.6415 5.88662 12.4084 6.52637L11.7614 8.30156H7.1652C5.97213 8.30156 5.00488 9.26875 5.00488 10.4619V21.5349C5.00488 22.728 5.97207 23.6952 7.1652 23.6952H24.8355C26.0286 23.6952 26.9958 22.7281 26.9958 21.5349V10.4619C26.9956 9.26875 26.0284 8.30156 24.8354 8.30156V8.30156Z" fill="#707789"/>
<path d="M24.835 8.30156H20.2389L19.5919 6.52637C19.3587 5.88662 18.7504 5.46094 18.0695 5.46094H15.9902V23.6952H24.8351C26.0282 23.6952 26.9954 22.728 26.9954 21.5349V10.4619C26.9953 9.26875 26.0281 8.30156 24.835 8.30156V8.30156Z" fill="#555A66"/>
<path d="M15.9998 22.6909C19.5927 22.6909 22.5054 19.7783 22.5054 16.1853C22.5054 12.5924 19.5927 9.67969 15.9998 9.67969C12.4068 9.67969 9.49414 12.5924 9.49414 16.1853C9.49414 19.7783 12.4068 22.6909 15.9998 22.6909Z" fill="#9196AA"/>
<path d="M16 9.67969C15.9967 9.67969 15.9935 9.67981 15.9902 9.67981V22.6909C15.9935 22.6909 15.9967 22.691 16 22.691C19.5929 22.691 22.5056 19.7783 22.5056 16.1854C22.5056 12.5924 19.5929 9.67969 16 9.67969V9.67969Z" fill="#707789"/>
<path d="M16.0001 20.3869C18.3226 20.3869 20.2053 18.5042 20.2053 16.1817C20.2053 13.8593 18.3226 11.9766 16.0001 11.9766C13.6776 11.9766 11.7949 13.8593 11.7949 16.1817C11.7949 18.5042 13.6776 20.3869 16.0001 20.3869Z" fill="#414952"/>
<path d="M16 11.9766C15.9967 11.9766 15.9935 11.9768 15.9902 11.9768V20.3867C15.9935 20.3867 15.9967 20.3869 16 20.3869C18.3224 20.3869 20.2052 18.5042 20.2052 16.1817C20.2052 13.8593 18.3224 11.9766 16 11.9766V11.9766Z" fill="#23272B"/>
<path d="M18.6476 8.22572H13.3535L13.862 6.74609H18.1391L18.6476 8.22572Z" fill="#BEC3D2"/>
<path d="M18.1385 6.74609H15.9902V8.22572H18.647L18.1385 6.74609Z" fill="#9196AA"/>
<path d="M22.2012 10.207H25.907V12.3247H22.2012V10.207Z" fill="#9196AA"/>
<path d="M7.70411 22.1387C8.37883 22.1387 8.9258 21.5917 8.9258 20.917C8.9258 20.2423 8.37883 19.6953 7.70411 19.6953C7.02939 19.6953 6.48242 20.2423 6.48242 20.917C6.48242 21.5917 7.02939 22.1387 7.70411 22.1387Z" fill="#BEC3D2"/>
<path d="M13.7931 14.8773C14.2317 14.8773 14.5873 14.5218 14.5873 14.0832C14.5873 13.6446 14.2317 13.2891 13.7931 13.2891C13.3546 13.2891 12.999 13.6446 12.999 14.0832C12.999 14.5218 13.3546 14.8773 13.7931 14.8773Z" fill="white"/>
<path d="M14.7952 17.1764C15.4048 17.1764 15.899 16.6822 15.899 16.0726C15.899 15.4629 15.4048 14.9688 14.7952 14.9688C14.1856 14.9688 13.6914 15.4629 13.6914 16.0726C13.6914 16.6822 14.1856 17.1764 14.7952 17.1764Z" fill="white"/>
</svg>
