<svg width="201" height="201" viewBox="0 0 201 201" fill="none" xmlns="http://www.w3.org/2000/svg">
<rect width="201" height="201" rx="40.9444" fill="url(#paint0_linear_317_144796)"/>
<path fill-rule="evenodd" clip-rule="evenodd" d="M56.9366 52.8652L52.7087 62.7745H82.7737L80.5815 70.4592H65.5489L61.321 80.3684H125.836L126.775 73.8971L145.253 89.0642L122.078 104.231L123.017 98.569H51.7691L47.5412 108.074H69.7768L67.8978 115.758H53.4916L49.5769 125.465H65.0792L62.5738 134.364H43.9397L39.8684 143.868H60.0683L58.8156 148.115H89.0373L95.3008 123.645H117.223L130.064 148.115H163.574L144 117.579C152.247 115.152 168.741 101.198 166.079 78.1439C165.141 70.0216 159.659 53.2697 131.786 53.2697L56.9366 52.8652ZM38.6156 98.3668H47.6977L43.3132 108.074H34.5443L38.6156 98.3668Z" fill="white"/>
<defs>
<linearGradient id="paint0_linear_317_144796" x1="0" y1="0" x2="230.08" y2="199.16" gradientUnits="userSpaceOnUse">
<stop stop-color="#EE7402"/>
<stop offset="1" stop-color="#EDAE1F"/>
</linearGradient>
</defs>
</svg>
