<svg width="71" height="70" viewBox="0 0 71 70" fill="none" xmlns="http://www.w3.org/2000/svg">
<rect x="0.5" width="70" height="70" rx="35" fill="#FF4746"/>
<path d="M48.3503 25.4098C46.0695 25.1832 43.7887 25.0132 41.4937 24.8857V24.8715L41.182 23.0298C40.9695 21.7265 40.6578 19.7715 37.3428 19.7715H33.6312C30.3303 19.7715 30.0187 21.6415 29.792 23.0157L29.4945 24.829C28.177 24.914 26.8595 24.999 25.542 25.1265L22.652 25.4098C22.057 25.4665 21.632 25.9907 21.6887 26.5715C21.7453 27.1523 22.2553 27.5773 22.8503 27.5207L25.7403 27.2373C33.1637 26.5007 40.6437 26.784 48.152 27.5348C48.1945 27.5348 48.2228 27.5348 48.2653 27.5348C48.8037 27.5348 49.2712 27.124 49.3278 26.5715C49.3703 25.9907 48.9453 25.4665 48.3503 25.4098Z" fill="white"/>
<path d="M45.743 29.531C45.403 29.1768 44.9355 28.9785 44.4538 28.9785H26.5471C26.0655 28.9785 25.5838 29.1768 25.258 29.531C24.9321 29.8852 24.748 30.3668 24.7763 30.8627L25.6546 45.3977C25.8105 47.551 26.0088 50.2427 30.953 50.2427H40.048C44.9921 50.2427 45.1905 47.5652 45.3463 45.3977L46.2246 30.8768C46.253 30.3668 46.0688 29.8852 45.743 29.531ZM37.8521 43.1452H33.1346C32.5538 43.1452 32.0721 42.6635 32.0721 42.0827C32.0721 41.5018 32.5538 41.0202 33.1346 41.0202H37.8521C38.433 41.0202 38.9146 41.5018 38.9146 42.0827C38.9146 42.6635 38.433 43.1452 37.8521 43.1452ZM39.0421 37.4785H31.9588C31.378 37.4785 30.8963 36.9968 30.8963 36.416C30.8963 35.8352 31.378 35.3535 31.9588 35.3535H39.0421C39.623 35.3535 40.1046 35.8352 40.1046 36.416C40.1046 36.9968 39.623 37.4785 39.0421 37.4785Z" fill="white"/>
</svg>
