<svg width="25" height="24" viewBox="0 0 25 24" fill="none" xmlns="http://www.w3.org/2000/svg">
<path d="M20.2097 8.9599C19.5397 8.2199 18.5297 7.7899 17.1297 7.6399V6.8799C17.1297 5.5099 16.5497 4.1899 15.5297 3.2699C14.4997 2.3299 13.1597 1.8899 11.7697 2.0199C9.37975 2.2499 7.36975 4.5599 7.36975 7.0599V7.6399C5.96975 7.7899 4.95975 8.2199 4.28975 8.9599C3.31975 10.0399 3.34975 11.4799 3.45975 12.4799L4.15975 18.0499C4.36975 19.9999 5.15975 21.9999 9.45975 21.9999H15.0397C19.3397 21.9999 20.1297 19.9999 20.3397 18.0599L21.0397 12.4699C21.1497 11.4799 21.1797 10.0399 20.2097 8.9599ZM11.9097 3.4099C12.9097 3.3199 13.8597 3.6299 14.5997 4.2999C15.3297 4.9599 15.7397 5.8999 15.7397 6.8799V7.5799H8.75975V7.0599C8.75975 5.2799 10.2297 3.5699 11.9097 3.4099ZM12.2497 18.5799C10.1597 18.5799 8.45975 16.8799 8.45975 14.7899C8.45975 12.6999 10.1597 10.9999 12.2497 10.9999C14.3397 10.9999 16.0397 12.6999 16.0397 14.7899C16.0397 16.8799 14.3397 18.5799 12.2497 18.5799Z" fill="#A4A4BE"/>
<path d="M11.6799 16.64C11.4899 16.64 11.2999 16.57 11.1499 16.42L10.1599 15.43C9.86988 15.14 9.86988 14.66 10.1599 14.37C10.4499 14.08 10.9299 14.08 11.2199 14.37L11.6999 14.85L13.2999 13.37C13.5999 13.09 14.0799 13.11 14.3599 13.41C14.6399 13.71 14.6199 14.19 14.3199 14.47L12.1899 16.44C12.0399 16.57 11.8599 16.64 11.6799 16.64Z" fill="#A4A4BE" fill-opacity="0.4"/>
</svg>
