<svg width="24" height="25" viewBox="0 0 24 25" fill="none" xmlns="http://www.w3.org/2000/svg">
<path d="M22 3.75H2C1.59 3.75 1.25 3.41 1.25 3C1.25 2.59 1.59 2.25 2 2.25H22C22.41 2.25 22.75 2.59 22.75 3C22.75 3.41 22.41 3.75 22 3.75Z" fill="#4791FF"/>
<path d="M3.66992 3V14.97C3.66992 15.95 4.12992 16.88 4.91992 17.47L10.1299 21.37C11.2399 22.2 12.7699 22.2 13.8799 21.37L19.0899 17.47C19.8799 16.88 20.3399 15.95 20.3399 14.97V3H3.66992ZM15.9999 14.25H7.99992C7.58992 14.25 7.24992 13.91 7.24992 13.5C7.24992 13.09 7.58992 12.75 7.99992 12.75H15.9999C16.4099 12.75 16.7499 13.09 16.7499 13.5C16.7499 13.91 16.4099 14.25 15.9999 14.25ZM15.9999 9.25H7.99992C7.58992 9.25 7.24992 8.91 7.24992 8.5C7.24992 8.09 7.58992 7.75 7.99992 7.75H15.9999C16.4099 7.75 16.7499 8.09 16.7499 8.5C16.7499 8.91 16.4099 9.25 15.9999 9.25Z" fill="#4791FF"/>
</svg>
