<svg width="37" height="37" viewBox="0 0 37 37" fill="none" xmlns="http://www.w3.org/2000/svg">
<circle cx="18.5" cy="18.5" r="18.5" fill="#4791FF"/>
<path d="M26.5762 11.6008H10.5973C10.2697 11.6008 9.99805 11.3291 9.99805 11.0016C9.99805 10.674 10.2697 10.4023 10.5973 10.4023H26.5762C26.9037 10.4023 27.1754 10.674 27.1754 11.0016C27.1754 11.3291 26.9037 11.6008 26.5762 11.6008Z" fill="white"/>
<path d="M11.9336 10.9961V20.5595C11.9336 21.3424 12.3011 22.0855 12.9323 22.5568L17.0948 25.6727C17.9816 26.3359 19.204 26.3359 20.0908 25.6727L24.2533 22.5568C24.8845 22.0855 25.252 21.3424 25.252 20.5595V10.9961H11.9336ZM21.7846 19.9842H15.393C15.0655 19.9842 14.7938 19.7126 14.7938 19.385C14.7938 19.0575 15.0655 18.7858 15.393 18.7858H21.7846C22.1122 18.7858 22.3838 19.0575 22.3838 19.385C22.3838 19.7126 22.1122 19.9842 21.7846 19.9842ZM21.7846 15.9895H15.393C15.0655 15.9895 14.7938 15.7179 14.7938 15.3903C14.7938 15.0627 15.0655 14.7911 15.393 14.7911H21.7846C22.1122 14.7911 22.3838 15.0627 22.3838 15.3903C22.3838 15.7179 22.1122 15.9895 21.7846 15.9895Z" fill="white"/>
</svg>
