<svg width="24" height="25" viewBox="0 0 24 25" fill="none" xmlns="http://www.w3.org/2000/svg">
<path opacity="0.4" d="M20.1004 7.42436C20.1004 7.96436 19.8104 8.45433 19.3504 8.70433L17.6104 9.64433L16.1304 10.4344L13.0604 12.0943C12.7304 12.2743 12.3704 12.3644 12.0004 12.3644C11.6304 12.3644 11.2704 12.2743 10.9404 12.0943L4.65039 8.70433C4.19039 8.45433 3.90039 7.96436 3.90039 7.42436C3.90039 6.88436 4.19039 6.39433 4.65039 6.14433L6.62039 5.08433L8.1904 4.23436L10.9404 2.75438C11.6004 2.39437 12.4004 2.39437 13.0604 2.75438L19.3504 6.14433C19.8104 6.39433 20.1004 6.88436 20.1004 7.42436Z" fill="white"/>
<path opacity="0.4" d="M9.89972 13.2747L4.04971 10.3448C3.59971 10.1148 3.07972 10.1447 2.64972 10.4047C2.21972 10.6647 1.96973 11.1248 1.96973 11.6248V17.1547C1.96973 18.1147 2.49971 18.9747 3.35971 19.4047L9.20972 22.3248C9.40972 22.4248 9.62973 22.4748 9.84973 22.4748C10.1097 22.4748 10.3697 22.4048 10.5997 22.2548C11.0297 21.9948 11.2797 21.5348 11.2797 21.0348V15.5048C11.2897 14.5648 10.7597 13.7047 9.89972 13.2747Z" fill="white"/>
<path opacity="0.4" d="M22.03 11.634V17.164C22.03 18.114 21.5 18.974 20.64 19.404L14.79 22.334C14.59 22.434 14.37 22.484 14.15 22.484C13.89 22.484 13.63 22.414 13.39 22.264C12.97 22.004 12.71 21.544 12.71 21.044V15.524C12.71 14.564 13.24 13.704 14.1 13.274L16.25 12.204L17.75 11.454L19.95 10.354C20.4 10.124 20.92 10.144 21.35 10.414C21.77 10.674 22.03 11.134 22.03 11.634Z" fill="white"/>
<path d="M22.6001 22.1251L21.8401 21.3651C22.2401 20.7651 22.4701 20.0451 22.4701 19.2751C22.4701 17.1651 20.7601 15.4551 18.6501 15.4551C16.5401 15.4551 14.8301 17.1651 14.8301 19.2751C14.8301 21.3851 16.5401 23.0951 18.6501 23.0951C19.4201 23.0951 20.1401 22.8651 20.7401 22.4651L21.5001 23.2251C21.6501 23.3751 21.8501 23.4551 22.0501 23.4551C22.2501 23.4551 22.4501 23.3751 22.6001 23.2251C22.9001 22.9151 22.9001 22.4251 22.6001 22.1251Z" fill="white"/>
</svg>
