<svg width="24" height="25" viewBox="0 0 24 25" fill="none" xmlns="http://www.w3.org/2000/svg">
<path d="M17.6005 5.81125L11.9505 2.77125C11.3505 2.45125 10.6405 2.45125 10.0405 2.77125L4.40047 5.81125C3.99047 6.04125 3.73047 6.48125 3.73047 6.96125C3.73047 7.45125 3.98047 7.89125 4.40047 8.11125L10.0505 11.1512C10.3505 11.3112 10.6805 11.3913 11.0005 11.3913C11.3205 11.3913 11.6605 11.3112 11.9505 11.1512L17.6005 8.11125C18.0105 7.89125 18.2705 7.45125 18.2705 6.96125C18.2705 6.48125 18.0105 6.04125 17.6005 5.81125Z" fill="#23C99A"/>
<path d="M9.12 12.2106L3.87 9.59058C3.46 9.38058 3 9.41058 2.61 9.64058C2.23 9.88058 2 10.2906 2 10.7406V15.7006C2 16.5606 2.48 17.3306 3.25 17.7206L8.5 20.3406C8.68 20.4306 8.88 20.4806 9.08 20.4806C9.31 20.4806 9.55 20.4106 9.76 20.2906C10.14 20.0506 10.37 19.6406 10.37 19.1906V14.2306C10.36 13.3706 9.88 12.6006 9.12 12.2106Z" fill="#23C99A"/>
<path d="M19.9996 10.7406V13.2006C19.5196 13.0606 19.0096 13.0006 18.4996 13.0006C17.1396 13.0006 15.8096 13.4706 14.7596 14.3106C13.3196 15.4406 12.4996 17.1506 12.4996 19.0006C12.4996 19.4906 12.5596 19.9806 12.6896 20.4506C12.5396 20.4306 12.3896 20.3706 12.2496 20.2806C11.8696 20.0506 11.6396 19.6406 11.6396 19.1906V14.2306C11.6396 13.3706 12.1196 12.6006 12.8796 12.2106L18.1296 9.59058C18.5396 9.38058 18.9996 9.41058 19.3896 9.64058C19.7696 9.88058 19.9996 10.2906 19.9996 10.7406Z" fill="#23C99A"/>
<path d="M21.98 16.1695C21.16 15.1595 19.91 14.5195 18.5 14.5195C17.44 14.5195 16.46 14.8895 15.69 15.5095C14.65 16.3295 14 17.5995 14 19.0195C14 19.8595 14.24 20.6595 14.65 21.3395C14.92 21.7895 15.26 22.1795 15.66 22.4995H15.67C16.44 23.1395 17.43 23.5195 18.5 23.5195C19.64 23.5195 20.67 23.0995 21.46 22.3995C21.81 22.0995 22.11 21.7395 22.35 21.3395C22.76 20.6595 23 19.8595 23 19.0195C23 17.9395 22.62 16.9395 21.98 16.1695ZM20.76 18.4595L18.36 20.6795C18.22 20.8095 18.03 20.8795 17.85 20.8795C17.66 20.8795 17.47 20.8095 17.32 20.6595L16.21 19.5495C15.92 19.2595 15.92 18.7795 16.21 18.4895C16.5 18.1995 16.98 18.1995 17.27 18.4895L17.87 19.0895L19.74 17.3595C20.04 17.0795 20.52 17.0995 20.8 17.3995C21.09 17.7095 21.07 18.1795 20.76 18.4595Z" fill="#23C99A"/>
</svg>
