<svg width="28" height="29" viewBox="0 0 28 29" fill="none" xmlns="http://www.w3.org/2000/svg">
<path opacity="0.4" d="M22.5748 7.10393L15.2365 3.14898C14.4665 2.72898 13.5331 2.72898 12.7515 3.14898L5.41316 7.10393C4.8765 7.3956 4.5498 7.9673 4.5498 8.5973C4.5498 9.2273 4.8765 9.79893 5.41316 10.0906L12.7515 14.0456C13.1365 14.2556 13.5681 14.3606 13.9881 14.3606C14.4198 14.3606 14.8398 14.2556 15.2248 14.0456L22.5631 10.0906C23.0998 9.79893 23.4265 9.2273 23.4265 8.5973C23.4381 7.9673 23.1115 7.3956 22.5748 7.10393Z" fill="#23C99A"/>
<path opacity="0.4" d="M11.5495 15.4218L4.7245 12.0034C4.1995 11.7351 3.59284 11.7701 3.09118 12.0734C2.58951 12.3768 2.29785 12.9135 2.29785 13.4968V19.9484C2.29785 21.0684 2.91617 22.0718 3.9195 22.5734L10.7445 25.9802C10.9778 26.0968 11.2345 26.1551 11.4912 26.1551C11.7945 26.1551 12.0979 26.0735 12.3662 25.8985C12.8679 25.5952 13.1595 25.0584 13.1595 24.4751V18.0235C13.1712 16.9268 12.5528 15.9234 11.5495 15.4218Z" fill="#23C99A"/>
<path opacity="0.4" d="M25.7015 13.5086V18.8636C25.6898 18.8519 25.6781 18.8286 25.6665 18.8169C25.6665 18.8052 25.6548 18.7935 25.6431 18.7819C25.5965 18.7119 25.5381 18.6419 25.4798 18.5836C25.4681 18.5719 25.4565 18.5486 25.4448 18.5369C24.4998 17.4869 23.1115 16.8336 21.5831 16.8336C20.1131 16.8336 18.7715 17.4402 17.8148 18.4202C16.8931 19.3652 16.3331 20.6602 16.3331 22.0836C16.3331 23.0636 16.6131 23.9969 17.0915 24.7902C17.2898 25.1286 17.5348 25.4319 17.8031 25.7119L17.2548 25.9919C17.0215 26.1085 16.7648 26.1669 16.5081 26.1669C16.2048 26.1669 15.9015 26.0853 15.6215 25.9103C15.1315 25.6069 14.8281 25.0702 14.8281 24.4869V18.0469C14.8281 16.9269 15.4465 15.9235 16.4498 15.4219L23.2748 12.0152C23.7998 11.7469 24.4065 11.7702 24.9081 12.0852C25.3981 12.3886 25.7015 12.9253 25.7015 13.5086Z" fill="#23C99A"/>
<path d="M25.643 18.759C24.6864 17.5807 23.228 16.834 21.583 16.834C20.3463 16.834 19.203 17.2656 18.3047 17.989C17.0913 18.9456 16.333 20.4273 16.333 22.084C16.333 23.729 17.0797 25.1873 18.258 26.144C19.1563 26.8906 20.323 27.334 21.583 27.334C22.913 27.334 24.1147 26.8323 25.048 26.0273C26.133 25.059 26.833 23.659 26.833 22.084C26.833 20.824 26.3897 19.6573 25.643 18.759ZM22.7847 22.4107C22.7847 22.714 22.6214 23.0056 22.3647 23.1573L20.7197 24.1373C20.5797 24.219 20.428 24.2656 20.2647 24.2656C19.973 24.2656 19.6814 24.114 19.518 23.8457C19.273 23.4257 19.4013 22.889 19.8213 22.644L21.0347 21.9206V20.4506C21.0347 19.9723 21.4313 19.5756 21.9097 19.5756C22.388 19.5756 22.7847 19.9723 22.7847 20.4506V22.4107Z" fill="#23C99A"/>
</svg>
