<svg width="21" height="20" viewBox="0 0 21 20" fill="none" xmlns="http://www.w3.org/2000/svg">
<path d="M3.46777 6.19531L10.8261 10.4536L18.1344 6.22029" stroke="#0D0849" stroke-width="1.25" stroke-linecap="round" stroke-linejoin="round"/>
<path d="M10.8262 18.0037L10.8262 10.4453" stroke="#0D0849" stroke-width="1.25" stroke-linecap="round" stroke-linejoin="round"/>
<path d="M18.834 7.63906V12.3558C18.834 12.3974 18.834 12.4307 18.8257 12.4724C18.2424 11.9641 17.4924 11.6641 16.659 11.6641C15.8757 11.6641 15.1507 11.9391 14.5757 12.3974C13.809 13.0057 13.3257 13.9474 13.3257 14.9974C13.3257 15.6224 13.5007 16.2141 13.809 16.7141C13.884 16.8474 13.9757 16.9724 14.0757 17.0891L12.5507 17.9308C11.6007 18.4641 10.0507 18.4641 9.1007 17.9308L4.6507 15.4641C3.64237 14.9057 2.81738 13.5058 2.81738 12.3558L2.81738 7.63906C2.81738 6.48906 3.64237 5.08908 4.6507 4.53075L9.1007 2.06406C10.0507 1.53073 11.6007 1.53073 12.5507 2.06406L17.0007 4.53075C18.009 5.08908 18.834 6.48906 18.834 7.63906Z" stroke="#0D0849" stroke-width="1.25" stroke-linecap="round" stroke-linejoin="round"/>
<path d="M19.9928 14.9974C19.9928 15.6224 19.8178 16.2141 19.5095 16.7141C19.3345 17.0141 19.1095 17.2807 18.8512 17.4974C18.2678 18.0224 17.5012 18.3307 16.6595 18.3307C15.4428 18.3307 14.3845 17.6807 13.8095 16.7141C13.5012 16.2141 13.3262 15.6224 13.3262 14.9974C13.3262 13.9474 13.8095 13.0057 14.5762 12.3974C15.1512 11.9391 15.8762 11.6641 16.6595 11.6641C18.5012 11.6641 19.9928 13.1557 19.9928 14.9974Z" stroke="#292D32" stroke-width="1.25" stroke-miterlimit="10" stroke-linecap="round" stroke-linejoin="round"/>
<path d="M17.5508 15.8677L15.7842 14.1094" stroke="#292D32" stroke-width="1.25" stroke-miterlimit="10" stroke-linecap="round" stroke-linejoin="round"/>
<path d="M17.5342 14.1328L15.7676 15.8911" stroke="#292D32" stroke-width="1.25" stroke-miterlimit="10" stroke-linecap="round" stroke-linejoin="round"/>
</svg>
