<svg width="24" height="24" viewBox="0 0 24 24" fill="none" xmlns="http://www.w3.org/2000/svg">
<path d="M3.16992 7.4375L11.9999 12.5475L20.7699 7.4675" stroke="#0D0849" stroke-width="1.25" stroke-linecap="round" stroke-linejoin="round"/>
<path d="M12.001 21.6091L12.001 12.5391" stroke="#0D0849" stroke-width="1.25" stroke-linecap="round" stroke-linejoin="round"/>
<path d="M9.93062 2.48126L4.59063 5.44126C3.38063 6.11126 2.39062 7.79126 2.39062 9.17126L2.39062 14.8213C2.39062 16.2013 3.38063 17.8813 4.59063 18.5513L9.93062 21.5213C11.0706 22.1513 12.9406 22.1513 14.0806 21.5213L19.4206 18.5513C20.6306 17.8813 21.6206 16.2013 21.6206 14.8213L21.6206 9.17126C21.6206 7.79126 20.6306 6.11126 19.4206 5.44126L14.0806 2.47126C12.9306 1.84126 11.0706 1.84126 9.93062 2.48126Z" stroke="#0D0849" stroke-width="1.25" stroke-linecap="round" stroke-linejoin="round"/>
</svg>
