<svg width="24" height="24" viewBox="0 0 24 24" fill="none" xmlns="http://www.w3.org/2000/svg">
<path d="M12.5 22.0003H4.07997C2.91997 22.0003 1.96997 21.0703 1.96997 19.9303V5.09035C1.96997 2.47035 3.91997 1.28035 6.30997 2.45035L10.75 4.63035C11.71 5.10035 12.5 6.35035 12.5 7.41035V22.0003Z" stroke="#5B6D8E" stroke-width="1.5" stroke-linecap="round" stroke-linejoin="round"/>
<path d="M21.97 15.0619V18.8419C21.97 21.0019 20.97 22.0019 18.81 22.0019H12.5V10.4219L12.97 10.5219L17.47 11.5319L19.5 11.9819C20.82 12.2719 21.9 12.9519 21.96 14.8719C21.97 14.9319 21.97 14.9919 21.97 15.0619Z" stroke="#5B6D8E" stroke-width="1.5" stroke-linecap="round" stroke-linejoin="round"/>
<path d="M5.5 9H8.97" stroke="#5B6D8E" stroke-width="1.5" stroke-linecap="round" stroke-linejoin="round"/>
<path d="M5.5 13H8.97" stroke="#5B6D8E" stroke-width="1.5" stroke-linecap="round" stroke-linejoin="round"/>
<path d="M17.47 11.5295V14.7495C17.47 15.9895 16.46 16.9995 15.22 16.9995C13.98 16.9995 12.97 15.9895 12.97 14.7495V10.5195L17.47 11.5295Z" stroke="#5B6D8E" stroke-width="1.5" stroke-linecap="round" stroke-linejoin="round"/>
<path d="M21.96 14.8713C21.9 16.0513 20.92 17.0013 19.72 17.0013C18.48 17.0013 17.47 15.9913 17.47 14.7513V11.5312L19.5 11.9812C20.82 12.2712 21.9 12.9513 21.96 14.8713Z" stroke="#5B6D8E" stroke-width="1.5" stroke-linecap="round" stroke-linejoin="round"/>
</svg>
