<svg width="19" height="18" viewBox="0 0 19 18" fill="none" xmlns="http://www.w3.org/2000/svg">
<path d="M13.3884 2.67V1.5C13.3884 1.1925 13.1334 0.9375 12.8259 0.9375C12.5184 0.9375 12.2634 1.1925 12.2634 1.5V2.625H7.38842V1.5C7.38842 1.1925 7.13342 0.9375 6.82592 0.9375C6.51842 0.9375 6.26342 1.1925 6.26342 1.5V2.67C4.23842 2.8575 3.25592 4.065 3.10592 5.8575C3.09092 6.075 3.27092 6.255 3.48092 6.255H16.1709C16.3884 6.255 16.5684 6.0675 16.5459 5.8575C16.3959 4.065 15.4134 2.8575 13.3884 2.67Z" fill="#979797"/>
<path d="M15.8259 7.38281H3.82593C3.41343 7.38281 3.07593 7.72031 3.07593 8.13281V12.7528C3.07593 15.0028 4.20093 16.5028 6.82593 16.5028H12.8259C15.4509 16.5028 16.5759 15.0028 16.5759 12.7528V8.13281C16.5759 7.72031 16.2384 7.38281 15.8259 7.38281ZM11.9559 11.2453L11.5809 11.6278H11.5734L9.30093 13.9003C9.20343 13.9978 9.00093 14.1028 8.85843 14.1178L7.84593 14.2678C7.47843 14.3203 7.22343 14.0578 7.27593 13.6978L7.41843 12.6778C7.44093 12.5353 7.53843 12.3403 7.63593 12.2353L9.91593 9.96281L10.2909 9.58031C10.5384 9.33281 10.8159 9.15281 11.1159 9.15281C11.3709 9.15281 11.6484 9.27281 11.9559 9.58031C12.6309 10.2553 12.4134 10.7878 11.9559 11.2453Z" fill="#979797"/>
</svg>
