<svg width="15" height="20" viewBox="0 0 15 20" fill="none" xmlns="http://www.w3.org/2000/svg">
<path d="M2.82568 2V18H12.8257V2H2.82568ZM1.82568 0H13.8257C14.0909 0 14.3453 0.105357 14.5328 0.292893C14.7203 0.48043 14.8257 0.734784 14.8257 1V19C14.8257 19.2652 14.7203 19.5196 14.5328 19.7071C14.3453 19.8946 14.0909 20 13.8257 20H1.82568C1.56047 20 1.30611 19.8946 1.11858 19.7071C0.931041 19.5196 0.825684 19.2652 0.825684 19V1C0.825684 0.734784 0.931041 0.48043 1.11858 0.292893C1.30611 0.105357 1.56047 0 1.82568 0ZM7.82568 15C8.0909 15 8.34525 15.1054 8.53279 15.2929C8.72033 15.4804 8.82568 15.7348 8.82568 16C8.82568 16.2652 8.72033 16.5196 8.53279 16.7071C8.34525 16.8946 8.0909 17 7.82568 17C7.56047 17 7.30611 16.8946 7.11858 16.7071C6.93104 16.5196 6.82568 16.2652 6.82568 16C6.82568 15.7348 6.93104 15.4804 7.11858 15.2929C7.30611 15.1054 7.56047 15 7.82568 15Z" fill="#768DA9"/>
</svg>
