<svg width="16" height="26" viewBox="0 0 16 26" fill="none" xmlns="http://www.w3.org/2000/svg">
<path d="M11.3018 9.74153H10.1294V4.34862L5.87547 4.33594V9.74165H4.70312L8.00242 13.3577L11.3018 9.74153Z" fill="#002280"/>
<path d="M5.875 2.36328H10.13V3.92488H5.875V2.36328Z" fill="#002280"/>
<path d="M5.875 1.16016H10.13V2.04445H5.875V1.16016Z" fill="#002280"/>
<path d="M5.875 0.34375H10.13V0.785359H5.875V0.34375Z" fill="#002280"/>
<path d="M10.6585 11.1118C10.4249 11.0809 10.2147 11.26 10.1913 11.4946C10.1679 11.7293 10.3406 11.9384 10.5742 11.9607C13.2686 12.2262 14.3129 12.8055 14.3747 13.0157C14.2606 13.4307 11.9694 14.205 8.00032 14.205C4.03337 14.205 1.74295 13.4316 1.62683 13.0295V13.0284C1.69076 12.8034 2.73934 12.223 5.44864 11.9575C5.68328 11.9352 5.854 11.7261 5.8315 11.4914C5.80917 11.2568 5.59685 11.0796 5.36544 11.1086C3.65133 11.2761 0.773438 11.7486 0.773438 13.0211V23.646C0.773438 25.2546 5.3163 25.6833 7.99995 25.6833C10.6848 25.6833 15.2265 25.2545 15.2265 23.646V13.0211C15.2277 11.7518 12.3648 11.2793 10.6582 11.1118L10.6585 11.1118ZM14.3747 20.0988C14.2585 20.5148 11.9694 21.2881 8.00123 21.2881C4.03104 21.2881 1.74112 20.5136 1.62775 20.1063V17.6102C3.0699 18.3675 6.0331 18.6011 8.00123 18.6011C9.97033 18.6011 12.9315 18.3675 14.3747 17.6113V20.0988ZM8.00123 15.0588C9.97033 15.0588 12.9315 14.8263 14.3747 14.069V16.5575C14.2563 16.9736 11.9672 17.7458 8.00123 17.7458C4.03319 17.7458 1.74203 16.9713 1.62775 16.5639V14.0679C3.0699 14.8261 6.03204 15.0588 8.00123 15.0588ZM8.00123 24.8302C4.03104 24.8302 1.74112 24.0546 1.62775 23.6473V21.1512C3.0699 21.9085 6.0331 22.1421 8.00123 22.1421C9.97033 22.1421 12.9324 21.9086 14.3747 21.1523V23.6409C14.2606 24.0559 11.9715 24.8302 8.00123 24.8302V24.8302Z" fill="#002280"/>
<path d="M13.6602 15.9433C13.6602 16.3327 13.3445 16.6485 12.955 16.6485C12.5657 16.6485 12.25 16.3328 12.25 15.9433C12.25 15.554 12.5657 15.2383 12.955 15.2383C13.3445 15.2383 13.6602 15.554 13.6602 15.9433Z" fill="#002280"/>
<path d="M13.6602 19.4823C13.6602 19.8718 13.3445 20.1874 12.955 20.1874C12.5657 20.1874 12.25 19.8718 12.25 19.4823C12.25 19.0929 12.5657 18.7773 12.955 18.7773C13.3445 18.7773 13.6602 19.0929 13.6602 19.4823Z" fill="#002280"/>
<path d="M13.6563 23.0253C13.6563 23.4148 13.3406 23.7305 12.9511 23.7305C12.5618 23.7305 12.2461 23.4148 12.2461 23.0253C12.2461 22.636 12.5618 22.3203 12.9511 22.3203C13.3406 22.3203 13.6563 22.636 13.6563 23.0253Z" fill="#002280"/>
</svg>
