<svg width="26" height="26" viewBox="0 0 26 26" fill="none" xmlns="http://www.w3.org/2000/svg">
<path d="M21.6342 9.47786H18.4492C17.0733 9.47786 16.25 8.65453 16.25 7.2787V4.0937C16.25 2.71786 17.0733 1.89453 18.4492 1.89453H21.6342C23.01 1.89453 23.8333 2.71786 23.8333 4.0937V7.2787C23.8333 8.65453 23.01 9.47786 21.6342 9.47786ZM21.8725 5.89203C21.7425 5.76203 21.5692 5.69703 21.3958 5.69703C21.2225 5.69703 21.0492 5.76203 20.9192 5.89203L20.7242 6.08703V3.66036C20.7242 3.2812 20.4208 2.97786 20.0417 2.97786C19.6625 2.97786 19.3592 3.2812 19.3592 3.66036V6.08703L19.1642 5.89203C18.9042 5.63203 18.4708 5.63203 18.2108 5.89203C17.9508 6.15203 17.9508 6.58536 18.2108 6.84537L19.565 8.19953C19.6192 8.2537 19.695 8.29703 19.7708 8.32953C19.7925 8.34036 19.8142 8.34036 19.8358 8.3512C19.89 8.37286 19.9442 8.3837 20.0092 8.3837C20.0308 8.3837 20.0525 8.3837 20.0742 8.3837C20.15 8.3837 20.215 8.37286 20.2908 8.34036C20.3017 8.34036 20.3017 8.34036 20.3125 8.34036C20.3883 8.30786 20.4533 8.26453 20.5075 8.21036C20.5183 8.19953 20.5183 8.19953 20.5292 8.19953L21.8833 6.84537C22.1433 6.58536 22.1433 6.15203 21.8725 5.89203Z" fill="white"/>
<path d="M2.16602 12.4163V17.833C2.16602 20.3138 4.17018 22.318 6.65102 22.318H19.3368C21.8177 22.318 23.8327 20.303 23.8327 17.8221V12.4163C23.8327 11.6905 23.2477 11.1055 22.5219 11.1055H3.47685C2.75102 11.1055 2.16602 11.6905 2.16602 12.4163ZM8.66602 18.6888H6.49935C6.05518 18.6888 5.68685 18.3205 5.68685 17.8763C5.68685 17.4321 6.05518 17.0638 6.49935 17.0638H8.66602C9.11018 17.0638 9.47852 17.4321 9.47852 17.8763C9.47852 18.3205 9.11018 18.6888 8.66602 18.6888ZM15.7077 18.6888H11.3743C10.9302 18.6888 10.5618 18.3205 10.5618 17.8763C10.5618 17.4321 10.9302 17.0638 11.3743 17.0638H15.7077C16.1518 17.0638 16.5202 17.4321 16.5202 17.8763C16.5202 18.3205 16.1518 18.6888 15.7077 18.6888Z" fill="white"/>
<path d="M14.6243 4.99443V8.16859C14.6243 8.89443 14.0393 9.47943 13.3135 9.47943H3.47685C2.74018 9.47943 2.16602 8.87276 2.16602 8.14693C2.17685 6.92276 2.66435 5.80693 3.47685 4.99443C4.28935 4.18193 5.41602 3.68359 6.65102 3.68359H13.3135C14.0393 3.68359 14.6243 4.26859 14.6243 4.99443Z" fill="white"/>
</svg>
