<svg width="196" height="182" viewBox="0 0 196 182" fill="none" xmlns="http://www.w3.org/2000/svg">
<path d="M96.1545 155.198C138.967 155.198 173.676 120.522 173.676 77.5988C173.676 34.675 138.967 0 96.1545 0C53.3417 0 18.6328 34.675 18.6328 77.5988C18.6328 120.522 53.3417 155.198 96.1545 155.198Z" fill="#EAEEF9"/>
<path d="M182.546 53.3114C186.009 53.3114 188.815 50.5074 188.815 47.0485C188.815 43.5896 186.009 40.7856 182.546 40.7856C179.084 40.7856 176.277 43.5896 176.277 47.0485C176.277 50.5074 179.084 53.3114 182.546 53.3114Z" fill="#EAEEF9"/>
<path d="M191.716 28.7183C194.081 28.7183 195.998 26.8033 195.998 24.4412C195.998 22.079 194.081 20.1641 191.716 20.1641C189.352 20.1641 187.435 22.079 187.435 24.4412C187.435 26.8033 189.352 28.7183 191.716 28.7183Z" fill="#EAEEF9"/>
<path d="M13.2813 57.7412C15.6458 57.7412 17.5626 55.8263 17.5626 53.4641C17.5626 51.1019 15.6458 49.187 13.2813 49.187C10.9168 49.187 9 51.1019 9 53.4641C9 55.8263 10.9168 57.7412 13.2813 57.7412Z" fill="#EAEEF9"/>
<path d="M128.648 32.7544C155.043 32.7544 176.335 51.9317 176.335 75.5076C176.335 89.0549 169.297 101.195 158.211 109.112V126.882C158.211 129.345 155.395 130.576 153.636 129.169L138.503 117.381C135.335 117.909 132.168 118.261 128.824 118.261C102.429 118.261 81.1372 99.0834 81.1372 75.5076C81.1372 51.9317 102.429 32.7544 128.648 32.7544Z" fill="url(#paint0_linear_3316_120171)"/>
<g filter="url(#filter0_d_3316_120171)">
<path d="M82.019 30.644C52.6325 30.644 28.877 51.9327 28.877 78.1476C28.877 93.2783 36.7955 106.826 49.1132 115.447V135.152C49.1132 137.791 52.1046 139.374 54.2162 137.615L71.1091 124.595C74.6284 125.299 78.1478 125.651 81.8431 125.651C111.23 125.651 134.985 104.362 134.985 78.1476C134.985 51.9327 111.23 30.644 82.019 30.644Z" fill="url(#paint1_linear_3316_120171)"/>
</g>
<path d="M64.6868 80.0827C67.8939 80.0827 70.4937 77.4833 70.4937 74.2767C70.4937 71.0701 67.8939 68.4707 64.6868 68.4707C61.4797 68.4707 58.8799 71.0701 58.8799 74.2767C58.8799 77.4833 61.4797 80.0827 64.6868 80.0827Z" fill="#989FB0"/>
<path d="M97.5945 80.0827C100.802 80.0827 103.401 77.4833 103.401 74.2767C103.401 71.0701 100.802 68.4707 97.5945 68.4707C94.3874 68.4707 91.7876 71.0701 91.7876 74.2767C91.7876 77.4833 94.3874 80.0827 97.5945 80.0827Z" fill="#989FB0"/>
<path d="M88.4439 98.5559C87.916 98.5559 87.3881 98.38 87.0362 97.8522C85.6284 95.9168 83.5168 94.8612 81.0533 94.8612C78.7657 94.8612 76.4781 95.9168 75.2464 97.8522C74.7185 98.7319 73.6627 98.9078 72.7828 98.2041C71.903 97.6762 71.727 96.6206 72.4309 95.7409C74.3665 92.9259 77.7099 91.1665 81.2293 91.1665C84.7486 91.1665 87.916 92.9259 90.0276 95.7409C90.5555 96.6206 90.3795 97.6762 89.6757 98.2041C89.1478 98.5559 88.7958 98.5559 88.4439 98.5559Z" fill="#989FB0"/>
<path d="M68.9309 26.1788C68.7188 26.1788 68.5066 26.1788 68.2944 26.1788C67.2336 25.7545 66.597 24.6938 66.8092 23.6331L70.4161 11.9655C70.8405 10.9049 71.9013 10.2684 72.9622 10.4806C74.023 10.9049 74.6596 11.9655 74.4474 13.0262L71.0526 24.6938C70.8405 25.5423 69.9918 26.1788 68.9309 26.1788Z" fill="#B5BCCE"/>
<path d="M60.0172 28.7243C59.1685 28.7243 58.3198 28.0879 57.8955 27.2394L52.379 10.4805C51.9547 9.41984 52.5912 8.14701 53.652 7.72274C54.7129 7.29847 55.9859 7.93488 56.4103 8.99556L61.9267 25.7544C62.3511 26.8151 61.7146 28.0879 60.6537 28.5122C60.4415 28.7243 60.2294 28.7243 60.0172 28.7243Z" fill="#B5BCCE"/>
<path d="M51.7432 32.755C51.1067 32.755 50.6824 32.5429 50.258 32.1186L43.4685 25.5424C42.6199 24.6938 42.6199 23.421 43.4685 22.5724C44.3172 21.7239 45.5903 21.7239 46.4389 22.5724L53.2284 29.1487C54.0771 29.9973 54.0771 31.2701 53.2284 32.1186C52.8041 32.5429 52.1676 32.755 51.7432 32.755Z" fill="#B5BCCE"/>
<defs>
<filter id="filter0_d_3316_120171" x="0.447796" y="16.4295" width="162.967" height="164.572" filterUnits="userSpaceOnUse" color-interpolation-filters="sRGB">
<feFlood flood-opacity="0" result="BackgroundImageFix"/>
<feColorMatrix in="SourceAlpha" type="matrix" values="0 0 0 0 0 0 0 0 0 0 0 0 0 0 0 0 0 0 127 0" result="hardAlpha"/>
<feOffset dy="14.2146"/>
<feGaussianBlur stdDeviation="14.2146"/>
<feColorMatrix type="matrix" values="0 0 0 0 0.397708 0 0 0 0 0.47749 0 0 0 0 0.575 0 0 0 0.27 0"/>
<feBlend mode="normal" in2="BackgroundImageFix" result="effect1_dropShadow_3316_120171"/>
<feBlend mode="normal" in="SourceGraphic" in2="effect1_dropShadow_3316_120171" result="shape"/>
</filter>
<linearGradient id="paint0_linear_3316_120171" x1="64.4895" y1="13.3521" x2="190.577" y2="116.754" gradientUnits="userSpaceOnUse">
<stop stop-color="#CBD4E0" stop-opacity="0"/>
<stop offset="1" stop-color="#CBD4E0"/>
</linearGradient>
<linearGradient id="paint1_linear_3316_120171" x1="81.8965" y1="28.1525" x2="81.8965" y2="139.519" gradientUnits="userSpaceOnUse">
<stop stop-color="#FDFEFF"/>
<stop offset="0.9964" stop-color="#ECF0F5"/>
</linearGradient>
</defs>
</svg>
