<svg width="28" height="27" viewBox="0 0 28 27" fill="none" xmlns="http://www.w3.org/2000/svg">
<path fill-rule="evenodd" clip-rule="evenodd" d="M8.38458 3.65723C5.95549 3.65723 3.98633 5.62639 3.98633 8.05548V15.7524C3.98633 18.1815 5.95549 20.1507 8.38457 20.1507H20.4798C20.4888 20.1507 20.4979 20.1506 20.5069 20.1506L22.4025 22.0462C23.326 22.9697 24.9052 22.3156 24.9052 21.0095V16.852L24.7201 16.9248C24.823 16.5515 24.878 16.1584 24.878 15.7524V8.05548C24.878 5.62639 22.9089 3.65723 20.4798 3.65723H8.38458Z" fill="#A1B3C9"/>
<path fill-rule="evenodd" clip-rule="evenodd" d="M8.93548 13.5536C8.02457 13.5536 7.28613 12.8151 7.28613 11.9042C7.28613 10.9933 8.02457 10.2549 8.93548 10.2549C9.84638 10.2549 10.5848 10.9933 10.5848 11.9042C10.5848 12.8151 9.84638 13.5536 8.93548 13.5536Z" fill="white"/>
<path fill-rule="evenodd" clip-rule="evenodd" d="M14.4325 13.5536C13.5216 13.5536 12.7832 12.8151 12.7832 11.9042C12.7832 10.9933 13.5216 10.2549 14.4325 10.2549C15.3435 10.2549 16.0819 10.9933 16.0819 11.9042C16.0819 12.8151 15.3435 13.5536 14.4325 13.5536Z" fill="white"/>
<path fill-rule="evenodd" clip-rule="evenodd" d="M19.9306 13.5536C19.0197 13.5536 18.2812 12.8151 18.2812 11.9042C18.2812 10.9933 19.0197 10.2549 19.9306 10.2549C20.8415 10.2549 21.5799 10.9933 21.5799 11.9042C21.5799 12.8151 20.8415 13.5536 19.9306 13.5536Z" fill="white"/>
</svg>
