<svg width="30" height="31" viewBox="0 0 30 31" fill="none" xmlns="http://www.w3.org/2000/svg">
<path fill-rule="evenodd" clip-rule="evenodd" d="M8.38653 4.46777C5.95745 4.46777 3.98828 6.43694 3.98828 8.86603V18.3956C3.98828 20.8247 5.95744 22.7938 8.38653 22.7938H22.3454L24.7295 25.178C25.6531 26.1016 27.2323 25.4475 27.2323 24.1413V19.1286L27.1338 19.1673C27.1781 18.9168 27.2013 18.6589 27.2013 18.3956V8.86603C27.2013 6.43694 25.2321 4.46777 22.803 4.46777H8.38653Z" fill="#A1B3C9"/>
<path fill-rule="evenodd" clip-rule="evenodd" d="M9.48593 15.4631C8.47381 15.4631 7.65332 14.6426 7.65332 13.6305C7.65332 12.6183 8.47381 11.7979 9.48593 11.7979C10.498 11.7979 11.3185 12.6183 11.3185 13.6305C11.3185 14.6426 10.498 15.4631 9.48593 15.4631Z" fill="white"/>
<path fill-rule="evenodd" clip-rule="evenodd" d="M15.5953 15.4631C14.5832 15.4631 13.7627 14.6426 13.7627 13.6305C13.7627 12.6183 14.5832 11.7979 15.5953 11.7979C16.6074 11.7979 17.4279 12.6183 17.4279 13.6305C17.4279 14.6426 16.6074 15.4631 15.5953 15.4631Z" fill="white"/>
<path fill-rule="evenodd" clip-rule="evenodd" d="M21.7027 15.4631C20.6906 15.4631 19.8701 14.6426 19.8701 13.6305C19.8701 12.6183 20.6906 11.7979 21.7027 11.7979C22.7148 11.7979 23.5353 12.6183 23.5353 13.6305C23.5353 14.6426 22.7148 15.4631 21.7027 15.4631Z" fill="white"/>
</svg>
