<svg width="30" height="31" viewBox="0 0 30 31" fill="none" xmlns="http://www.w3.org/2000/svg">
<path fill-rule="evenodd" clip-rule="evenodd" d="M8.4964 4.50586C6.06731 4.50586 4.09814 6.47502 4.09814 8.90411V18.4337C4.09814 20.8627 6.06731 22.8319 8.49639 22.8319H22.4552L24.8394 25.2161C25.763 26.1397 27.3422 25.4856 27.3422 24.1794V19.1667L27.2437 19.2054C27.288 18.9548 27.3111 18.697 27.3111 18.4337V8.90411C27.3111 6.47502 25.342 4.50586 22.9129 4.50586H8.4964Z" fill="#FF642B"/>
<path fill-rule="evenodd" clip-rule="evenodd" d="M9.59579 15.5011C8.58367 15.5011 7.76318 14.6807 7.76318 13.6685C7.76318 12.6564 8.58367 11.8359 9.59579 11.8359C10.6079 11.8359 11.4284 12.6564 11.4284 13.6685C11.4284 14.6807 10.6079 15.5011 9.59579 15.5011Z" fill="white"/>
<path fill-rule="evenodd" clip-rule="evenodd" d="M15.7052 15.5011C14.693 15.5011 13.8726 14.6807 13.8726 13.6685C13.8726 12.6564 14.693 11.8359 15.7052 11.8359C16.7173 11.8359 17.5378 12.6564 17.5378 13.6685C17.5378 14.6807 16.7173 15.5011 15.7052 15.5011Z" fill="white"/>
<path fill-rule="evenodd" clip-rule="evenodd" d="M21.8126 15.5011C20.8005 15.5011 19.98 14.6807 19.98 13.6685C19.98 12.6564 20.8005 11.8359 21.8126 11.8359C22.8247 11.8359 23.6452 12.6564 23.6452 13.6685C23.6452 14.6807 22.8247 15.5011 21.8126 15.5011Z" fill="white"/>
</svg>
