<svg width="771" height="1024" viewBox="0 0 771 1024" fill="none" xmlns="http://www.w3.org/2000/svg">
<rect x="0.90332" width="733.618" height="1024" fill="url(#paint0_linear_317_116038)"/>
<mask id="mask0_317_116038" style="mask-type:alpha" maskUnits="userSpaceOnUse" x="-68" y="-34" width="839" height="1057">
<path d="M-68 -18C-68 -26.8365 -60.8366 -34 -52 -34H771V1023H-52C-60.8366 1023 -68 1015.84 -68 1007V-18Z" fill="url(#paint1_linear_317_116038)"/>
</mask>
<g mask="url(#mask0_317_116038)">
<path opacity="0.05" d="M530.561 519.429C530.561 612.37 454.217 687.714 360.041 687.714C265.866 687.714 189.521 612.37 189.521 519.429C189.521 426.488 265.866 351.145 360.041 351.145C454.217 351.145 530.561 426.488 530.561 519.429ZM245.325 519.429C245.325 581.955 296.685 632.641 360.041 632.641C423.397 632.641 474.758 581.955 474.758 519.429C474.758 456.904 423.397 406.217 360.041 406.217C296.685 406.217 245.325 456.904 245.325 519.429Z" fill="white"/>
<path opacity="0.05" d="M650.85 519.429C650.85 677.933 520.65 806.426 360.041 806.426C199.431 806.426 69.2314 677.933 69.2314 519.429C69.2314 360.925 199.431 232.433 360.041 232.433C520.65 232.433 650.85 360.925 650.85 519.429ZM141.323 519.429C141.323 638.64 239.246 735.279 360.041 735.279C480.835 735.279 578.758 638.64 578.758 519.429C578.758 400.219 480.835 303.579 360.041 303.579C239.246 303.579 141.323 400.219 141.323 519.429Z" fill="white"/>
<path opacity="0.05" d="M789.646 519.429C789.646 753.582 597.305 943.401 360.041 943.401C122.777 943.401 -69.5635 753.582 -69.5635 519.429C-69.5635 285.276 122.777 95.457 360.041 95.457C597.305 95.457 789.646 285.276 789.646 519.429ZM21.4976 519.429C21.4976 703.95 173.069 853.534 360.041 853.534C547.014 853.534 698.585 703.95 698.585 519.429C698.585 334.908 547.014 185.324 360.041 185.324C173.069 185.324 21.4976 334.908 21.4976 519.429Z" fill="white"/>
<path opacity="0.05" d="M952.234 519.429C952.234 842.201 687.1 1103.86 360.041 1103.86C32.9817 1103.86 -232.152 842.201 -232.152 519.429C-232.152 196.658 32.9817 -65 360.041 -65C687.1 -65 952.234 196.658 952.234 519.429ZM-106.628 519.429C-106.628 773.784 102.307 979.98 360.041 979.98C617.775 979.98 826.71 773.784 826.71 519.429C826.71 265.074 617.775 58.8784 360.041 58.8784C102.307 58.8784 -106.628 265.074 -106.628 519.429Z" fill="white"/>
</g>
<defs>
<linearGradient id="paint0_linear_317_116038" x1="-8.01219" y1="-15" x2="884.425" y2="124.371" gradientUnits="userSpaceOnUse">
<stop stop-color="#FD8839"/>
<stop offset="1" stop-color="#FF642B"/>
</linearGradient>
<linearGradient id="paint1_linear_317_116038" x1="-78.1962" y1="-49.4834" x2="936.938" y2="126.161" gradientUnits="userSpaceOnUse">
<stop stop-color="#FD8839"/>
<stop offset="1" stop-color="#FF642B"/>
</linearGradient>
</defs>
</svg>
