<svg width="44" height="45" viewBox="0 0 44 45" fill="none" xmlns="http://www.w3.org/2000/svg">
<path d="M40.1861 31.2078C39.5811 36.0844 35.5844 40.0811 30.7078 40.6861C27.7561 41.0528 25.0061 40.2461 22.8611 38.6694C21.6328 37.7711 21.9261 35.8644 23.3928 35.4244C28.9111 33.7561 33.2561 29.3928 34.9428 23.8744C35.3828 22.4261 37.2894 22.1328 38.1878 23.3428C39.7461 25.5061 40.5528 28.2561 40.1861 31.2078Z" fill="#EE7402"/>
<path d="M18.3153 4.16602C10.2303 4.16602 3.66699 10.7293 3.66699 18.8143C3.66699 26.8993 10.2303 33.4627 18.3153 33.4627C26.4003 33.4627 32.9637 26.8993 32.9637 18.8143C32.9453 10.7293 26.4003 4.16602 18.3153 4.16602ZM16.592 16.761L21.0103 18.301C22.6053 18.8693 23.3753 19.9877 23.3753 21.711C23.3753 23.691 21.7987 25.3227 19.8737 25.3227H19.7087V25.4143C19.7087 26.166 19.0853 26.7893 18.3337 26.7893C17.582 26.7893 16.9587 26.166 16.9587 25.4143V25.3043C14.9237 25.2127 13.292 23.5077 13.292 21.381C13.292 20.6293 13.9153 20.006 14.667 20.006C15.4187 20.006 16.042 20.6293 16.042 21.381C16.042 22.041 16.5187 22.5727 17.1053 22.5727H19.8553C20.277 22.5727 20.607 22.1877 20.607 21.711C20.607 21.0693 20.497 21.0327 20.0753 20.886L15.657 19.346C14.0803 18.796 13.292 17.6777 13.292 15.936C13.292 13.956 14.8687 12.3243 16.7937 12.3243H16.9587V12.251C16.9587 11.4993 17.582 10.876 18.3337 10.876C19.0853 10.876 19.7087 11.4993 19.7087 12.251V12.361C21.7437 12.4527 23.3753 14.1577 23.3753 16.2843C23.3753 17.036 22.752 17.6593 22.0003 17.6593C21.2487 17.6593 20.6253 17.036 20.6253 16.2843C20.6253 15.6243 20.1487 15.0927 19.562 15.0927H16.812C16.3903 15.0927 16.0603 15.4777 16.0603 15.9543C16.042 16.5777 16.152 16.6143 16.592 16.761Z" fill="#EE7402"/>
</svg>
