<svg width="171" height="171" viewBox="0 0 171 171" fill="none" xmlns="http://www.w3.org/2000/svg">
<path opacity="0.2" d="M76.5614 15.4C80.6098 8.65154 90.3902 8.65154 94.4386 15.4L94.9507 16.2537C97.9265 21.214 104.372 22.8027 109.312 19.7934L110.162 19.2756C116.883 15.1815 125.543 19.7266 125.992 27.5836L126.049 28.5774C126.378 34.3525 131.347 38.7546 137.12 38.3858L138.113 38.3223C145.967 37.8206 151.523 45.8696 148.269 53.035L147.857 53.9414C145.465 59.2082 147.819 65.4153 153.102 67.7714L154.011 68.1769C161.199 71.3824 162.378 81.0915 156.166 85.9239L155.381 86.5351C150.815 90.0871 150.015 96.6772 153.598 101.218L154.214 102C159.089 108.178 155.62 117.323 147.875 118.716L146.895 118.892C141.202 119.915 137.431 125.378 138.493 131.065L138.676 132.043C140.12 139.779 132.8 146.265 125.294 143.898L124.345 143.599C118.828 141.859 112.95 144.944 111.248 150.472L110.955 151.424C108.639 158.945 99.143 161.286 93.5971 155.702L92.8956 154.996C88.8193 150.892 82.1807 150.892 78.1044 154.996L77.4029 155.702C71.857 161.286 62.3609 158.945 60.0451 151.424L59.7522 150.472C58.05 144.944 52.1719 141.859 46.6552 143.599L45.7058 143.898C38.2004 146.265 30.8797 139.779 32.3245 132.043L32.5072 131.065C33.5691 125.378 29.798 119.915 24.1048 118.892L23.1251 118.716C15.3795 117.323 11.9114 108.178 16.7857 102L17.4023 101.218C20.9851 96.6772 20.1849 90.0871 15.6194 86.5351L14.8337 85.9239C8.62241 81.0915 9.8013 71.3824 16.9886 68.1769L17.8977 67.7714C23.1806 65.4153 25.5346 59.2082 23.1428 53.9414L22.7311 53.035C19.477 45.8696 25.0329 37.8206 32.8866 38.3223L33.88 38.3858C39.6527 38.7546 44.6217 34.3525 44.9514 28.5774L45.0082 27.5836C45.4567 19.7266 54.1168 15.1815 60.8377 19.2756L61.6879 19.7934C66.6279 22.8027 73.0735 21.214 76.0493 16.2537L76.5614 15.4Z" fill="#EE7402"/>
<circle cx="85.4996" cy="85.4996" r="43.2203" fill="#EE7402"/>
<path d="M79.8702 98.7323C79.3996 98.7323 78.929 98.5522 78.5705 98.1937L67.3107 86.9336C66.5917 86.2149 66.5917 85.0529 67.3107 84.3343C68.0294 83.6156 69.1911 83.6156 69.9101 84.3343L79.8702 94.2944L101.091 73.0742C101.809 72.3555 102.971 72.3555 103.69 73.0742C104.409 73.7932 104.409 74.9548 103.69 75.6738L81.1702 98.1937C80.8117 98.5522 80.3408 98.7323 79.8702 98.7323Z" fill="white" stroke="white" stroke-width="2.08475"/>
</svg>
