<svg width="24" height="25" viewBox="0 0 24 25" fill="none" xmlns="http://www.w3.org/2000/svg">
<path d="M22 21.7492H20.75V11.4992C20.75 9.07921 19.42 7.74921 17 7.74921H12.75V6.51921C13.33 6.65921 13.91 6.73921 14.5 6.73921C15.44 6.73921 16.38 6.55921 17.28 6.19921C17.56 6.08921 17.75 5.80921 17.75 5.49921V2.49921C17.75 2.24921 17.63 2.01921 17.42 1.87921C17.21 1.73921 16.95 1.70921 16.72 1.79921C15.29 2.36921 13.71 2.36921 12.28 1.79921C12.05 1.70921 11.79 1.73921 11.58 1.87921C11.37 2.01921 11.25 2.24921 11.25 2.49921V5.49921V7.74921H7C4.58 7.74921 3.25 9.07921 3.25 11.4992V21.7492H2C1.59 21.7492 1.25 22.0892 1.25 22.4992C1.25 22.9092 1.59 23.2492 2 23.2492H4H20H22C22.41 23.2492 22.75 22.9092 22.75 22.4992C22.75 22.0892 22.41 21.7492 22 21.7492ZM7.24 21.7492H4.75V13.2492H7.24V21.7492ZM11.24 21.7492H8.74V13.2492H11.24V21.7492ZM15.24 21.7492H12.74V13.2492H15.24V21.7492ZM19.25 21.7492H16.74V13.2492H19.25V21.7492Z" fill="#FF642B"/>
</svg>
