<svg width="18" height="18" viewBox="0 0 18 18" fill="none" xmlns="http://www.w3.org/2000/svg">
<path d="M15.7275 6H13.5225C12.57 6 12 5.43 12 4.4775V2.2725C12 1.32 12.57 0.75 13.5225 0.75H15.7275C16.68 0.75 17.25 1.32 17.25 2.2725V4.4775C17.25 5.43 16.68 6 15.7275 6ZM15.8925 3.5175C15.8025 3.4275 15.6825 3.3825 15.5625 3.3825C15.4425 3.3825 15.3225 3.4275 15.2325 3.5175L15.0975 3.6525V1.9725C15.0975 1.71 14.8875 1.5 14.625 1.5C14.3625 1.5 14.1525 1.71 14.1525 1.9725V3.6525L14.0175 3.5175C13.8375 3.3375 13.5375 3.3375 13.3575 3.5175C13.1775 3.6975 13.1775 3.9975 13.3575 4.1775L14.295 5.115C14.3325 5.1525 14.385 5.1825 14.4375 5.205C14.4525 5.2125 14.4675 5.2125 14.4825 5.22C14.52 5.235 14.5575 5.2425 14.6025 5.2425C14.6175 5.2425 14.6325 5.2425 14.6475 5.2425C14.7 5.2425 14.745 5.235 14.7975 5.2125C14.805 5.2125 14.805 5.2125 14.8125 5.2125C14.865 5.19 14.91 5.16 14.9475 5.1225C14.955 5.115 14.955 5.115 14.9625 5.115L15.9 4.1775C16.08 3.9975 16.08 3.6975 15.8925 3.5175Z" fill="white"/>
<path opacity="0.4" d="M16.5 5.82828V6.75078H1.5V5.65578C1.5 3.93828 2.895 2.55078 4.6125 2.55078H12V4.47828C12 5.43078 12.57 6.00078 13.5225 6.00078H15.7275C16.0275 6.00078 16.2825 5.94828 16.5 5.82828Z" fill="white"/>
<path d="M1.5 6.75V12.345C1.5 14.0625 2.895 15.45 4.6125 15.45H13.3875C15.105 15.45 16.5 14.0625 16.5 12.345V6.75H1.5ZM6 12.9375H4.5C4.1925 12.9375 3.9375 12.6825 3.9375 12.375C3.9375 12.0675 4.1925 11.8125 4.5 11.8125H6C6.3075 11.8125 6.5625 12.0675 6.5625 12.375C6.5625 12.6825 6.3075 12.9375 6 12.9375ZM10.875 12.9375H7.875C7.5675 12.9375 7.3125 12.6825 7.3125 12.375C7.3125 12.0675 7.5675 11.8125 7.875 11.8125H10.875C11.1825 11.8125 11.4375 12.0675 11.4375 12.375C11.4375 12.6825 11.1825 12.9375 10.875 12.9375Z" fill="white"/>
</svg>
