<svg width="24" height="25" viewBox="0 0 24 25" fill="none" xmlns="http://www.w3.org/2000/svg">
<path opacity="0.4" d="M20.5 10.6744H17.61C15.24 10.6744 13.31 8.74437 13.31 6.37437V3.48438C13.31 2.93437 12.86 2.48438 12.31 2.48438H8.07C4.99 2.48438 2.5 4.48438 2.5 8.05438V16.9144C2.5 20.4844 4.99 22.4844 8.07 22.4844H15.93C19.01 22.4844 21.5 20.4844 21.5 16.9144V11.6744C21.5 11.1244 21.05 10.6744 20.5 10.6744Z" fill="white"/>
<path d="M15.7997 2.69486C15.3897 2.28486 14.6797 2.56486 14.6797 3.13486V6.62486C14.6797 8.08486 15.9197 9.29486 17.4297 9.29486C18.3797 9.30486 19.6997 9.30486 20.8297 9.30486C21.3997 9.30486 21.6997 8.63486 21.2997 8.23486C19.8597 6.78486 17.2797 4.17486 15.7997 2.69486Z" fill="white"/>
<path d="M13.5 18.7344H7.5C7.09 18.7344 6.75 18.3944 6.75 17.9844C6.75 17.5744 7.09 17.2344 7.5 17.2344H13.5C13.91 17.2344 14.25 17.5744 14.25 17.9844C14.25 18.3944 13.91 18.7344 13.5 18.7344Z" fill="white"/>
<path d="M11.5 14.2344H7.5C7.09 14.2344 6.75 13.8944 6.75 13.4844C6.75 13.0744 7.09 12.7344 7.5 12.7344H11.5C11.91 12.7344 12.25 13.0744 12.25 13.4844C12.25 13.8944 11.91 14.2344 11.5 14.2344Z" fill="white"/>
</svg>
