<svg width="28" height="28" viewBox="0 0 28 28" fill="none" xmlns="http://www.w3.org/2000/svg">
<path d="M18.0859 15.3391H15.5543C13.4776 15.3391 11.7859 13.6591 11.7859 11.5707V9.03906C11.7859 8.56073 11.4009 8.16406 10.9109 8.16406H7.2126C4.5176 8.16406 2.33594 9.91406 2.33594 13.0407V20.7874C2.33594 23.9141 4.5176 25.6641 7.2126 25.6641H14.0843C16.7793 25.6641 18.9609 23.9141 18.9609 20.7874V16.2141C18.9609 15.7241 18.5643 15.3391 18.0859 15.3391Z" fill="#23C99A"/>
<path d="M20.7914 2.33594H18.493H17.2214H13.9197C11.283 2.33594 9.14802 4.01594 9.05469 7.01427C9.12469 7.01427 9.18302 7.0026 9.25302 7.0026H12.5547H13.8264H16.1247C18.8197 7.0026 21.0014 8.7526 21.0014 11.8793V14.1776V17.3393V19.6376C21.0014 19.7076 20.9897 19.7659 20.9897 19.8243C23.5914 19.7426 25.668 18.0159 25.668 14.9709V12.6726V9.51094V7.2126C25.668 4.08594 23.4864 2.33594 20.7914 2.33594Z" fill="#23C99A"/>
<path d="M13.98 8.34431C13.6183 7.98264 13 8.22764 13 8.72931V11.786C13 13.0693 14.085 14.1193 15.415 14.1193C16.2433 14.131 17.3983 14.131 18.39 14.131C18.8917 14.131 19.1483 13.5476 18.7983 13.1976C17.5267 11.926 15.2633 9.65097 13.98 8.34431Z" fill="#23C99A"/>
</svg>
