<svg width="32" height="32" viewBox="0 0 32 32" fill="none" xmlns="http://www.w3.org/2000/svg">
<g clip-path="url(#clip0_1658_50506)">
<path d="M16 32C24.8366 32 32 24.8366 32 16C32 7.16344 24.8366 0 16 0C7.16344 0 0 7.16344 0 16C0 24.8366 7.16344 32 16 32Z" fill="#FFB84D"/>
<path d="M31.9721 16.9391L20.2224 5.18945H7.90382V15.4192H7.79026C7.31901 15.4192 6.93701 15.8012 6.93701 16.2725V22.3086C6.93701 22.5511 7.03832 22.7696 7.20082 22.9248L7.90382 23.5804V26.3105L13.3783 31.7849C14.2316 31.9255 15.1072 31.9999 16.0003 31.9999C24.5215 31.9999 31.4858 25.3384 31.9721 16.9391Z" fill="#FF8900"/>
<path d="M24.0961 26.3105H7.90332V5.18945H20.222L24.0961 9.06358V26.3105Z" fill="white"/>
<path d="M24.0966 26.3105V9.0637L20.2224 5.18945H16V26.3105H24.0966Z" fill="#FFF5CB"/>
<path d="M20.2222 5.18945L24.0962 9.06358H20.2222V5.18945Z" fill="#00B7BE"/>
<path d="M24.2104 23.1621H7.79026C7.31901 23.1621 6.93701 22.7801 6.93701 22.3088V16.2727C6.93701 15.8014 7.31901 15.4194 7.79026 15.4194H24.2103C24.6816 15.4194 25.0636 15.8014 25.0636 16.2727V22.3088C25.0636 22.78 24.6816 23.1621 24.2104 23.1621Z" fill="#0088FF"/>
<path d="M25.0631 16.2726V22.3088C25.0631 22.7801 24.6812 23.1619 24.21 23.1619H16V15.4194H24.21C24.6812 15.4194 25.0631 15.8013 25.0631 16.2726Z" fill="#004EB1"/>
<path d="M9.29297 21.4868V17.0874H10.8916C11.251 17.0874 11.566 17.1453 11.8365 17.2609C12.107 17.3766 12.3332 17.5335 12.515 17.7318C12.6967 17.9301 12.833 18.1625 12.924 18.4288C13.0148 18.6953 13.0603 18.9794 13.0603 19.2808C13.0603 19.6155 13.0097 19.9181 12.9085 20.1886C12.8072 20.4592 12.6616 20.6905 12.4717 20.8825C12.2816 21.0746 12.0534 21.2233 11.787 21.3287C11.5205 21.434 11.222 21.4867 10.8916 21.4867H9.29297V21.4868ZM12.199 19.2809C12.199 19.0702 12.1701 18.8761 12.1123 18.6985C12.0543 18.5209 11.9698 18.368 11.8583 18.24C11.7467 18.112 11.6093 18.0128 11.4462 17.9425C11.283 17.8723 11.0982 17.8372 10.8916 17.8372H10.1481V20.737H10.8916C11.1023 20.737 11.2892 20.6998 11.4524 20.6255C11.6155 20.5512 11.7518 20.4489 11.8613 20.3188C11.9708 20.1887 12.0544 20.0348 12.1123 19.8572C12.1701 19.6796 12.199 19.4875 12.199 19.2809Z" fill="white"/>
<path d="M15.9169 21.5179C15.5947 21.5179 15.3024 21.455 15.0401 21.3289C14.7778 21.203 14.5526 21.0357 14.3647 20.827C14.1767 20.6185 14.0311 20.38 13.9279 20.1114C13.8246 19.8429 13.7729 19.5683 13.7729 19.2873C13.7729 18.994 13.8276 18.7131 13.9371 18.4446C14.0466 18.1761 14.1974 17.9386 14.3895 17.732C14.5815 17.5255 14.8098 17.3613 15.0741 17.2394C15.3384 17.1176 15.6256 17.0566 15.9354 17.0566C16.2534 17.0566 16.5436 17.1217 16.806 17.2518C17.0683 17.3819 17.2924 17.5523 17.4783 17.763C17.6642 17.9736 17.8088 18.2133 17.9121 18.4818C18.0153 18.7503 18.0669 19.023 18.0669 19.2997C18.0669 19.593 18.0133 19.8728 17.9059 20.1393C17.7984 20.4058 17.6496 20.6412 17.4597 20.8457C17.2696 21.0502 17.0424 21.2134 16.7781 21.3352C16.5137 21.457 16.2267 21.5179 15.9169 21.5179ZM14.6404 19.2873C14.6404 19.4773 14.6693 19.6611 14.7272 19.8387C14.785 20.0164 14.8687 20.1733 14.9782 20.3096C15.0876 20.446 15.2218 20.5555 15.3809 20.638C15.5399 20.7206 15.7207 20.7619 15.9231 20.7619C16.1296 20.7619 16.3124 20.7196 16.4714 20.6349C16.6304 20.5503 16.7647 20.4377 16.8742 20.2972C16.9836 20.1568 17.0663 19.9988 17.122 19.8232C17.1778 19.6476 17.2057 19.4691 17.2057 19.2873C17.2057 19.0973 17.1756 18.9134 17.1158 18.7358C17.0559 18.5582 16.9712 18.4011 16.8618 18.2649C16.7523 18.1285 16.618 18.0201 16.4591 17.9396C16.3 17.859 16.1214 17.8187 15.9231 17.8187C15.7164 17.8187 15.5328 17.8611 15.3716 17.9458C15.2106 18.0305 15.0763 18.142 14.9689 18.2803C14.8614 18.4188 14.7799 18.5757 14.7241 18.7512C14.6683 18.927 14.6404 19.1055 14.6404 19.2873Z" fill="white"/>
<path d="M17.9112 18.4815C17.8081 18.2134 17.6637 17.9734 17.4781 17.7628C17.2919 17.5521 17.0675 17.3815 16.8056 17.2515C16.5613 17.1303 16.2925 17.0659 16 17.0571V17.8209C16.1675 17.8296 16.3206 17.8696 16.4587 17.9396C16.6175 18.0203 16.7519 18.1284 16.8612 18.2646C16.9706 18.4009 17.0556 18.5584 17.1156 18.7359C17.175 18.9134 17.205 19.0971 17.205 19.2871C17.205 19.469 17.1775 19.6478 17.1213 19.8234C17.0656 19.9984 16.9831 20.1565 16.8738 20.2971C16.7644 20.4378 16.63 20.5503 16.4706 20.6346C16.3319 20.709 16.175 20.7503 16 20.7596V21.5159C16.2781 21.5065 16.5369 21.4459 16.7775 21.3353C17.0419 21.2134 17.2694 21.0503 17.4594 20.8453C17.6494 20.6409 17.7981 20.4053 17.9056 20.139C18.0125 19.8728 18.0662 19.5928 18.0662 19.2996C18.0662 19.0228 18.015 18.7503 17.9112 18.4815Z" fill="#FFF5CB"/>
<path d="M18.7666 19.2559C18.7666 18.9874 18.8151 18.7221 18.9122 18.4597C19.0092 18.1975 19.1507 17.9631 19.3367 17.7564C19.5225 17.5499 19.7497 17.3827 20.0182 17.2546C20.2867 17.1266 20.5923 17.0625 20.9353 17.0625C21.3401 17.0625 21.6902 17.1514 21.9855 17.3289C22.2809 17.5066 22.5008 17.7379 22.6455 18.0229L21.9887 18.4753C21.9308 18.3513 21.8606 18.2471 21.778 18.1623C21.6954 18.0777 21.6065 18.0105 21.5115 17.9609C21.4165 17.9113 21.3173 17.8752 21.2141 17.8525C21.1108 17.8299 21.0097 17.8184 20.9105 17.8184C20.6957 17.8184 20.5087 17.8617 20.3497 17.9485C20.1907 18.0353 20.0585 18.1479 19.9532 18.2862C19.8478 18.4247 19.7682 18.5816 19.7147 18.7571C19.6609 18.9327 19.6341 19.1072 19.6341 19.2807C19.6341 19.4749 19.665 19.6618 19.727 19.8415C19.789 20.0212 19.8767 20.1791 19.9904 20.3155C20.1039 20.4518 20.2402 20.5613 20.3993 20.6439C20.5583 20.7266 20.7329 20.7678 20.9229 20.7678C21.022 20.7678 21.1252 20.7554 21.2327 20.7306C21.3401 20.7058 21.4424 20.6666 21.5394 20.6129C21.6364 20.5592 21.7263 20.49 21.809 20.4053C21.8915 20.3207 21.9577 20.2184 22.0073 20.0986L22.7075 20.5013C22.6372 20.6666 22.537 20.8122 22.407 20.9382C22.2768 21.0642 22.1302 21.1706 21.967 21.2572C21.8038 21.344 21.6294 21.4101 21.4435 21.4555C21.2575 21.5009 21.0757 21.5237 20.8982 21.5237C20.5842 21.5237 20.2971 21.4576 20.0369 21.3254C19.7767 21.1932 19.5525 21.0208 19.3646 20.8081C19.1765 20.5954 19.03 20.3536 18.9247 20.0831C18.8193 19.8126 18.7666 19.5369 18.7666 19.2559Z" fill="#FFF5CB"/>
</g>
<defs>
<clipPath id="clip0_1658_50506">
<rect width="32" height="32" fill="white"/>
</clipPath>
</defs>
</svg>
