<svg width="71" height="71" viewBox="0 0 71 71" fill="none" xmlns="http://www.w3.org/2000/svg">
<path d="M49.2562 7.09841H47.925V3.54841C47.925 2.91409 47.5866 2.32812 47.0375 2.01116C46.4884 1.6942 45.8116 1.6942 45.2625 2.01116C44.7134 2.32812 44.375 2.91411 44.375 3.54841V7.09841H26.625V3.54841C26.625 2.91409 26.2866 2.32812 25.7375 2.01116C25.1884 1.6942 24.5116 1.6942 23.9625 2.01116C23.4134 2.32812 23.075 2.91411 23.075 3.54841V7.09841H21.7437C21.2731 7.09841 20.8214 7.28543 20.4886 7.61823C20.1558 7.95104 19.9688 8.40272 19.9688 8.87341V25.6771C19.9723 28.7516 21.1954 31.6986 23.3693 33.8726C25.5433 36.0466 28.4903 37.2697 31.5649 37.2732H33.725V53.2482C33.725 53.8825 34.0634 54.4685 34.6125 54.7855C35.1616 55.1024 35.8384 55.1024 36.3875 54.7855C36.9366 54.4685 37.275 53.8825 37.275 53.2482V37.2732H39.4351C42.5096 37.2696 45.4566 36.0465 47.6307 33.8726C49.8047 31.6987 51.0277 28.7517 51.0312 25.6771V8.87341C51.0312 8.40272 50.8442 7.95104 50.5114 7.61823C50.1786 7.28543 49.7269 7.09841 49.2562 7.09841ZM47.4812 10.6484V14.1984H23.5187V10.6484H47.4812ZM39.4351 33.7234H31.5649C29.4317 33.721 27.3865 32.8728 25.8782 31.364C24.3694 29.8556 23.5212 27.8104 23.5187 25.6773V17.7484H47.4812V25.6773C47.4789 27.8104 46.6306 29.8556 45.1218 31.364C43.6135 32.8727 41.5683 33.721 39.4351 33.7234ZM35.5 21.2984C34.0875 21.2984 32.7333 21.8594 31.7345 22.8579C30.736 23.8567 30.175 25.2109 30.175 26.6234C30.175 28.0359 30.736 29.3901 31.7345 30.389C32.7333 31.3874 34.0875 31.9484 35.5 31.9484C36.9125 31.9484 38.2667 31.3874 39.2655 30.389C40.264 29.3901 40.825 28.0359 40.825 26.6234C40.825 25.2109 40.264 23.8567 39.2655 22.8579C38.2667 21.8594 36.9125 21.2984 35.5 21.2984ZM35.5 28.3984C35.0293 28.3984 34.5776 28.2114 34.2448 27.8786C33.912 27.5458 33.725 27.0941 33.725 26.6234C33.725 26.1527 33.912 25.701 34.2448 25.3682C34.5776 25.0354 35.0293 24.8484 35.5 24.8484C35.9707 24.8484 36.4224 25.0354 36.7552 25.3682C37.088 25.701 37.275 26.1527 37.275 26.6234C37.275 27.0941 37.088 27.5458 36.7552 27.8786C36.4224 28.2114 35.9707 28.3984 35.5 28.3984Z" fill="#EE7402"/>
</svg>
