<svg width="70" height="70" viewBox="0 0 70 70" fill="none" xmlns="http://www.w3.org/2000/svg">
<path d="M54.9336 21.9428C54.7859 21.6576 54.5625 21.4185 54.2875 21.2517C54.0129 21.0849 53.6977 20.997 53.3762 20.9978H39.3762V3.49782C39.3801 2.99626 39.1687 2.51735 38.7957 2.18262C38.4226 1.84746 37.9238 1.68848 37.4258 1.7459C36.9277 1.80332 36.4781 2.07168 36.191 2.48301L15.191 32.233C15.0183 32.4881 14.9164 32.7842 14.8949 33.0912C14.8734 33.3986 14.9332 33.7061 15.0687 33.983C15.2066 34.2815 15.4261 34.5346 15.7015 34.7143C15.9769 34.894 16.2972 34.992 16.6261 34.9979H30.6262V52.4979C30.6277 52.8689 30.7472 53.2303 30.9672 53.5291C31.1875 53.8279 31.4969 54.049 31.8512 54.1603C32.0207 54.2162 32.1976 54.2455 32.3762 54.2478C32.9457 54.2509 33.4809 53.9767 33.8113 53.5127L54.8114 23.7626C54.9969 23.5001 55.1067 23.1912 55.1282 22.8701C55.15 22.549 55.0824 22.2283 54.9336 21.9427L54.9336 21.9428ZM34.1266 46.9858V33.2478C34.1266 32.7837 33.9422 32.3384 33.6141 32.0103C33.286 31.6821 32.8406 31.4978 32.3766 31.4978H20.0036L35.8766 9.00975V22.7478C35.8766 23.2118 36.061 23.6571 36.3891 23.9853C36.7172 24.3134 37.1625 24.4978 37.6266 24.4978H49.9996L34.1266 46.9858Z" fill="#EE7402"/>
</svg>
