<svg width="1080" height="1080" viewBox="0 0 1080 1080" fill="none" xmlns="http://www.w3.org/2000/svg">
<rect width="1080" height="1080" fill="url(#paint0_linear_4281_101544)"/>
<path d="M255.456 396H273.181L179.723 684.43H161.999L255.456 396ZM324.744 396H350.526L257.068 684.43H231.286L324.744 396ZM394.032 396H429.481L336.024 684.43H300.574L394.032 396ZM463.32 396H506.826L413.368 684.43H369.862L463.32 396ZM532.607 396H593.838L500.38 684.43H439.15L532.607 396ZM846.819 396C859.71 396 872.601 397.611 882.269 402.445C891.937 407.279 899.993 413.725 904.827 421.781C909.662 429.838 912.884 437.895 914.496 449.174C916.107 458.842 914.495 470.122 911.273 481.401C904.827 499.126 896.771 513.628 887.103 524.907C875.823 537.798 861.321 547.466 843.596 553.912C851.653 560.357 856.487 570.025 859.71 579.693C861.321 589.361 862.932 600.64 862.932 611.92C861.321 623.199 859.71 636.09 856.487 647.369C853.265 658.649 850.042 671.54 846.819 682.819H754.973C761.418 663.483 764.641 647.369 766.252 634.479C767.863 621.588 767.863 610.309 764.641 602.252C763.029 594.195 758.195 586.138 751.75 581.304C745.305 576.47 738.859 571.636 729.191 566.802H705.021L722.746 512.017H759.807C763.029 512.017 767.863 512.017 772.697 512.017C777.531 512.017 782.366 510.405 788.811 508.794C793.645 507.183 798.479 503.96 803.313 500.737C808.147 495.903 811.37 491.069 812.981 484.624C814.592 478.178 814.592 471.733 808.147 466.899C803.313 462.065 793.645 458.842 780.754 458.842H711.466L637.345 686.042H540.664L634.122 397.611H846.819V396Z" fill="white"/>
<defs>
<linearGradient id="paint0_linear_4281_101544" x1="99" y1="126" x2="889.391" y2="335.313" gradientUnits="userSpaceOnUse">
<stop stop-color="#FD8839"/>
<stop offset="1" stop-color="#FF642B"/>
</linearGradient>
</defs>
</svg>
