<svg width="96" height="56" viewBox="0 0 96 56" fill="none" xmlns="http://www.w3.org/2000/svg">
<g clip-path="url(#clip0_1448_129251)">
<path fill-rule="evenodd" clip-rule="evenodd" d="M47.6813 14.3164C50.2255 14.3454 52.5239 14.9707 54.5765 16.1923C56.6047 17.3894 58.2918 19.0868 59.4766 21.1223C60.6907 23.1873 61.3122 25.4996 61.3411 28.0593C61.269 31.5615 60.1644 34.5528 58.0272 37.033C55.8901 39.5133 53.1529 41.0478 50.3193 41.636V31.8168H52.9982L53.604 27.9581H49.5476V25.4308C49.5251 24.9068 49.6908 24.3921 50.0147 23.9797C50.3391 23.5662 50.9104 23.3488 51.7285 23.3277H54.178V19.9475C54.1429 19.9362 53.8094 19.8915 53.1775 19.8134C52.4609 19.7295 51.7403 19.6847 51.0189 19.6792C49.386 19.6867 48.0946 20.1474 47.1447 21.061C46.1947 21.9745 45.7095 23.296 45.6889 25.0256V27.9581H42.6019V31.8168H45.6889V41.636C42.2097 41.0478 39.4725 39.5133 37.3354 37.033C35.1982 34.5528 34.0936 31.5615 34.0215 28.0593C34.0503 25.4995 34.6718 23.1872 35.886 21.1223C37.0708 19.0868 38.7579 17.3894 40.7861 16.1923C42.8387 14.971 45.1371 14.3457 47.6813 14.3164Z" fill="#157DDC"/>
</g>
<rect x="0.391653" y="1.24712" width="94.667" height="53.5074" rx="26.7537" stroke="#101626" stroke-opacity="0.12" stroke-width="0.587994"/>
<defs>
<clipPath id="clip0_1448_129251">
<rect width="28.2237" height="28.2237" fill="white" transform="translate(33.6133 13.8906)"/>
</clipPath>
</defs>
</svg>
