<svg width="36" height="37" viewBox="0 0 36 37" fill="none" xmlns="http://www.w3.org/2000/svg">
<circle opacity="0.1" cx="18" cy="18.5" r="18" fill="#FF642B"/>
<path d="M24.8418 15.5159L18.4252 19.2326C18.1668 19.3826 17.8418 19.3826 17.5752 19.2326L11.1585 15.5159C10.7002 15.2492 10.5835 14.6242 10.9335 14.2326C11.1752 13.9576 11.4502 13.7326 11.7418 13.5742L16.2585 11.0742C17.2252 10.5326 18.7918 10.5326 19.7585 11.0742L24.2752 13.5742C24.5668 13.7326 24.8418 13.9659 25.0835 14.2326C25.4168 14.6242 25.3002 15.2492 24.8418 15.5159Z" fill="#FF642B"/>
<path d="M17.5251 20.7831V26.4664C17.5251 27.0997 16.8834 27.5164 16.3167 27.2414C14.6001 26.3997 11.7084 24.8247 11.7084 24.8247C10.6917 24.2497 9.8584 22.7997 9.8584 21.6081V17.3081C9.8584 16.6497 10.5501 16.2331 11.1167 16.5581L17.1084 20.0331C17.3584 20.1914 17.5251 20.4747 17.5251 20.7831Z" fill="#FF642B"/>
<path d="M18.4751 20.7831V26.4664C18.4751 27.0997 19.1168 27.5164 19.6834 27.2414C21.4001 26.3997 24.2918 24.8247 24.2918 24.8247C25.3084 24.2497 26.1418 22.7997 26.1418 21.6081V17.3081C26.1418 16.6497 25.4501 16.2331 24.8834 16.5581L18.8918 20.0331C18.6418 20.1914 18.4751 20.4747 18.4751 20.7831Z" fill="#FF642B"/>
</svg>
