<svg width="40" height="41" viewBox="0 0 40 41" fill="none" xmlns="http://www.w3.org/2000/svg">
<rect x="0.5" y="0.814453" width="39" height="39" rx="19.5" fill="white"/>
<path d="M25.794 14.804C25.471 14.7257 25.1285 14.6865 24.7761 14.6865C22.2117 14.6865 20.127 16.7713 20.127 19.3357C20.127 20.2068 20.3716 21.0289 20.8023 21.7337C21.1644 22.3405 21.6636 22.8592 22.2705 23.2312C22.9947 23.7108 23.8561 23.9848 24.7761 23.9848C26.4792 23.9848 27.9571 23.0746 28.7597 21.7337C29.1903 21.0289 29.4252 20.2068 29.4252 19.3357C29.4252 17.1237 27.8788 15.264 25.794 14.804ZM26.6847 18.9148L24.3063 21.2932C24.2182 21.3813 24.0322 21.4694 23.905 21.489L22.9947 21.6162C22.662 21.6651 22.4368 21.4302 22.4858 21.1072L22.613 20.197C22.6326 20.0697 22.7207 19.8936 22.8088 19.7957L24.8446 17.7599L25.1872 17.4173C25.5983 17.0062 26.0779 16.8105 26.6749 17.4173C27.272 18.0241 27.0958 18.5037 26.6847 18.9148Z" fill="#5B6D8E"/>
<path d="M28.3982 12.504V13.4436C28.3982 13.8449 27.9382 14.0896 27.576 13.9036C27.1258 13.6687 26.6462 13.4925 26.1372 13.3751C25.7066 13.2674 25.2466 13.2185 24.7768 13.2185C21.4 13.2185 18.6595 15.959 18.6595 19.3358C18.6595 20.4516 18.9629 21.5478 19.5403 22.4874C20.0297 23.3096 20.7149 23.9947 21.4587 24.4547C21.6251 24.5624 21.8013 24.6603 21.9677 24.7581C22.1341 24.8462 22.2515 25.0224 22.2515 25.2084V27.2344C22.2515 27.8315 21.86 28.6243 21.3706 28.9179L20.0004 29.8086C18.728 30.6014 16.976 29.7107 16.976 28.1251V22.8887C16.976 22.1938 16.5845 21.3031 16.193 20.8137L12.4834 16.8595C11.994 16.3603 11.6025 15.4696 11.6025 14.8824V12.6018C11.6025 11.4175 12.4834 10.5269 13.5503 10.5269H26.4505C27.5173 10.5269 28.3982 11.4175 28.3982 12.504Z" fill="#5B6D8E"/>
<rect x="0.5" y="0.814453" width="39" height="39" rx="19.5" stroke="#EDF5F9"/>
</svg>
