<svg width="40" height="40" viewBox="0 0 40 40" fill="none" xmlns="http://www.w3.org/2000/svg">
<rect x="0.5" y="0.5" width="39" height="39" rx="19.5" fill="white"/>
<path d="M28 14.75C29.5188 14.75 30.75 13.5188 30.75 12C30.75 10.4812 29.5188 9.25 28 9.25C26.4812 9.25 25.25 10.4812 25.25 12C25.25 13.5188 26.4812 14.75 28 14.75Z" fill="#002280"/>
<path d="M28 16C25.79 16 24 14.21 24 12C24 11.27 24.21 10.59 24.56 10H15C12.24 10 10 12.23 10 14.98V20.96V21.96C10 24.71 12.24 26.94 15 26.94H16.5C16.77 26.94 17.13 27.12 17.3 27.34L18.8 29.33C19.46 30.21 20.54 30.21 21.2 29.33L22.7 27.34C22.89 27.09 23.19 26.94 23.5 26.94H25C27.76 26.94 30 24.71 30 21.96V15.44C29.41 15.79 28.73 16 28 16Z" fill="#002280"/>
<path d="M20 20C19.44 20 19 19.55 19 19C19 18.45 19.45 18 20 18C20.55 18 21 18.45 21 19C21 19.55 20.56 20 20 20Z" fill="white"/>
<path d="M24 20C23.44 20 23 19.55 23 19C23 18.45 23.45 18 24 18C24.55 18 25 18.45 25 19C25 19.55 24.56 20 24 20Z" fill="white"/>
<path d="M16 20C15.44 20 15 19.55 15 19C15 18.45 15.45 18 16 18C16.55 18 17 18.45 17 19C17 19.55 16.56 20 16 20Z" fill="white"/>
<rect x="0.5" y="0.5" width="39" height="39" rx="19.5" stroke="#EDF5F9"/>
</svg>
