<svg width="40" height="41" viewBox="0 0 40 41" fill="none" xmlns="http://www.w3.org/2000/svg">
<rect x="0.5" y="0.814453" width="39" height="39" rx="19.5" fill="white"/>
<path d="M27.8303 15.1759C29.3168 15.1759 30.5219 13.9709 30.5219 12.4843C30.5219 10.9978 29.3168 9.79272 27.8303 9.79272C26.3437 9.79272 25.1387 10.9978 25.1387 12.4843C25.1387 13.9709 26.3437 15.1759 27.8303 15.1759Z" fill="#5B6D8E"/>
<path d="M27.8307 16.3995C25.6676 16.3995 23.9156 14.6475 23.9156 12.4844C23.9156 11.7699 24.1212 11.1043 24.4638 10.5269H15.1067C12.4053 10.5269 10.2129 12.7095 10.2129 15.4011V21.2542V22.2329C10.2129 24.9245 12.4053 27.1072 15.1067 27.1072H16.5749C16.8392 27.1072 17.1915 27.2834 17.3579 27.4987L18.8261 29.4464C19.472 30.3078 20.5291 30.3078 21.1751 29.4464L22.6432 27.4987C22.8292 27.254 23.1228 27.1072 23.4263 27.1072H24.8944C27.5958 27.1072 29.7883 24.9245 29.7883 22.2329V15.8514C29.2108 16.1939 28.5452 16.3995 27.8307 16.3995Z" fill="#5B6D8E"/>
<path d="M20.0003 20.3145C19.4521 20.3145 19.0215 19.874 19.0215 19.3357C19.0215 18.7974 19.4619 18.3569 20.0003 18.3569C20.5386 18.3569 20.979 18.7974 20.979 19.3357C20.979 19.874 20.5484 20.3145 20.0003 20.3145Z" fill="white"/>
<path d="M23.9153 20.3145C23.3672 20.3145 22.9365 19.874 22.9365 19.3357C22.9365 18.7974 23.377 18.3569 23.9153 18.3569C24.4536 18.3569 24.8941 18.7974 24.8941 19.3357C24.8941 19.874 24.4634 20.3145 23.9153 20.3145Z" fill="white"/>
<path d="M16.0852 20.3145C15.5371 20.3145 15.1064 19.874 15.1064 19.3357C15.1064 18.7974 15.5469 18.3569 16.0852 18.3569C16.6235 18.3569 17.064 18.7974 17.064 19.3357C17.064 19.874 16.6333 20.3145 16.0852 20.3145Z" fill="white"/>
<rect x="0.5" y="0.814453" width="39" height="39" rx="19.5" stroke="#EDF5F9"/>
</svg>
