<svg width="40" height="40" viewBox="0 0 40 40" fill="none" xmlns="http://www.w3.org/2000/svg">
<rect x="0.5" y="0.5" width="39" height="39" rx="19.5" fill="white"/>
<path d="M15 12H13C12.4477 12 12 12.4477 12 13V15C12 15.5523 12.4477 16 13 16H15C15.5523 16 16 15.5523 16 15V13C16 12.4477 15.5523 12 15 12Z" fill="#002280"/>
<path fill-rule="evenodd" clip-rule="evenodd" d="M13 18H15C15.5523 18 16 18.4477 16 19V21C16 21.5523 15.5523 22 15 22H13C12.4477 22 12 21.5523 12 21V19C12 18.4477 12.4477 18 13 18ZM19 12H21C21.5523 12 22 12.4477 22 13V15C22 15.5523 21.5523 16 21 16H19C18.4477 16 18 15.5523 18 15V13C18 12.4477 18.4477 12 19 12ZM19 18H21C21.5523 18 22 18.4477 22 19V21C22 21.5523 21.5523 22 21 22H19C18.4477 22 18 21.5523 18 21V19C18 18.4477 18.4477 18 19 18ZM25 12H27C27.5523 12 28 12.4477 28 13V15C28 15.5523 27.5523 16 27 16H25C24.4477 16 24 15.5523 24 15V13C24 12.4477 24.4477 12 25 12ZM25 18H27C27.5523 18 28 18.4477 28 19V21C28 21.5523 27.5523 22 27 22H25C24.4477 22 24 21.5523 24 21V19C24 18.4477 24.4477 18 25 18ZM13 24H15C15.5523 24 16 24.4477 16 25V27C16 27.5523 15.5523 28 15 28H13C12.4477 28 12 27.5523 12 27V25C12 24.4477 12.4477 24 13 24ZM19 24H21C21.5523 24 22 24.4477 22 25V27C22 27.5523 21.5523 28 21 28H19C18.4477 28 18 27.5523 18 27V25C18 24.4477 18.4477 24 19 24ZM25 24H27C27.5523 24 28 24.4477 28 25V27C28 27.5523 27.5523 28 27 28H25C24.4477 28 24 27.5523 24 27V25C24 24.4477 24.4477 24 25 24Z" fill="#002280"/>
<rect x="0.5" y="0.5" width="39" height="39" rx="19.5" stroke="#EDF5F9"/>
</svg>
