<svg width="47" height="47" viewBox="0 0 47 47" fill="none" xmlns="http://www.w3.org/2000/svg">
<rect x="0.886364" y="0.886364" width="45.2273" height="45.2273" rx="22.6136" fill="white"/>
<path d="M29.4209 17.87C29.0909 17.79 28.7409 17.75 28.3809 17.75C25.7609 17.75 23.6309 19.88 23.6309 22.5C23.6309 23.39 23.8809 24.23 24.3209 24.95C24.6909 25.57 25.2009 26.1 25.8209 26.48C26.5609 26.97 27.4409 27.25 28.3809 27.25C30.1209 27.25 31.6309 26.32 32.4509 24.95C32.8909 24.23 33.1309 23.39 33.1309 22.5C33.1309 20.24 31.5509 18.34 29.4209 17.87ZM30.3309 22.07L27.9009 24.5C27.8109 24.59 27.6209 24.68 27.4909 24.7L26.5609 24.83C26.2209 24.88 25.9909 24.64 26.0409 24.31L26.1709 23.38C26.1909 23.25 26.2809 23.07 26.3709 22.97L28.4509 20.89L28.8009 20.54C29.2209 20.12 29.7109 19.92 30.3209 20.54C30.9309 21.16 30.7509 21.65 30.3309 22.07Z" fill="#104798"/>
<path d="M32.0799 15.5122V16.4722C32.0799 16.8822 31.6099 17.1322 31.2399 16.9422C30.7799 16.7022 30.2899 16.5222 29.7699 16.4022C29.3299 16.2922 28.8599 16.2422 28.3799 16.2422C24.9299 16.2422 22.1299 19.0422 22.1299 22.4922C22.1299 23.6322 22.4399 24.7522 23.0299 25.7122C23.5299 26.5522 24.2299 27.2522 24.9899 27.7222C25.1599 27.8322 25.3399 27.9322 25.5099 28.0322C25.6799 28.1222 25.7999 28.3022 25.7999 28.4922V30.5622C25.7999 31.1722 25.3999 31.9822 24.8999 32.2822L23.4999 33.1922C22.1999 34.0022 20.4099 33.0922 20.4099 31.4722V26.1222C20.4099 25.4122 20.0099 24.5022 19.6099 24.0022L15.8199 19.9622C15.3199 19.4522 14.9199 18.5422 14.9199 17.9422V15.6122C14.9199 14.4022 15.8199 13.4922 16.9099 13.4922H30.0899C31.1799 13.4922 32.0799 14.4022 32.0799 15.5122Z" fill="#104798"/>
<rect x="0.886364" y="0.886364" width="45.2273" height="45.2273" rx="22.6136" stroke="#EDF5F9" stroke-width="0.772727"/>
</svg>
