<svg width="46" height="46" viewBox="0 0 46 46" fill="none" xmlns="http://www.w3.org/2000/svg">
<rect x="0.386364" y="0.386364" width="45.2273" height="45.2273" rx="22.6136" fill="white"/>
<path d="M28.9199 17.37C28.5899 17.29 28.2399 17.25 27.8799 17.25C25.2599 17.25 23.1299 19.38 23.1299 22C23.1299 22.89 23.3799 23.73 23.8199 24.45C24.1899 25.07 24.6999 25.6 25.3199 25.98C26.0599 26.47 26.9399 26.75 27.8799 26.75C29.6199 26.75 31.1299 25.82 31.9499 24.45C32.3899 23.73 32.6299 22.89 32.6299 22C32.6299 19.74 31.0499 17.84 28.9199 17.37ZM29.8299 21.57L27.3999 24C27.3099 24.09 27.1199 24.18 26.9899 24.2L26.0599 24.33C25.7199 24.38 25.4899 24.14 25.5399 23.81L25.6699 22.88C25.6899 22.75 25.7799 22.57 25.8699 22.47L27.9499 20.39L28.2999 20.04C28.7199 19.62 29.2099 19.42 29.8199 20.04C30.4299 20.66 30.2499 21.15 29.8299 21.57Z" fill="#104798"/>
<path d="M31.5799 15.02V15.98C31.5799 16.39 31.1099 16.64 30.7399 16.45C30.2799 16.21 29.7899 16.03 29.2699 15.91C28.8299 15.8 28.3599 15.75 27.8799 15.75C24.4299 15.75 21.6299 18.55 21.6299 22C21.6299 23.14 21.9399 24.26 22.5299 25.22C23.0299 26.06 23.7299 26.76 24.4899 27.23C24.6599 27.34 24.8399 27.44 25.0099 27.54C25.1799 27.63 25.2999 27.81 25.2999 28V30.07C25.2999 30.68 24.8999 31.49 24.3999 31.79L22.9999 32.7C21.6999 33.51 19.9099 32.6 19.9099 30.98V25.63C19.9099 24.92 19.5099 24.01 19.1099 23.51L15.3199 19.47C14.8199 18.96 14.4199 18.05 14.4199 17.45V15.12C14.4199 13.91 15.3199 13 16.4099 13H29.5899C30.6799 13 31.5799 13.91 31.5799 15.02Z" fill="#104798"/>
<rect x="0.386364" y="0.386364" width="45.2273" height="45.2273" rx="22.6136" stroke="#EDF5F9" stroke-width="0.772727"/>
</svg>
