<svg width="24" height="25" viewBox="0 0 24 25" fill="none" xmlns="http://www.w3.org/2000/svg">
<path opacity="0.4" d="M22 20.5544V12.6644C22 7.06437 17.5 2.48438 12 2.48438C6.5 2.48438 2 7.06437 2 12.6644V20.5544C2 21.8144 2.74998 22.1544 3.66998 21.3144L4.66998 20.4044C5.03998 20.0644 5.64001 20.0644 6.01001 20.4044L8.01001 22.2344C8.38001 22.5744 8.97998 22.5744 9.34998 22.2344L11.35 20.4044C11.72 20.0644 12.32 20.0644 12.69 20.4044L14.69 22.2344C15.06 22.5744 15.66 22.5744 16.03 22.2344L18.03 20.4044C18.4 20.0644 19 20.0644 19.37 20.4044L20.37 21.3144C21.25 22.1544 22 21.8144 22 20.5544Z" fill="white"/>
<path d="M12.0003 16.5547C10.4303 16.5547 8.86025 16.0647 7.55025 15.0847C7.22025 14.8347 7.15029 14.3647 7.40029 14.0347C7.65029 13.7047 8.12027 13.6346 8.45027 13.8846C10.5403 15.4546 13.4602 15.4546 15.5502 13.8846C15.8802 13.6346 16.3502 13.7047 16.6002 14.0347C16.8502 14.3647 16.7803 14.8347 16.4503 15.0847C15.1403 16.0647 13.5703 16.5547 12.0003 16.5547Z" fill="white"/>
<path d="M12.0001 11.8635C13.3146 11.8635 14.3801 10.798 14.3801 9.48352C14.3801 8.16908 13.3146 7.10352 12.0001 7.10352C10.6857 7.10352 9.62012 8.16908 9.62012 9.48352C9.62012 10.798 10.6857 11.8635 12.0001 11.8635Z" fill="white"/>
</svg>
