<svg width="97" height="56" viewBox="0 0 97 56" fill="none" xmlns="http://www.w3.org/2000/svg">
<g clip-path="url(#clip0_1448_129254)">
<path d="M40.6436 30.9457L39.6612 34.6132L36.0705 34.6892C34.9974 32.6988 34.3887 30.4216 34.3887 28.0016C34.3887 25.6615 34.9578 23.4548 35.9666 21.5117H35.9673L39.1641 22.0978L40.5645 25.2754C40.2714 26.1299 40.1116 27.0471 40.1116 28.0016C40.1117 29.0375 40.2994 30.03 40.6436 30.9457Z" fill="#FBBB00"/>
<path d="M62.3656 25.3672C62.5276 26.2208 62.6122 27.1024 62.6122 28.0035C62.6122 29.0138 62.5059 29.9993 62.3036 30.9499C61.6166 34.1848 59.8216 37.0095 57.335 39.0084L57.3342 39.0076L53.3077 38.8022L52.7378 35.2447C54.3878 34.2771 55.6773 32.7627 56.3565 30.9499H48.8105V25.3672H56.4666H62.3656Z" fill="#518EF8"/>
<path d="M57.3342 39.0053L57.335 39.0061C54.9166 40.95 51.8445 42.113 48.5004 42.113C43.1262 42.113 38.4538 39.1092 36.0703 34.6888L40.6435 30.9453C41.8352 34.1259 44.9034 36.39 48.5004 36.39C50.0464 36.39 51.4949 35.9721 52.7378 35.2424L57.3342 39.0053Z" fill="#28B446"/>
<path d="M57.5083 17.1394L52.9367 20.8822C51.6503 20.0781 50.1298 19.6136 48.5008 19.6136C44.8224 19.6136 41.6968 21.9816 40.5648 25.2762L35.9676 21.5126H35.9668C38.3154 16.9844 43.0468 13.8906 48.5008 13.8906C51.9248 13.8906 55.0643 15.1103 57.5083 17.1394Z" fill="#F14336"/>
</g>
<rect x="1.16704" y="1.24712" width="94.667" height="53.5074" rx="26.7537" stroke="#101626" stroke-opacity="0.12" stroke-width="0.587994"/>
<defs>
<clipPath id="clip0_1448_129254">
<rect width="28.2237" height="28.2237" fill="white" transform="translate(34.3887 13.8906)"/>
</clipPath>
</defs>
</svg>
