<svg width="18" height="19" viewBox="0 0 18 19" fill="none" xmlns="http://www.w3.org/2000/svg">
<path d="M1.64258 5.70117L9.0009 9.95949L16.3092 5.72615" stroke="#0D0849" stroke-width="1.25" stroke-linecap="round" stroke-linejoin="round"/>
<path d="M9 17.5095L9 9.95117" stroke="#0D0849" stroke-width="1.25" stroke-linecap="round" stroke-linejoin="round"/>
<path d="M17.0088 7.14297V11.8597C17.0088 11.9013 17.0088 11.9346 17.0005 11.9763C16.4172 11.468 15.6672 11.168 14.8338 11.168C14.0505 11.168 13.3255 11.443 12.7505 11.9013C11.9838 12.5097 11.5005 13.4513 11.5005 14.5013C11.5005 15.1263 11.6755 15.718 11.9838 16.218C12.0588 16.3513 12.1505 16.4763 12.2505 16.593L10.7255 17.4347C9.77551 17.968 8.2255 17.968 7.2755 17.4347L2.82551 14.968C1.81717 14.4096 0.992187 13.0097 0.992187 11.8597L0.992187 7.14297C0.992187 5.99297 1.81717 4.59299 2.82551 4.03465L7.2755 1.56797C8.2255 1.03464 9.77551 1.03464 10.7255 1.56797L15.1755 4.03465C16.1838 4.59299 17.0088 5.99297 17.0088 7.14297Z" stroke="#0D0849" stroke-width="1.25" stroke-linecap="round" stroke-linejoin="round"/>
</svg>
