<svg width="32" height="26" viewBox="0 0 32 26" fill="none" xmlns="http://www.w3.org/2000/svg">
<path d="M23.873 4.4458H2.03175C1.66162 4.4458 1.31456 4.54474 1.01569 4.71774L0.46875 6.47755V23.156C0.46875 24.2781 1.37837 25.1877 2.5005 25.1877H23.873L25.6327 24.7635C25.8057 24.4646 25.9047 24.1176 25.9047 23.7474V6.47755C25.9048 5.35543 24.9951 4.4458 23.873 4.4458Z" fill="#E5646E"/>
<path d="M16.6871 14.2241L10.6519 10.8712C10.5113 10.7931 10.3639 10.7523 10.2187 10.7437L9.7915 11.7592V17.8618C9.7915 18.6364 9.97482 19.126 10.6519 18.7498L16.6871 15.397L17.0526 14.5663C16.9664 14.4303 16.8445 14.3115 16.6871 14.2241Z" fill="white"/>
<path d="M26.1668 7.72924L21.3335 4.95355V2.9218L26.1696 0.283929C26.5081 0.099304 26.9208 0.344304 26.9208 0.729867V6.35043L26.1668 7.72924Z" fill="#FFE6E7"/>
<path d="M18.7934 2.92188H21.3331V4.95362L19.0728 5.51056L18.3228 3.80219L18.7934 2.92188Z" fill="#DB4655"/>
<path d="M29.0138 6.03099C28.8839 6.03099 28.7539 5.98137 28.6547 5.88193C28.4562 5.68349 28.4562 5.36212 28.6547 5.16368C28.8466 4.97199 28.9523 4.71699 28.9523 4.44568C28.9523 4.17437 28.8467 3.91937 28.6547 3.72768C28.4562 3.52924 28.4562 3.20787 28.6547 3.00943C28.8531 2.81049 29.1745 2.81099 29.3729 3.00893C29.7569 3.39262 29.9682 3.9028 29.9682 4.44568C29.9682 4.98855 29.7569 5.49874 29.3729 5.88243C29.2738 5.98137 29.1438 6.03099 29.0138 6.03099Z" fill="#FFCCCF"/>
<path d="M30.4508 7.46748C30.3209 7.46748 30.1909 7.41786 30.0917 7.31867C29.8933 7.12023 29.8933 6.79886 30.0917 6.60042C30.6671 6.02504 30.9841 5.25967 30.9841 4.44542C30.9841 3.63117 30.6671 2.86579 30.0917 2.29042C29.8933 2.09198 29.8933 1.77061 30.0917 1.57217C30.2901 1.37373 30.6115 1.37373 30.81 1.57217C31.5773 2.33948 32 3.35986 32 4.44542C32 5.53098 31.5773 6.55129 30.81 7.31867C30.7108 7.41786 30.5808 7.46748 30.4508 7.46748Z" fill="#FFE6E7"/>
<path d="M4.57144 24.763C2.60775 24.763 1.01587 23.1711 1.01587 21.2075V4.71777C0.411125 5.06977 0 5.72721 0 6.47734V23.7471C0 24.8693 0.909625 25.7789 2.03175 25.7789H23.873C24.6231 25.7789 25.2804 25.3678 25.6323 24.763H4.57144Z" fill="#DB4655"/>
<path d="M12.335 17.1855C11.3855 17.7131 10.2185 17.0265 10.2185 15.9401V10.7444C9.66495 10.7118 9.14258 11.1461 9.14258 11.7596V18.4653C9.14258 19.24 9.9747 19.7295 10.6518 19.3534L16.6869 16.0005C17.2268 15.7006 17.3493 15.0329 17.0524 14.5668L12.335 17.1855Z" fill="#FFE6E7"/>
<path d="M21.3334 5.9695V4.95362H19.8096C19.2485 4.95362 18.7937 4.49881 18.7937 3.93775V2.92188C18.2326 2.92188 17.7778 3.37669 17.7778 3.93775V4.95362C17.7778 5.51469 18.2326 5.9695 18.7937 5.9695H19.3016L20.7168 10.6869C20.7813 10.9017 20.979 11.0489 21.2033 11.0489H22.3405C22.598 11.0489 22.7827 10.8006 22.7087 10.5539L21.3334 5.9695Z" fill="#BD4150"/>
<path d="M26.1696 8.60736C26.5081 8.79199 26.9208 8.54699 26.9208 8.16142V6.35043L21.3335 4.95361V5.96949L26.1696 8.60736Z" fill="#FFCCCF"/>
</svg>
