<svg width="32" height="32" viewBox="0 0 32 32" fill="none" xmlns="http://www.w3.org/2000/svg">
<path d="M16 32C24.8366 32 32 24.8366 32 16C32 7.16344 24.8366 0 16 0C7.16344 0 0 7.16344 0 16C0 24.8366 7.16344 32 16 32Z" fill="#FFCE00"/>
<path d="M31.9991 15.9998C31.9991 15.5135 31.9775 15.0322 31.935 14.5569L26.6063 9.22833L24.4498 11.2145L19.4116 6.17627L5.44971 22.8503L14.5329 31.9335C15.0158 31.9774 15.5048 31.9998 15.9991 31.9998C24.8357 31.9998 31.9991 24.8364 31.9991 15.9998Z" fill="#FFA300"/>
<path d="M24.8354 8.30352H20.2392L19.5922 6.52833C19.359 5.88858 18.7508 5.46289 18.0699 5.46289H13.9307C13.2498 5.46289 12.6415 5.88858 12.4084 6.52833L11.7614 8.30352H7.1652C5.97213 8.30352 5.00488 9.2707 5.00488 10.4638V21.5369C5.00488 22.73 5.97207 23.6972 7.1652 23.6972H24.8355C26.0286 23.6972 26.9958 22.73 26.9958 21.5369V10.4638C26.9956 9.2707 26.0284 8.30352 24.8354 8.30352Z" fill="#707789"/>
<path d="M24.835 8.30352H20.2389L19.5919 6.52833C19.3587 5.88858 18.7504 5.46289 18.0695 5.46289H15.9902V23.6971H24.8351C26.0282 23.6971 26.9954 22.73 26.9954 21.5368V10.4638C26.9953 9.2707 26.0281 8.30352 24.835 8.30352Z" fill="#555A66"/>
<path d="M15.9998 22.6885C19.5927 22.6885 22.5054 19.7758 22.5054 16.1829C22.5054 12.5899 19.5927 9.67725 15.9998 9.67725C12.4068 9.67725 9.49414 12.5899 9.49414 16.1829C9.49414 19.7758 12.4068 22.6885 15.9998 22.6885Z" fill="#9196AA"/>
<path d="M16 9.67725C15.9967 9.67725 15.9935 9.67737 15.9902 9.67737V22.6884C15.9935 22.6884 15.9967 22.6886 16 22.6886C19.5929 22.6886 22.5056 19.7759 22.5056 16.1829C22.5056 12.59 19.5929 9.67725 16 9.67725Z" fill="#707789"/>
<path d="M16.0001 20.3879C18.3226 20.3879 20.2053 18.5052 20.2053 16.1827C20.2053 13.8603 18.3226 11.9775 16.0001 11.9775C13.6776 11.9775 11.7949 13.8603 11.7949 16.1827C11.7949 18.5052 13.6776 20.3879 16.0001 20.3879Z" fill="#414952"/>
<path d="M16 11.9775C15.9967 11.9775 15.9935 11.9778 15.9902 11.9778V20.3877C15.9935 20.3877 15.9967 20.3879 16 20.3879C18.3224 20.3879 20.2052 18.5052 20.2052 16.1827C20.2052 13.8603 18.3224 11.9775 16 11.9775Z" fill="#23272B"/>
<path d="M18.6476 8.22523H13.3535L13.862 6.74561H18.1391L18.6476 8.22523Z" fill="#BEC3D2"/>
<path d="M18.1385 6.74561H15.9902V8.22523H18.647L18.1385 6.74561Z" fill="#9196AA"/>
<path d="M22.2012 10.2065H25.907V12.3242H22.2012V10.2065Z" fill="#9196AA"/>
<path d="M7.70411 22.1392C8.37883 22.1392 8.9258 21.5922 8.9258 20.9175C8.9258 20.2428 8.37883 19.6958 7.70411 19.6958C7.02939 19.6958 6.48242 20.2428 6.48242 20.9175C6.48242 21.5922 7.02939 22.1392 7.70411 22.1392Z" fill="#BEC3D2"/>
<path d="M13.7927 14.8768C14.2312 14.8768 14.5868 14.5213 14.5868 14.0827C14.5868 13.6441 14.2312 13.2886 13.7927 13.2886C13.3541 13.2886 12.9985 13.6441 12.9985 14.0827C12.9985 14.5213 13.3541 14.8768 13.7927 14.8768Z" fill="white"/>
<path d="M14.7947 17.1764C15.4043 17.1764 15.8985 16.6822 15.8985 16.0726C15.8985 15.4629 15.4043 14.9688 14.7947 14.9688C14.1851 14.9688 13.6909 15.4629 13.6909 16.0726C13.6909 16.6822 14.1851 17.1764 14.7947 17.1764Z" fill="white"/>
</svg>
