<svg width="62" height="54" viewBox="0 0 62 54" fill="none" xmlns="http://www.w3.org/2000/svg">
<path d="M56.5989 36.6007V31.7369C56.5989 25.3369 51.415 20.1529 45.0149 20.1529C38.6148 20.1529 33.4309 25.3367 33.4309 31.7369V41.7207C33.4309 46.0725 29.9108 49.5926 25.559 49.5926C21.2072 49.5926 17.6871 46.0725 17.6871 41.7207L17.6867 30.5846C23.6385 29.8168 28.3747 25.2726 29.3987 19.1926L30.9987 9.33686C31.2545 7.73686 30.8067 6.13686 29.7826 4.92074C28.7584 3.70463 27.2228 3.00063 25.5585 3.00063H23.8303V2.6167C23.8303 1.5926 22.9982 0.760927 21.9746 0.760927C20.9505 0.760927 20.1188 1.59306 20.1188 2.6167V7.03281C20.1188 8.05692 20.9509 8.88858 21.9746 8.88858C22.9987 8.88858 23.8303 8.05645 23.8303 7.03281V6.71272H25.5585C26.0705 6.71272 26.5826 6.96853 26.9665 7.3529C27.3504 7.73684 27.4785 8.31272 27.3504 8.82479L25.7504 18.6806C24.8544 23.4806 20.7584 27.0007 15.7665 27.0007C10.7746 27.0007 6.6785 23.4806 5.91073 18.6168L4.31073 8.69668C4.24689 8.18462 4.37456 7.67257 4.69466 7.22479C5.01475 6.84086 5.52679 6.58461 6.10266 6.58461H7.83077V6.9047C7.83077 7.9288 8.66291 8.76047 9.68654 8.76047C10.7106 8.76047 11.5423 7.92833 11.5423 6.9047V2.48858C11.5423 1.46448 10.7102 0.632812 9.68654 0.632812C8.66244 0.632812 7.83077 1.46495 7.83077 2.48858V2.87251H6.10266C4.50266 2.87251 2.96654 3.57654 1.94289 4.79263C0.918783 6.00874 0.471 7.67251 0.726771 9.20874L2.32677 19.0645C3.28659 25.1444 8.08654 29.6886 14.0388 30.4565V41.5284C14.0388 47.9284 19.2227 53.1124 25.6228 53.1124C32.0229 53.1124 37.2068 47.9285 37.2068 41.5284V31.6726C37.2068 27.3209 40.7269 23.7365 45.0787 23.7365C49.4304 23.7365 52.9505 27.2566 52.9505 31.6726V36.6007C50.1988 37.4329 48.1505 39.9289 48.1505 42.9369C48.1505 46.5851 51.0948 49.5926 54.7425 49.5926C58.3908 49.5926 61.3983 46.6484 61.3983 42.9369C61.3988 39.9289 59.3505 37.3685 56.5988 36.6007H56.5989ZM54.7431 45.8806C53.1431 45.8806 51.7989 44.5364 51.7989 42.9364C51.7989 41.3364 53.1431 39.9922 54.7431 39.9922C56.3431 39.9922 57.6874 41.3364 57.6874 42.9364C57.6869 44.5369 56.407 45.8806 54.7431 45.8806Z" fill="#EE7402"/>
<path d="M10.8376 14.0072C10.5175 14.0072 10.2617 14.263 10.2617 14.5831V17.0791C10.2617 17.3991 10.5175 17.655 10.8376 17.655H13.9095V20.7268C13.9095 21.0469 14.1653 21.3027 14.4854 21.3027H16.9814C17.3015 21.3027 17.5573 21.0469 17.5573 20.7268V17.655H20.6292C20.9493 17.655 21.2051 17.3991 21.2051 17.0791V14.5831C21.2051 14.263 20.9493 14.0072 20.6292 14.0072H17.5573V10.9353C17.5573 10.6152 17.3015 10.3594 16.9814 10.3594H14.4854C14.1653 10.3594 13.9095 10.6152 13.9095 10.9353V14.0072H10.8376Z" fill="#EE7402"/>
</svg>
