<svg width="22" height="22" viewBox="0 0 22 22" fill="none" xmlns="http://www.w3.org/2000/svg">
<path d="M19.7104 5.38816L13.4704 1.02233C11.7696 -0.169336 9.15875 -0.104336 7.52292 1.16316L2.09542 5.399C1.01208 6.244 0.15625 7.97733 0.15625 9.34233V16.8173C0.15625 19.5798 2.39875 21.8332 5.16125 21.8332H16.8396C19.6021 21.8332 21.8446 19.5907 21.8446 16.8282V9.48316C21.8446 8.02066 20.9021 6.22233 19.7104 5.38816Z" fill="white"/>
<path d="M16.2328 10.209C16.157 10.0248 16.0053 9.87316 15.8211 9.79733C15.7236 9.754 15.6261 9.74316 15.5286 9.74316H13.5136C13.0911 9.74316 12.7553 10.079 12.7553 10.5015C12.7553 10.924 13.0911 11.2598 13.5136 11.2598H13.7086L11.4228 13.5457L10.3178 11.899C10.1878 11.7148 9.99281 11.5848 9.76531 11.5632C9.52698 11.5415 9.32115 11.6173 9.15865 11.7798L5.93031 15.0082C5.63781 15.3007 5.63781 15.7773 5.93031 16.0807C6.08198 16.2323 6.26615 16.2973 6.46115 16.2973C6.65615 16.2973 6.85115 16.2215 6.99198 16.0807L9.57031 13.5023L10.6753 15.149C10.8053 15.3332 11.0003 15.4632 11.2278 15.4848C11.4661 15.5065 11.672 15.4307 11.8345 15.2682L14.7811 12.3215V12.5165C14.7811 12.939 15.117 13.2748 15.5395 13.2748C15.962 13.2748 16.2978 12.939 16.2978 12.5165V10.5015C16.287 10.3932 16.2761 10.2957 16.2328 10.209Z" fill="#002280"/>
</svg>
