<svg width="22" height="22" viewBox="0 0 22 22" fill="none" xmlns="http://www.w3.org/2000/svg">
<path d="M1.99561 6.4375L10.8256 11.5475L19.5956 6.46747" stroke="#002280" stroke-width="1.5" stroke-linecap="round" stroke-linejoin="round"/>
<path d="M10.8257 20.6091V11.5391" stroke="#002280" stroke-width="1.5" stroke-linecap="round" stroke-linejoin="round"/>
<path d="M20.4358 8.17V13.83C20.4358 13.88 20.4358 13.92 20.4258 13.97C19.7258 13.36 18.8258 13 17.8258 13C16.8858 13 16.0158 13.33 15.3258 13.88C14.4058 14.61 13.8258 15.74 13.8258 17C13.8258 17.75 14.0358 18.46 14.4058 19.06C14.4958 19.22 14.6058 19.37 14.7258 19.51L12.8958 20.52C11.7558 21.16 9.8958 21.16 8.7558 20.52L3.4158 17.56C2.2058 16.89 1.21582 15.21 1.21582 13.83V8.17C1.21582 6.79 2.2058 5.11002 3.4158 4.44002L8.7558 1.48C9.8958 0.84 11.7558 0.84 12.8958 1.48L18.2358 4.44002C19.4458 5.11002 20.4358 6.79 20.4358 8.17Z" stroke="#002280" stroke-width="1.5" stroke-linecap="round" stroke-linejoin="round"/>
</svg>
