<svg width="24" height="24" viewBox="0 0 24 24" fill="none" xmlns="http://www.w3.org/2000/svg">
<path d="M21.6789 16.9596L18.5489 9.64964C17.4889 7.16964 15.5389 7.06964 14.2289 9.42964L12.3389 12.8396C11.3789 14.5696 9.58895 14.7196 8.34895 13.1696L8.12895 12.8896C6.83895 11.2696 5.01895 11.4696 4.08895 13.3196L2.36895 16.7696C1.15895 19.1696 2.90895 21.9996 5.58895 21.9996H18.3489C20.9489 21.9996 22.6989 19.3496 21.6789 16.9596Z" stroke="#0A0045" stroke-width="1.25" stroke-linecap="round" stroke-linejoin="round"/>
<path d="M6.96875 8C8.6256 8 9.96875 6.65685 9.96875 5C9.96875 3.34315 8.6256 2 6.96875 2C5.3119 2 3.96875 3.34315 3.96875 5C3.96875 6.65685 5.3119 8 6.96875 8Z" stroke="#0A0045" stroke-width="1.25" stroke-linecap="round" stroke-linejoin="round"/>
</svg>
