<svg width="21" height="20" viewBox="0 0 21 20" fill="none" xmlns="http://www.w3.org/2000/svg">
<path d="M10.4993 1.66797C5.90768 1.66797 2.16602 5.40964 2.16602 10.0013C2.16602 14.593 5.90768 18.3346 10.4993 18.3346C15.091 18.3346 18.8327 14.593 18.8327 10.0013C18.8327 5.40964 15.091 1.66797 10.4993 1.66797ZM9.87435 6.66797C9.87435 6.3263 10.1577 6.04297 10.4993 6.04297C10.841 6.04297 11.1243 6.3263 11.1243 6.66797V10.8346C11.1243 11.1763 10.841 11.4596 10.4993 11.4596C10.1577 11.4596 9.87435 11.1763 9.87435 10.8346V6.66797ZM11.266 13.6513C11.2243 13.7596 11.166 13.843 11.091 13.9263C11.0077 14.0013 10.916 14.0596 10.816 14.1013C10.716 14.143 10.6077 14.168 10.4993 14.168C10.391 14.168 10.2827 14.143 10.1827 14.1013C10.0827 14.0596 9.99102 14.0013 9.90768 13.9263C9.83268 13.843 9.77435 13.7596 9.73268 13.6513C9.69102 13.5513 9.66602 13.443 9.66602 13.3346C9.66602 13.2263 9.69102 13.118 9.73268 13.018C9.77435 12.918 9.83268 12.8263 9.90768 12.743C9.99102 12.668 10.0827 12.6096 10.1827 12.568C10.3827 12.4846 10.616 12.4846 10.816 12.568C10.916 12.6096 11.0077 12.668 11.091 12.743C11.166 12.8263 11.2243 12.918 11.266 13.018C11.3077 13.118 11.3327 13.2263 11.3327 13.3346C11.3327 13.443 11.3077 13.5513 11.266 13.6513Z" fill="#FF4746"/>
</svg>
