<svg width="27" height="27" viewBox="0 0 27 27" fill="none" xmlns="http://www.w3.org/2000/svg">
<path d="M13.5001 2.66602C7.53091 2.66602 2.66675 7.53018 2.66675 13.4993C2.66675 19.4685 7.53091 24.3327 13.5001 24.3327C19.4692 24.3327 24.3334 19.4685 24.3334 13.4993C24.3334 7.53018 19.4692 2.66602 13.5001 2.66602ZM12.6876 9.16602C12.6876 8.72185 13.0559 8.35352 13.5001 8.35352C13.9442 8.35352 14.3126 8.72185 14.3126 9.16602V14.5827C14.3126 15.0268 13.9442 15.3952 13.5001 15.3952C13.0559 15.3952 12.6876 15.0268 12.6876 14.5827V9.16602ZM14.4967 18.2443C14.4426 18.3852 14.3667 18.4935 14.2692 18.6018C14.1609 18.6993 14.0417 18.7752 13.9117 18.8293C13.7817 18.8835 13.6409 18.916 13.5001 18.916C13.3592 18.916 13.2184 18.8835 13.0884 18.8293C12.9584 18.7752 12.8392 18.6993 12.7309 18.6018C12.6334 18.4935 12.5576 18.3852 12.5034 18.2443C12.4492 18.1143 12.4167 17.9735 12.4167 17.8327C12.4167 17.6918 12.4492 17.551 12.5034 17.421C12.5576 17.291 12.6334 17.1718 12.7309 17.0635C12.8392 16.966 12.9584 16.8902 13.0884 16.836C13.3484 16.7277 13.6517 16.7277 13.9117 16.836C14.0417 16.8902 14.1609 16.966 14.2692 17.0635C14.3667 17.1718 14.4426 17.291 14.4967 17.421C14.5509 17.551 14.5834 17.6918 14.5834 17.8327C14.5834 17.9735 14.5509 18.1143 14.4967 18.2443Z" fill="#FF642B"/>
</svg>
