<svg width="32" height="32" viewBox="0 0 32 32" fill="none" xmlns="http://www.w3.org/2000/svg">
<circle cx="16" cy="16" r="16" fill="#4791FF"/>
<path d="M22.1581 12.1915L16.3831 15.7223C16.1506 15.8648 15.8581 15.8648 15.6181 15.7223L9.84315 12.1915C9.43065 11.9381 9.32565 11.3444 9.64065 10.9723C9.85815 10.711 10.1056 10.4973 10.3681 10.3469L14.4331 7.97187C15.3031 7.45729 16.7131 7.45729 17.5831 7.97187L21.6482 10.3469C21.9107 10.4973 22.1581 10.719 22.3757 10.9723C22.6756 11.3444 22.5706 11.9381 22.1581 12.1915Z" fill="white"/>
<path d="M15.5719 17.1951V22.5943C15.5719 23.1959 14.9944 23.5918 14.4844 23.3305C12.9394 22.5309 10.3369 21.0347 10.3369 21.0347C9.42187 20.4884 8.67188 19.1109 8.67188 17.9788V13.8938C8.67188 13.2684 9.29438 12.8726 9.80437 13.1813L15.1969 16.4826C15.4219 16.633 15.5719 16.9022 15.5719 17.1951Z" fill="white"/>
<path d="M16.4277 17.1951V22.5943C16.4277 23.1959 17.0052 23.5918 17.5152 23.3305C19.0602 22.5309 21.6627 21.0347 21.6627 21.0347C22.5777 20.4884 23.3277 19.1109 23.3277 17.9788V13.8938C23.3277 13.2684 22.7052 12.8726 22.1952 13.1813L16.8027 16.4826C16.5777 16.633 16.4277 16.9022 16.4277 17.1951Z" fill="white"/>
</svg>
