<svg width="24" height="24" viewBox="0 0 24 24" fill="none" xmlns="http://www.w3.org/2000/svg">
<path d="M19.7901 14.9284C17.7301 16.9784 14.7801 17.6084 12.1901 16.7984L7.48015 21.4984C7.14015 21.8484 6.47015 22.0584 5.99015 21.9884L3.81015 21.6884C3.09015 21.5884 2.42015 20.9084 2.31015 20.1884L2.01015 18.0084C1.94015 17.5284 2.17015 16.8584 2.50015 16.5184L7.20015 11.8184C6.40015 9.21836 7.02015 6.26836 9.08015 4.21836C12.0301 1.26836 16.8201 1.26836 19.7801 4.21836C22.7402 7.16836 22.7402 11.9784 19.7901 14.9284Z" stroke="#0D0849" stroke-width="1.25" stroke-miterlimit="10" stroke-linecap="round" stroke-linejoin="round"/>
<path d="M6.89014 17.4902L9.19014 19.7902" stroke="#0D0849" stroke-width="1.25" stroke-miterlimit="10" stroke-linecap="round" stroke-linejoin="round"/>
<path d="M14.5005 11C15.3289 11 16.0005 10.3284 16.0005 9.5C16.0005 8.67157 15.3289 8 14.5005 8C13.6721 8 13.0005 8.67157 13.0005 9.5C13.0005 10.3284 13.6721 11 14.5005 11Z" stroke="#0D0849" stroke-width="1.25" stroke-linecap="round" stroke-linejoin="round"/>
</svg>
