<svg width="28" height="27" viewBox="0 0 28 27" fill="none" xmlns="http://www.w3.org/2000/svg">
<path opacity="0.4" d="M24.7713 11.3878C24.3425 10.7721 23.5838 10.4202 22.7151 10.4202H18.2069C17.91 10.4202 17.6352 10.2992 17.4482 10.0793C17.2503 9.85941 17.1733 9.55154 17.2173 9.23266L17.7781 5.6261C18.02 4.54852 17.3053 3.33901 16.2277 2.97615C15.2271 2.6023 14.0506 3.1081 13.5778 3.82281L8.93761 10.7171L8.80566 10.937V20.6571L8.9706 20.8221L12.4562 23.516C12.918 23.9778 13.9626 24.2307 14.6993 24.2307H18.9876C20.461 24.2307 21.9454 23.1201 22.2753 21.7677L24.9802 13.532C25.2661 12.7513 25.1892 11.9926 24.7713 11.3878Z" fill="#A1B3C9"/>
<path d="M6.69464 7.375H5.56209C3.85776 7.375 3.16504 8.03474 3.16504 9.66209V20.7237C3.16504 22.351 3.85776 23.0108 5.56209 23.0108H6.69464C8.39896 23.0108 9.09168 22.351 9.09168 20.7237V9.66209C9.09168 8.03474 8.39896 7.375 6.69464 7.375Z" fill="#A1B3C9"/>
</svg>
