<svg width="19" height="25" viewBox="0 0 19 25" fill="none" xmlns="http://www.w3.org/2000/svg">
<path opacity="0.4" d="M17.7728 10.0572C17.2963 9.37302 16.4533 8.98207 15.4882 8.98207H10.479C10.1492 8.98207 9.84375 8.84768 9.63605 8.60333C9.41614 8.35898 9.33062 8.0169 9.37949 7.66259L10.0026 3.6553C10.2714 2.458 9.47723 1.11409 8.27992 0.710913C7.16814 0.295523 5.86089 0.857522 5.33554 1.65165L0.179811 9.31194L0.0332031 9.55629V20.3564L0.216464 20.5397L4.08937 23.533C4.6025 24.0461 5.76315 24.3271 6.58171 24.3271H11.3465C12.9836 24.3271 14.633 23.0931 14.9995 21.5904L18.0049 12.4396C18.3226 11.5722 18.2371 10.7292 17.7728 10.0572Z" fill="#FF642B"/>
</svg>
