<svg width="30" height="31" viewBox="0 0 30 31" fill="none" xmlns="http://www.w3.org/2000/svg">
<path opacity="0.4" d="M26.7728 13.0572C26.2963 12.373 25.4533 11.9821 24.4882 11.9821H19.479C19.1492 11.9821 18.8437 11.8477 18.6361 11.6033C18.4161 11.359 18.3306 11.0169 18.3795 10.6626L19.0026 6.6553C19.2714 5.458 18.4772 4.11409 17.2799 3.71091C16.1681 3.29552 14.8609 3.85752 14.3355 4.65165L9.17981 12.3119L9.0332 12.5563V23.3564L9.21646 23.5397L13.0894 26.533C13.6025 27.0461 14.7631 27.3271 15.5817 27.3271H20.3465C21.9836 27.3271 23.633 26.0931 23.9995 24.5904L27.0049 15.4396C27.3226 14.5722 27.2371 13.7292 26.7728 13.0572Z" fill="#FF642B"/>
<path d="M6.68838 8.59668H5.42999C3.5363 8.59668 2.7666 9.32972 2.7666 11.1379V23.4286C2.7666 25.2367 3.5363 25.9698 5.42999 25.9698H6.68838C8.58207 25.9698 9.35176 25.2367 9.35176 23.4286V11.1379C9.35176 9.32972 8.58207 8.59668 6.68838 8.59668Z" fill="#FF642B"/>
</svg>
