<svg width="25" height="25" viewBox="0 0 25 25" fill="none" xmlns="http://www.w3.org/2000/svg">
<path opacity="0.4" d="M21.3066 8.95C20.2566 4.33 16.2266 2.25 12.6866 2.25C12.6866 2.25 12.6866 2.25 12.6766 2.25C9.14662 2.25 5.10662 4.32 4.05662 8.94C2.88662 14.1 6.04662 18.47 8.90662 21.22C9.96662 22.24 11.3266 22.75 12.6866 22.75C14.0466 22.75 15.4066 22.24 16.4566 21.22C19.3166 18.47 22.4766 14.11 21.3066 8.95Z" fill="url(#paint0_linear_3468_118245)"/>
<path d="M12.6871 13.9563C14.4268 13.9563 15.8371 12.5459 15.8371 10.8063C15.8371 9.06655 14.4268 7.65625 12.6871 7.65625C10.9474 7.65625 9.53711 9.06655 9.53711 10.8063C9.53711 12.5459 10.9474 13.9563 12.6871 13.9563Z" fill="url(#paint1_linear_3468_118245)"/>
<defs>
<linearGradient id="paint0_linear_3468_118245" x1="1.46154" y1="-1.09239" x2="33.7396" y2="3.61322" gradientUnits="userSpaceOnUse">
<stop stop-color="#FD8839"/>
<stop offset="1" stop-color="#FF4746"/>
</linearGradient>
<linearGradient id="paint1_linear_3468_118245" x1="8.70476" y1="6.62907" x2="20.0822" y2="8.54469" gradientUnits="userSpaceOnUse">
<stop stop-color="#FD8839"/>
<stop offset="1" stop-color="#FF4746"/>
</linearGradient>
</defs>
</svg>
