<svg width="24" height="24" viewBox="0 0 24 24" fill="none" xmlns="http://www.w3.org/2000/svg">
<path opacity="0.4" d="M20.6211 8.45C19.5711 3.83 15.5411 1.75 12.0011 1.75C12.0011 1.75 12.0011 1.75 11.9911 1.75C8.46107 1.75 4.42107 3.82 3.37107 8.44C2.20107 13.6 5.36107 17.97 8.22107 20.72C9.28107 21.74 10.6411 22.25 12.0011 22.25C13.3611 22.25 14.7211 21.74 15.7711 20.72C18.6311 17.97 21.7911 13.61 20.6211 8.45Z" fill="url(#paint0_linear_3352_138517)"/>
<path d="M12.0016 13.4563C13.7413 13.4563 15.1516 12.0459 15.1516 10.3063C15.1516 8.56655 13.7413 7.15625 12.0016 7.15625C10.2619 7.15625 8.85156 8.56655 8.85156 10.3063C8.85156 12.0459 10.2619 13.4563 12.0016 13.4563Z" fill="url(#paint1_linear_3352_138517)"/>
<defs>
<linearGradient id="paint0_linear_3352_138517" x1="0.775997" y1="-1.59239" x2="33.0541" y2="3.11322" gradientUnits="userSpaceOnUse">
<stop stop-color="#FD8839"/>
<stop offset="1" stop-color="#FF4746"/>
</linearGradient>
<linearGradient id="paint1_linear_3352_138517" x1="8.01922" y1="6.12907" x2="19.3966" y2="8.04469" gradientUnits="userSpaceOnUse">
<stop stop-color="#FD8839"/>
<stop offset="1" stop-color="#FF4746"/>
</linearGradient>
</defs>
</svg>
