<svg width="25" height="25" viewBox="0 0 25 25" fill="none" xmlns="http://www.w3.org/2000/svg">
<path d="M13.7396 22.4844C14.2196 22.4844 14.5996 22.1044 14.5996 21.6244L14.5996 13.1644L10.9296 13.1644L12.4996 14.7344C12.7896 15.0244 12.7896 15.5044 12.4996 15.7944C12.2096 16.0844 11.7296 16.0844 11.4396 15.7944L8.59961 12.9444C8.30961 12.6544 8.30961 12.1744 8.59961 11.8844L11.4396 9.03437C11.5896 8.88438 11.7796 8.81437 11.9696 8.81437C12.1596 8.81437 12.3496 8.88438 12.4996 9.03438C12.7896 9.32437 12.7896 9.80437 12.4996 10.0944L10.9396 11.6544L14.5996 11.6544L14.5996 3.32438C14.5996 2.85438 14.2196 2.46437 13.7396 2.46437C7.84961 2.46437 3.73961 6.57437 3.73961 12.4644C3.73961 18.3544 7.85961 22.4844 13.7396 22.4844Z" fill="white"/>
<path d="M20.5098 13.1641C20.9198 13.1641 21.2598 12.8241 21.2598 12.4141C21.2598 12.0041 20.9198 11.6641 20.5098 11.6641L14.6098 11.6641L14.6098 13.1641L20.5098 13.1641Z" fill="white"/>
</svg>
