<svg width="24" height="24" viewBox="0 0 24 24" fill="none" xmlns="http://www.w3.org/2000/svg">
<path opacity="0.6" d="M9 7.2V16.79C9 20 11 22 14.2 22H16.79C19.99 22 21.99 20 21.99 16.8V7.2C22 4 20 2 16.8 2H14.2C11 2 9 4 9 7.2Z" fill="white"/>
<path d="M5.57043 8.11953L2.22043 11.4695C1.93043 11.7595 1.93043 12.2395 2.22043 12.5295L5.57043 15.8795C5.86043 16.1695 6.34043 16.1695 6.63043 15.8795C6.92043 15.5895 6.92043 15.1095 6.63043 14.8195L4.56043 12.7495H15.2504C15.6604 12.7495 16.0004 12.4095 16.0004 11.9995C16.0004 11.5895 15.6604 11.2495 15.2504 11.2495H4.56043L6.63043 9.17953C6.78043 9.02953 6.85043 8.83953 6.85043 8.64953C6.85043 8.45953 6.78043 8.25953 6.63043 8.11953C6.34043 7.81953 5.87043 7.81953 5.57043 8.11953Z" fill="white"/>
</svg>
