<svg width="24" height="23" viewBox="0 0 24 23" fill="none" xmlns="http://www.w3.org/2000/svg">
<path d="M19.8799 22.8768H4.12588C1.95427 22.8768 0.1875 21.11 0.1875 18.9384C0.1875 16.7668 1.95427 15 4.12588 15H19.8799C22.0515 15 23.8183 16.7668 23.8183 18.9384C23.8185 21.11 22.0515 22.8768 19.8799 22.8768ZM4.12588 15.9844C2.49694 15.9844 1.17196 17.3094 1.17196 18.9383C1.17196 20.5673 2.49694 21.8923 4.12588 21.8923H19.8799C21.5089 21.8923 22.8339 20.5673 22.8339 18.9383C22.8339 17.3094 21.5089 15.9844 19.8799 15.9844H4.12588Z" fill="#002280"/>
<path d="M5.10991 20.9073C4.02383 20.9073 3.14062 20.0239 3.14062 18.938C3.14062 17.8521 4.02383 16.9688 5.10991 16.9688C6.19599 16.9688 7.07919 17.8521 7.07919 18.938C7.07919 20.0239 6.19599 20.9073 5.10991 20.9073ZM5.10991 17.9536C4.56705 17.9536 4.12527 18.3952 4.12527 18.9382C4.12527 19.4812 4.56705 19.9229 5.10991 19.9229C5.65276 19.9229 6.09455 19.4812 6.09455 18.9382C6.09455 18.395 5.65276 17.9536 5.10991 17.9536Z" fill="#002280"/>
<path d="M12.0044 20.9073C10.9184 20.9073 10.0352 20.0239 10.0352 18.938C10.0352 17.8521 10.9184 16.9688 12.0044 16.9688C13.0905 16.9688 13.9737 17.8521 13.9737 18.938C13.9737 20.0239 13.0905 20.9073 12.0044 20.9073ZM12.0044 17.9536C11.4616 17.9536 11.0198 18.3952 11.0198 18.9382C11.0198 19.4812 11.4616 19.9229 12.0044 19.9229C12.5473 19.9229 12.9891 19.4812 12.9891 18.9382C12.9891 18.395 12.5473 17.9536 12.0044 17.9536Z" fill="#002280"/>
<path d="M18.899 20.9073C17.8129 20.9073 16.9297 20.0239 16.9297 18.938C16.9297 17.8521 17.8129 16.9688 18.899 16.9688C19.985 16.9688 20.8682 17.8521 20.8682 18.938C20.8682 20.0239 19.985 20.9073 18.899 20.9073ZM18.899 17.9536C18.3561 17.9536 17.9143 18.3952 17.9143 18.9382C17.9143 19.4812 18.3561 19.9229 18.899 19.9229C19.4418 19.9229 19.8836 19.4812 19.8836 18.9382C19.8836 18.395 19.4418 17.9536 18.899 17.9536Z" fill="#002280"/>
<path d="M15.4476 15.9828H8.55484C8.2827 15.9828 8.0625 15.7624 8.0625 15.4904V8.56107C8.0625 7.49569 8.92929 6.62891 9.99466 6.62891H14.0077C15.0731 6.62891 15.9398 7.49569 15.9398 8.56107L15.94 15.4904C15.94 15.7622 15.7198 15.9828 15.4477 15.9828H15.4476ZM9.04719 14.9981H14.9553V8.56111C14.9553 8.03841 14.5303 7.61345 14.0076 7.61345H9.99462C9.47192 7.61345 9.04696 8.03846 9.04696 8.56111L9.04719 14.9981Z" fill="#002280"/>
<path d="M15.4482 5.6459H8.55537C7.19821 5.6459 6.09375 4.54163 6.09375 3.18428C6.09375 1.82711 7.19802 0.722656 8.55537 0.722656H15.4482C16.8053 0.722656 17.9098 1.82693 17.9098 3.18428C17.9096 4.54158 16.8053 5.6459 15.4482 5.6459ZM8.55537 1.70752C7.74093 1.70752 7.07839 2.37002 7.07839 3.18451C7.07839 3.99895 7.74088 4.66149 8.55537 4.66149H15.4482C16.2626 4.66149 16.9252 3.999 16.9252 3.18451C16.9252 2.37006 16.2627 1.70752 15.4482 1.70752H8.55537Z" fill="#002280"/>
<path d="M12.001 7.61408C11.7294 7.61408 11.5087 7.3939 11.5087 7.12192L11.5078 5.15264C11.5078 4.88067 11.728 4.66029 12.0002 4.66016C12.2718 4.66016 12.4925 4.88033 12.4925 5.15232L12.4934 7.1216C12.4934 7.39338 12.2732 7.61394 12.001 7.61408Z" fill="#002280"/>
<path d="M9.53919 3.67761C9.41134 3.67761 9.28348 3.6235 9.18973 3.52975C9.14545 3.48547 9.11134 3.43136 9.08634 3.37225C9.06187 3.31314 9.04688 3.24922 9.04688 3.18529C9.04688 3.05243 9.10116 2.92922 9.18973 2.83583C9.37188 2.65368 9.70703 2.65368 9.88404 2.83583C9.97779 2.92422 10.0317 3.05243 10.0317 3.18529C10.0317 3.24922 10.0173 3.31315 9.99279 3.37225C9.96779 3.43136 9.93368 3.48547 9.88422 3.52975C9.86458 3.55457 9.83993 3.57422 9.81065 3.59386C9.78565 3.6085 9.75636 3.6235 9.72708 3.63814C9.69726 3.64796 9.66797 3.65779 9.63815 3.66779C9.60368 3.67243 9.57387 3.67761 9.53922 3.67761L9.53919 3.67761Z" fill="#002280"/>
<path d="M13.9728 3.68049C13.9387 3.68049 13.9089 3.67549 13.8748 3.67066C13.8449 3.66084 13.8156 3.65102 13.7858 3.64102C13.7565 3.62638 13.7267 3.61138 13.6974 3.59674C13.673 3.57709 13.6483 3.55727 13.6233 3.53263C13.5349 3.44424 13.4805 3.31602 13.4805 3.18816C13.4805 3.12424 13.4953 3.06013 13.5199 2.99602C13.5449 2.93691 13.579 2.88281 13.6233 2.83852C13.6483 2.8137 13.6728 2.79406 13.6974 2.7746C13.7267 2.75977 13.7565 2.74495 13.7858 2.73013C13.8156 2.72031 13.8449 2.71049 13.8748 2.70567C14.0373 2.67102 14.2046 2.72531 14.3176 2.83852C14.3671 2.88281 14.4012 2.93691 14.4262 2.99602C14.4506 3.05995 14.4651 3.12406 14.4651 3.18816C14.4651 3.31602 14.4112 3.44424 14.3174 3.53263C14.229 3.62638 14.1012 3.68049 13.9728 3.68049L13.9728 3.68049Z" fill="#002280"/>
</svg>
