<svg width="28" height="17" viewBox="0 0 28 17" fill="none" xmlns="http://www.w3.org/2000/svg">
<path d="M7.28683 10.9452L4.23485 11.9693L11.7275 14.4871L16.1682 12.9955C15.9169 12.4071 15.764 11.7662 15.7263 11.0936L11.9808 12.3484C11.8217 12.4028 11.6437 12.4068 11.474 12.3504L7.28656 10.945L7.28683 10.9452ZM19.3628 9.83903L20.8711 11.2802L23.2695 8.3709L24.5954 9.46016L21.0175 13.8003L18.1727 11.0774L19.3626 9.83929L19.3628 9.83903ZM17.0188 14.3867L11.981 16.0794C11.8219 16.1338 11.6439 16.1378 11.4741 16.0814L1.48412 12.7217C0.767718 12.485 0.763706 11.4563 1.48412 11.2154L4.78979 10.105L1.48412 8.99268C0.767718 8.75622 0.763706 7.72764 1.48412 7.4868L4.7938 6.37445L1.48412 5.26009C0.767718 5.02344 0.763706 3.99469 1.48412 3.7538L11.4741 0.398088C11.6332 0.343646 11.8112 0.33963 11.981 0.39608L21.971 3.75581C22.6118 3.96735 22.6829 4.81169 22.1761 5.15924C24.9287 5.54455 27.0525 7.91386 27.0525 10.7732C27.0525 13.9007 24.5115 16.4411 21.3841 16.4411C19.6289 16.4411 18.0601 15.6409 17.0189 14.3862L17.0188 14.3867ZM16.8092 7.43043L16.1644 7.21447L11.9812 8.6179C11.8221 8.67235 11.6441 8.67676 11.4743 8.61991L7.29111 7.21447L4.23513 8.24104L11.7278 10.7566L15.8941 9.3576C16.0765 8.65385 16.3927 8.00236 16.8096 7.43063L16.8092 7.43043ZM21.384 6.70138C19.1346 6.70138 17.3118 8.5237 17.3118 10.7735C17.3118 13.0229 19.1344 14.8456 21.384 14.8456C23.6337 14.8456 25.4563 13.0231 25.4563 10.7735C25.4563 8.5237 23.6337 6.70138 21.384 6.70138ZM11.7272 7.02582L19.2198 4.50803L11.7272 1.99024L4.23458 4.50803L11.7272 7.02582Z" fill="#303065"/>
</svg>
