<svg width="36" height="37" viewBox="0 0 36 37" fill="none" xmlns="http://www.w3.org/2000/svg">
<circle opacity="0.1" cx="18" cy="18.5" r="18" fill="#FF642B"/>
<path d="M23.7834 13.5159L19.4751 11.0242C18.6501 10.5492 17.3584 10.5492 16.5334 11.0242L12.1834 13.5326C10.4584 14.6992 10.3584 14.8742 10.3584 16.7326V21.2576C10.3584 23.1159 10.4584 23.2992 12.2167 24.4826L16.5251 26.9742C16.9417 27.2159 17.4751 27.3326 18.0001 27.3326C18.5251 27.3326 19.0584 27.2159 19.4667 26.9742L23.8167 24.4659C25.5417 23.2992 25.6417 23.1242 25.6417 21.2659V16.7326C25.6417 14.8742 25.5417 14.6992 23.7834 13.5159ZM18.0001 21.7076C16.5084 21.7076 15.2917 20.4909 15.2917 18.9992C15.2917 17.5076 16.5084 16.2909 18.0001 16.2909C19.4917 16.2909 20.7084 17.5076 20.7084 18.9992C20.7084 20.4909 19.4917 21.7076 18.0001 21.7076Z" fill="#FF642B"/>
</svg>
