<svg width="30" height="30" viewBox="0 0 30 30" fill="none" xmlns="http://www.w3.org/2000/svg">
<path d="M27.5 12.5V16.25C27.5 21.25 25 23.75 20 23.75H19.375C18.9875 23.75 18.6125 23.9375 18.375 24.25L16.5 26.75C15.675 27.85 14.325 27.85 13.5 26.75L11.625 24.25C11.425 23.975 10.9625 23.75 10.625 23.75H10C5 23.75 2.5 22.5 2.5 16.25V10C2.5 5 5 2.5 10 2.5H17.5" stroke="white" stroke-width="1.5" stroke-miterlimit="10" stroke-linecap="round" stroke-linejoin="round"/>
<path d="M24.375 8.75C26.1009 8.75 27.5 7.35089 27.5 5.625C27.5 3.89911 26.1009 2.5 24.375 2.5C22.6491 2.5 21.25 3.89911 21.25 5.625C21.25 7.35089 22.6491 8.75 24.375 8.75Z" stroke="#EE7402" stroke-width="1.5" stroke-linecap="round" stroke-linejoin="round"/>
<path d="M19.9956 13.75H20.0068" stroke="white" stroke-width="2" stroke-linecap="round" stroke-linejoin="round"/>
<path d="M14.9941 13.75H15.0053" stroke="white" stroke-width="2" stroke-linecap="round" stroke-linejoin="round"/>
<path d="M9.99313 13.75H10.0044" stroke="white" stroke-width="2" stroke-linecap="round" stroke-linejoin="round"/>
</svg>
