<svg width="44" height="44" viewBox="0 0 44 44" fill="none" xmlns="http://www.w3.org/2000/svg">
<path d="M29.3327 3.66797H14.666C7.33268 3.66797 3.66602 7.33464 3.66602 14.668V38.5013C3.66602 39.5096 4.49102 40.3346 5.49935 40.3346H29.3327C36.666 40.3346 40.3327 36.668 40.3327 29.3346V14.668C40.3327 7.33464 36.666 3.66797 29.3327 3.66797Z" stroke="#EE7402" stroke-width="1.5" stroke-linecap="round" stroke-linejoin="round"/>
<path d="M23.6681 14.3726L14.1531 23.8876C13.7864 24.2543 13.4381 24.9693 13.3648 25.4826L12.8515 29.1126C12.6681 30.4326 13.5848 31.3493 14.9048 31.166L18.5348 30.6526C19.0481 30.5793 19.7631 30.231 20.1298 29.8643L29.6448 20.3493C31.2765 18.7176 32.0648 16.811 29.6448 14.391C27.2248 11.9526 25.3181 12.7226 23.6681 14.3726Z" stroke="#EE7402" stroke-width="1.5" stroke-miterlimit="10" stroke-linecap="round" stroke-linejoin="round"/>
<path d="M22.3105 15.7305C23.1172 18.6088 25.3722 20.8821 28.2689 21.6888" stroke="#EE7402" stroke-width="1.5" stroke-miterlimit="10" stroke-linecap="round" stroke-linejoin="round"/>
</svg>
