<svg width="17" height="24" viewBox="0 0 17 24" fill="none" xmlns="http://www.w3.org/2000/svg">
<path d="M2.44196 3.13728V21.423H13.8705V3.13728H2.44196ZM1.29911 0.851562H15.0134C15.3165 0.851563 15.6072 0.97197 15.8215 1.1863C16.0358 1.40062 16.1562 1.69132 16.1562 1.99442V22.5658C16.1562 22.869 16.0358 23.1596 15.8215 23.374C15.6072 23.5883 15.3165 23.7087 15.0134 23.7087H1.29911C0.996003 23.7087 0.705313 23.5883 0.490985 23.374C0.276658 23.1596 0.15625 22.869 0.15625 22.5658V1.99442C0.15625 1.69132 0.276658 1.40062 0.490985 1.1863C0.705313 0.97197 0.996003 0.851563 1.29911 0.851562ZM8.15625 17.9944C8.45936 17.9944 8.75004 18.1148 8.96437 18.3292C9.1787 18.5435 9.29911 18.8342 9.29911 19.1373C9.29911 19.4404 9.1787 19.7311 8.96437 19.9454C8.75004 20.1597 8.45936 20.2801 8.15625 20.2801C7.85315 20.2801 7.56246 20.1597 7.34813 19.9454C7.1338 19.7311 7.01339 19.4404 7.01339 19.1373C7.01339 18.8342 7.1338 18.5435 7.34813 18.3292C7.56246 18.1148 7.85315 17.9944 8.15625 17.9944Z" fill="#0A0045"/>
</svg>
