<svg width="19" height="19" viewBox="0 0 19 19" fill="none" xmlns="http://www.w3.org/2000/svg">
<path d="M9.4987 1.58594C5.1287 1.58594 1.58203 5.1326 1.58203 9.5026C1.58203 13.8726 5.1287 17.4193 9.4987 17.4193C13.8687 17.4193 17.4154 13.8726 17.4154 9.5026C17.4154 5.1326 13.8687 1.58594 9.4987 1.58594ZM12.7841 10.1597L11.4145 10.6189C11.0345 10.7455 10.7416 11.0384 10.6149 11.4184L10.1558 12.788C9.76786 13.9676 8.10536 13.9439 7.7412 12.7643L6.19745 7.7926C5.89661 6.80302 6.80703 5.8926 7.78078 6.19344L12.7604 7.73719C13.9399 8.10927 13.9558 9.77177 12.7841 10.1597Z" fill="#A1B3C9"/>
</svg>
