<svg width="28" height="28" viewBox="0 0 28 28" fill="none" xmlns="http://www.w3.org/2000/svg">
<rect x="0.5" y="0.5" width="27" height="27" rx="13.5" fill="white"/>
<path d="M10.666 8.66406H9.33268C8.96449 8.66406 8.66602 8.96254 8.66602 9.33073V10.6641C8.66602 11.0323 8.96449 11.3307 9.33268 11.3307H10.666C11.0342 11.3307 11.3327 11.0323 11.3327 10.6641V9.33073C11.3327 8.96254 11.0342 8.66406 10.666 8.66406Z" fill="#002280"/>
<path fill-rule="evenodd" clip-rule="evenodd" d="M9.33268 12.6641H10.666C11.0342 12.6641 11.3327 12.9625 11.3327 13.3307V14.6641C11.3327 15.0323 11.0342 15.3307 10.666 15.3307H9.33268C8.96449 15.3307 8.66602 15.0323 8.66602 14.6641V13.3307C8.66602 12.9625 8.96449 12.6641 9.33268 12.6641ZM13.3327 8.66406H14.666C15.0342 8.66406 15.3327 8.96254 15.3327 9.33073V10.6641C15.3327 11.0323 15.0342 11.3307 14.666 11.3307H13.3327C12.9645 11.3307 12.666 11.0323 12.666 10.6641V9.33073C12.666 8.96254 12.9645 8.66406 13.3327 8.66406ZM13.3327 12.6641H14.666C15.0342 12.6641 15.3327 12.9625 15.3327 13.3307V14.6641C15.3327 15.0323 15.0342 15.3307 14.666 15.3307H13.3327C12.9645 15.3307 12.666 15.0323 12.666 14.6641V13.3307C12.666 12.9625 12.9645 12.6641 13.3327 12.6641ZM17.3327 8.66406H18.666C19.0342 8.66406 19.3327 8.96254 19.3327 9.33073V10.6641C19.3327 11.0323 19.0342 11.3307 18.666 11.3307H17.3327C16.9645 11.3307 16.666 11.0323 16.666 10.6641V9.33073C16.666 8.96254 16.9645 8.66406 17.3327 8.66406ZM17.3327 12.6641H18.666C19.0342 12.6641 19.3327 12.9625 19.3327 13.3307V14.6641C19.3327 15.0323 19.0342 15.3307 18.666 15.3307H17.3327C16.9645 15.3307 16.666 15.0323 16.666 14.6641V13.3307C16.666 12.9625 16.9645 12.6641 17.3327 12.6641ZM9.33268 16.6641H10.666C11.0342 16.6641 11.3327 16.9625 11.3327 17.3307V18.6641C11.3327 19.0323 11.0342 19.3307 10.666 19.3307H9.33268C8.96449 19.3307 8.66602 19.0323 8.66602 18.6641V17.3307C8.66602 16.9625 8.96449 16.6641 9.33268 16.6641ZM13.3327 16.6641H14.666C15.0342 16.6641 15.3327 16.9625 15.3327 17.3307V18.6641C15.3327 19.0323 15.0342 19.3307 14.666 19.3307H13.3327C12.9645 19.3307 12.666 19.0323 12.666 18.6641V17.3307C12.666 16.9625 12.9645 16.6641 13.3327 16.6641ZM17.3327 16.6641H18.666C19.0342 16.6641 19.3327 16.9625 19.3327 17.3307V18.6641C19.3327 19.0323 19.0342 19.3307 18.666 19.3307H17.3327C16.9645 19.3307 16.666 19.0323 16.666 18.6641V17.3307C16.666 16.9625 16.9645 16.6641 17.3327 16.6641Z" fill="#002280"/>
<rect x="0.5" y="0.5" width="27" height="27" rx="13.5" stroke="#EDF5F9"/>
</svg>
