<svg width="32" height="32" viewBox="0 0 32 32" fill="none" xmlns="http://www.w3.org/2000/svg">
<circle opacity="0.1" cx="16" cy="16" r="16" fill="#FF642B"/>
<path d="M12.0653 22V20.4773L16.1051 16.517C16.4915 16.1269 16.8134 15.7803 17.071 15.4773C17.3286 15.1742 17.5218 14.8807 17.6506 14.5966C17.7794 14.3125 17.8438 14.0095 17.8438 13.6875C17.8438 13.3201 17.7604 13.0057 17.5938 12.7443C17.4271 12.4792 17.1979 12.2746 16.9062 12.1307C16.6146 11.9867 16.2831 11.9148 15.9119 11.9148C15.5294 11.9148 15.1941 11.9943 14.9062 12.1534C14.6184 12.3087 14.3949 12.5303 14.2358 12.8182C14.0805 13.1061 14.0028 13.4489 14.0028 13.8466H11.9972C11.9972 13.108 12.1657 12.4659 12.5028 11.9205C12.84 11.375 13.304 10.9527 13.8949 10.6534C14.4896 10.3542 15.1714 10.2045 15.9403 10.2045C16.7206 10.2045 17.4063 10.3504 17.9972 10.642C18.5881 10.9337 19.0464 11.3333 19.3722 11.8409C19.7017 12.3485 19.8665 12.928 19.8665 13.5795C19.8665 14.0152 19.7831 14.4432 19.6165 14.8636C19.4498 15.2841 19.1563 15.75 18.7358 16.2614C18.3191 16.7727 17.7339 17.392 16.9801 18.1193L14.9744 20.1591V20.2386H20.0426V22H12.0653Z" fill="#FF642B"/>
</svg>
