<svg width="32" height="32" viewBox="0 0 32 32" fill="none" xmlns="http://www.w3.org/2000/svg">
<circle opacity="0.1" cx="16" cy="16" r="16" fill="#FF642B"/>
<path d="M16.4993 22.1591C15.6811 22.1591 14.9538 22.0189 14.3175 21.7386C13.6849 21.4583 13.1849 21.0682 12.8175 20.5682C12.45 20.0682 12.255 19.4905 12.2322 18.8352H14.3686C14.3875 19.1496 14.4917 19.4242 14.6811 19.6591C14.8705 19.8902 15.1224 20.0701 15.4368 20.1989C15.7512 20.3277 16.1035 20.392 16.4936 20.392C16.9103 20.392 17.2796 20.3201 17.6016 20.1761C17.9235 20.0284 18.1754 19.8239 18.3572 19.5625C18.5391 19.3011 18.6281 19 18.6243 18.6591C18.6281 18.3068 18.5372 17.9962 18.3516 17.7273C18.166 17.4583 17.897 17.2481 17.5447 17.0966C17.1963 16.9451 16.7758 16.8693 16.2834 16.8693H15.255V15.2443H16.2834C16.6887 15.2443 17.0429 15.1742 17.3459 15.0341C17.6527 14.8939 17.8932 14.697 18.0675 14.4432C18.2417 14.1856 18.3269 13.8883 18.3232 13.5511C18.3269 13.2216 18.2531 12.9356 18.1016 12.6932C17.9538 12.447 17.7436 12.2557 17.4709 12.1193C17.2019 11.983 16.8857 11.9148 16.522 11.9148C16.166 11.9148 15.8364 11.9792 15.5334 12.108C15.2304 12.2367 14.986 12.4205 14.8004 12.6591C14.6148 12.8939 14.5163 13.1742 14.505 13.5H12.4766C12.4917 12.8485 12.6792 12.2765 13.0391 11.7841C13.4027 11.2879 13.8875 10.9015 14.4936 10.625C15.0997 10.3447 15.7796 10.2045 16.5334 10.2045C17.3099 10.2045 17.9841 10.3504 18.5561 10.642C19.1319 10.9299 19.5769 11.3182 19.8913 11.8068C20.2057 12.2955 20.3629 12.8352 20.3629 13.4261C20.3667 14.0814 20.1735 14.6307 19.7834 15.0739C19.397 15.517 18.8894 15.8068 18.2607 15.9432V16.0341C19.0788 16.1477 19.7057 16.4508 20.1413 16.9432C20.5807 17.4318 20.7985 18.0398 20.7947 18.767C20.7947 19.4186 20.6091 20.0019 20.2379 20.517C19.8705 21.0284 19.3629 21.4299 18.7152 21.7216C18.0713 22.0133 17.3326 22.1591 16.4993 22.1591Z" fill="#FF642B"/>
</svg>
