<svg width="54" height="54" viewBox="0 0 54 54" fill="none" xmlns="http://www.w3.org/2000/svg">
<path d="M21.0714 31.4453H9.22C8.40169 31.4453 7.73828 32.1083 7.73828 32.9266C7.74096 34.6333 8.33158 36.2873 9.41108 37.6092C10.4905 38.931 11.9928 39.8409 13.6642 40.1842V43.2966L11.5905 43.2971C10.7722 43.2971 10.1088 43.96 10.1088 44.7783C10.1088 45.5967 10.7722 46.2601 11.5905 46.2601H18.7013C19.5196 46.2601 20.1825 45.5967 20.1825 44.7783C20.1825 43.96 19.5196 43.2971 18.7013 43.2971H16.6272V40.1842C18.2991 39.8409 19.8013 38.931 20.8808 37.6092C21.9603 36.2874 22.5509 34.6333 22.5531 32.9266C22.5531 32.1083 21.8902 31.4453 21.0719 31.4453L21.0714 31.4453ZM15.1455 37.3713C14.2267 37.3699 13.3303 37.0847 12.5803 36.5543C11.8299 36.024 11.2621 35.274 10.9549 34.4084H19.3361C19.0285 35.274 18.4607 36.024 17.7106 36.5543C16.9602 37.0847 16.0642 37.3699 15.1455 37.3713Z" fill="#EE7402"/>
<path d="M53.6295 14.9728C53.6156 14.7701 53.5487 14.5741 53.4353 14.4058C53.4116 14.3491 53.3844 14.2942 53.3536 14.2415L42.9831 0.907812C42.7023 0.547103 42.271 0.335938 41.8135 0.335938H12.1838C11.7262 0.335938 11.2945 0.547103 11.0141 0.907812L0.643636 14.2415C0.612832 14.2942 0.585601 14.3491 0.56194 14.4058C0.448547 14.5741 0.381586 14.7701 0.367746 14.9728C0.35212 15.0313 0.340067 15.0906 0.332031 15.1509V52.1875C0.332031 53.0058 0.99498 53.6687 1.81329 53.6687H52.1836C53.0019 53.6687 53.6648 53.0058 53.6648 52.1875V15.1509C53.6568 15.0906 53.6447 15.0312 53.6291 14.9728H53.6295ZM49.1545 13.6692H35.4745L32.0178 3.29917H41.0892L49.1545 13.6692ZM28.8939 3.29917L32.3506 13.6692H21.6471L25.1038 3.29871L28.8939 3.29917ZM21.0729 16.6329H32.9243V23.3333L27.5489 21.1829V21.1825C27.1953 21.0419 26.8016 21.0419 26.448 21.1825L21.0726 23.3329L21.0729 16.6329ZM12.9086 3.29917H21.98L18.5233 13.6692H4.8433L12.9086 3.29917ZM50.7028 50.7072L3.29598 50.7067V16.6324H18.1108V25.5212C18.1108 26.0132 18.3546 26.4726 18.7617 26.7484C19.1689 27.0239 19.6863 27.0797 20.143 26.8971L26.9997 24.1542L33.8564 26.8976C34.3131 27.0797 34.8305 27.0239 35.2376 26.7484C35.6448 26.4726 35.8885 26.0132 35.8885 25.5212V16.6324H50.7034L50.7028 50.7072Z" fill="#EE7402"/>
<path d="M41.814 37.375H28.4803H28.4807C27.6642 37.3777 27.0039 38.0402 27.0039 38.8563C27.0039 39.6723 27.6642 40.3349 28.4807 40.338H41.8144H41.814C42.2077 40.3393 42.5858 40.1835 42.8649 39.9058C43.1439 39.6277 43.3006 39.25 43.3006 38.8563C43.3006 38.4625 43.1439 38.0849 42.8649 37.8072C42.5858 37.529 42.2077 37.3737 41.814 37.375V37.375Z" fill="#EE7402"/>
<path d="M37.3705 43.2969H28.4817C27.6634 43.2969 27 43.9598 27 44.7781C27 45.5964 27.6634 46.2598 28.4817 46.2598H37.3705C38.1884 46.2598 38.8518 45.5965 38.8518 44.7781C38.8518 43.9598 38.1884 43.2969 37.3705 43.2969Z" fill="#EE7402"/>
<path d="M28.4807 31.4453C27.6642 31.448 27.0039 32.1105 27.0039 32.9266C27.0039 33.7426 27.6642 34.4052 28.4807 34.4083H44.7767C45.5932 34.4052 46.2531 33.7427 46.2531 32.9266C46.2531 32.1105 45.5932 31.4479 44.7767 31.4453H28.4807Z" fill="#EE7402"/>
</svg>
