<svg width="71" height="70" viewBox="0 0 71 70" fill="none" xmlns="http://www.w3.org/2000/svg">
<circle opacity="0.1" cx="35.5" cy="35" r="35" fill="#FF642B"/>
<path d="M34.6953 19.4907L30.7902 28.5809H26.8851C26.2369 28.5809 25.605 28.6296 24.9893 28.7592L26.6096 24.8703L26.6744 24.7245L26.7717 24.4652C26.8203 24.3518 26.8527 24.2546 26.9013 24.1735C28.7809 19.8147 30.8874 18.4536 34.6953 19.4907Z" fill="#FF642B"/>
<path d="M45.6969 29.0177L45.6645 29.0014C44.6922 28.726 43.7038 28.5802 42.6992 28.5802H32.5557L36.2015 20.1056L36.2501 19.9922C36.477 20.0732 36.72 20.1866 36.9631 20.2677L40.5441 21.7746C42.5371 22.601 43.9307 23.4598 44.7895 24.4968C44.9353 24.6913 45.0649 24.8695 45.1946 25.0802C45.3404 25.307 45.4538 25.5339 45.5186 25.7769C45.5834 25.9227 45.6321 26.0524 45.6645 26.1982C45.9075 27.0246 45.9237 27.9644 45.6969 29.0177Z" fill="#FF642B"/>
<path d="M44.9845 31.3397C44.2553 31.1291 43.4937 31.0156 42.6998 31.0156H26.8849C25.7831 31.0156 24.7461 31.2263 23.7738 31.6476C20.9544 32.8628 18.9775 35.6661 18.9775 38.923V42.0828C18.9775 42.4716 19.0099 42.8443 19.0586 43.2332C19.415 48.386 22.1697 51.1406 27.3224 51.4809C27.6951 51.5295 28.0678 51.5619 28.4729 51.5619H41.1118C47.1072 51.5619 50.2669 48.7101 50.5748 43.0388C50.591 42.7309 50.6072 42.4068 50.6072 42.0828V38.923C50.6072 35.342 48.2252 32.3281 44.9845 31.3397ZM38.8433 43.055H30.7414C30.0771 43.055 29.5262 42.5041 29.5262 41.8397C29.5262 41.1753 30.0771 40.6244 30.7414 40.6244H38.8433C39.5076 40.6244 40.0586 41.1753 40.0586 41.8397C40.0586 42.5041 39.5076 43.055 38.8433 43.055Z" fill="#FF642B"/>
</svg>
