<svg width="64" height="64" viewBox="0 0 64 64" fill="none" xmlns="http://www.w3.org/2000/svg">
<path d="M32 64C49.6731 64 64 49.6731 64 32C64 14.3269 49.6731 0 32 0C14.3269 0 0 14.3269 0 32C0 49.6731 14.3269 64 32 64Z" fill="#FFCE00"/>
<path d="M63.9973 31.9987C63.9973 31.0261 63.9539 30.0634 63.8689 29.1128L53.2117 18.4557L48.8987 22.4281L38.8222 12.3516L10.8984 45.6997L29.0648 63.8661C30.0306 63.9538 31.0087 63.9987 31.9973 63.9987C49.6704 63.9987 63.9973 49.6718 63.9973 31.9987Z" fill="#FFA300"/>
<path d="M49.6727 16.607H40.4803L39.1863 13.0567C38.72 11.7772 37.5035 10.9258 36.1417 10.9258H27.8633C26.5015 10.9258 25.285 11.7772 24.8187 13.0567L23.5247 16.607H14.3323C11.9462 16.607 10.0117 18.5414 10.0117 20.9277V43.0738C10.0117 45.4599 11.9461 47.3944 14.3323 47.3944H49.673C52.0591 47.3944 53.9936 45.46 53.9936 43.0738V20.9277C53.9932 18.5414 52.0588 16.607 49.6727 16.607Z" fill="#707789"/>
<path d="M49.6701 16.607H40.4777L39.1837 13.0567C38.7173 11.7772 37.5008 10.9258 36.1391 10.9258H31.9805V47.3943H49.6702C52.0563 47.3943 53.9908 45.4599 53.9908 43.0737V20.9277C53.9906 18.5414 52.0562 16.607 49.6701 16.607Z" fill="#555A66"/>
<path d="M31.9995 45.378C39.1854 45.378 45.0108 39.5526 45.0108 32.3667C45.0108 25.1808 39.1854 19.3555 31.9995 19.3555C24.8136 19.3555 18.9883 25.1808 18.9883 32.3667C18.9883 39.5526 24.8136 45.378 31.9995 45.378Z" fill="#9196AA"/>
<path d="M32 19.3555C31.9935 19.3555 31.987 19.3557 31.9805 19.3557V45.3778C31.987 45.3778 31.9935 45.3781 32 45.3781C39.1858 45.3781 45.0112 39.5527 45.0112 32.3668C45.0112 25.181 39.1858 19.3555 32 19.3555Z" fill="#707789"/>
<path d="M32.0002 40.7758C36.6451 40.7758 40.4106 37.0104 40.4106 32.3655C40.4106 27.7205 36.6451 23.9551 32.0002 23.9551C27.3553 23.9551 23.5898 27.7205 23.5898 32.3655C23.5898 37.0104 27.3553 40.7758 32.0002 40.7758Z" fill="#414952"/>
<path d="M32 23.9551C31.9935 23.9551 31.987 23.9556 31.9805 23.9556V40.7753C31.987 40.7753 31.9933 40.7758 32 40.7758C36.6448 40.7758 40.4103 37.0103 40.4103 32.3655C40.4103 27.7206 36.6448 23.9551 32 23.9551Z" fill="#23272B"/>
<path d="M37.2953 16.4514H26.707L27.724 13.4922H36.2783L37.2953 16.4514Z" fill="#BEC3D2"/>
<path d="M36.2771 13.4922H31.9805V16.4514H37.2941L36.2771 13.4922Z" fill="#9196AA"/>
<path d="M44.4023 20.4141H51.8141V24.6493H44.4023V20.4141Z" fill="#9196AA"/>
<path d="M15.4082 44.2774C16.7577 44.2774 17.8516 43.1834 17.8516 41.834C17.8516 40.4846 16.7577 39.3906 15.4082 39.3906C14.0588 39.3906 12.9648 40.4846 12.9648 41.834C12.9648 43.1834 14.0588 44.2774 15.4082 44.2774Z" fill="#BEC3D2"/>
<path d="M27.5843 29.7546C28.4615 29.7546 29.1726 29.0435 29.1726 28.1664C29.1726 27.2892 28.4615 26.5781 27.5843 26.5781C26.7072 26.5781 25.9961 27.2892 25.9961 28.1664C25.9961 29.0435 26.7072 29.7546 27.5843 29.7546Z" fill="white"/>
<path d="M29.5904 34.3527C30.8097 34.3527 31.7981 33.3644 31.7981 32.1451C31.7981 30.9259 30.8097 29.9375 29.5904 29.9375C28.3712 29.9375 27.3828 30.9259 27.3828 32.1451C27.3828 33.3644 28.3712 34.3527 29.5904 34.3527Z" fill="white"/>
</svg>
