<svg width="54" height="55" viewBox="0 0 54 55" fill="none" xmlns="http://www.w3.org/2000/svg">
<path d="M26.9326 50.1421C39.359 50.1421 49.4326 40.0953 49.4326 27.7019C49.4326 15.3085 39.359 5.26172 26.9326 5.26172C14.5062 5.26172 4.43262 15.3085 4.43262 27.7019C4.43262 40.0953 14.5062 50.1421 26.9326 50.1421Z" fill="#4791FF"/>
<path d="M33.6826 23.7317L27.1576 19.9842C25.5376 19.0417 23.5801 19.0417 21.9601 19.9842C20.3401 20.9267 19.3726 22.5873 19.3726 24.4722V31.9897C19.3726 33.8522 20.3401 35.5353 21.9601 36.4777C22.7701 36.949 23.6701 37.1734 24.5476 37.1734C25.4476 37.1734 26.3251 36.949 27.1351 36.4777L33.6601 32.7302C35.2801 31.7877 36.2476 30.1272 36.2476 28.2422C36.2926 26.3572 35.3251 24.6742 33.6826 23.7317Z" fill="white"/>
</svg>
