<svg width="48" height="48" viewBox="0 0 48 48" fill="none" xmlns="http://www.w3.org/2000/svg">
<circle cx="24" cy="24" r="24" fill="#4791FF"/>
<path d="M33.9656 11.6428H30.6056C29.1542 11.6428 28.2856 12.5114 28.2856 13.9628V17.3228C28.2856 18.7743 29.1542 19.6428 30.6056 19.6428H33.9656C35.4171 19.6428 36.2856 18.7743 36.2856 17.3228V13.9628C36.2856 12.5114 35.4171 11.6428 33.9656 11.6428ZM31.7256 18.0085C31.6914 18.0428 31.6114 18.0885 31.5542 18.0885L30.3656 18.26C30.3314 18.2714 30.2856 18.2714 30.2514 18.2714C30.0799 18.2714 29.9314 18.2143 29.8285 18.1C29.6914 17.9628 29.6342 17.7685 29.6685 17.5628L29.8399 16.3743C29.8514 16.3171 29.8856 16.2371 29.9199 16.2028L31.8628 14.26C31.8971 14.34 31.9314 14.4314 31.9656 14.5228C32.0114 14.6143 32.0571 14.6943 32.1028 14.7743C32.1371 14.8428 32.1828 14.9114 32.2285 14.9571C32.2742 15.0257 32.3199 15.0943 32.3542 15.1285C32.3771 15.1628 32.3885 15.1743 32.3999 15.1857C32.5028 15.3114 32.6171 15.4257 32.7199 15.5057C32.7428 15.5285 32.7656 15.5514 32.7771 15.5514C32.8342 15.5971 32.9028 15.6543 32.9485 15.6885C33.0171 15.7343 33.0742 15.78 33.1428 15.8143C33.2228 15.86 33.3142 15.9057 33.4056 15.9514C33.4971 15.9971 33.5885 16.0314 33.6685 16.0543L31.7256 18.0085ZM34.4571 15.2771L34.0914 15.6428C34.0685 15.6771 34.0342 15.6885 33.9999 15.6885C33.9885 15.6885 33.9771 15.6885 33.9656 15.6885C33.1428 15.4485 32.4914 14.7971 32.2514 13.9743C32.2399 13.9285 32.2514 13.8828 32.2856 13.8485L32.6628 13.4714C33.2799 12.8543 33.8628 12.8657 34.4685 13.4714C34.7771 13.78 34.9256 14.0771 34.9256 14.3743C34.9142 14.6714 34.7656 14.9685 34.4571 15.2771Z" fill="white"/>
<path d="M20.2857 22.3629C21.7879 22.3629 23.0057 21.1451 23.0057 19.6429C23.0057 18.1406 21.7879 16.9229 20.2857 16.9229C18.7835 16.9229 17.5657 18.1406 17.5657 19.6429C17.5657 21.1451 18.7835 22.3629 20.2857 22.3629Z" fill="white"/>
<path d="M33.9658 19.643H33.4286V24.9116L33.2801 24.7859C32.3886 24.0202 30.9486 24.0202 30.0572 24.7859L25.3029 28.8659C24.4115 29.6316 22.9715 29.6316 22.0801 28.8659L21.6915 28.5459C20.8801 27.8373 19.5886 27.7687 18.6743 28.3859L14.4001 31.2545C14.1486 30.6145 14.0001 29.8716 14.0001 29.003V19.4259C14.0001 16.203 15.7029 14.5002 18.9258 14.5002H28.2858V13.963C28.2858 13.5059 28.3658 13.1173 28.5486 12.7859H18.9258C14.7658 12.7859 12.2858 15.2659 12.2858 19.4259V29.003C12.2858 30.2487 12.5029 31.3345 12.9258 32.2487C13.9086 34.4202 16.0115 35.643 18.9258 35.643H28.5029C32.6629 35.643 35.1429 33.163 35.1429 29.003V19.3802C34.8115 19.563 34.4229 19.643 33.9658 19.643Z" fill="white"/>
</svg>
