<svg width="81" height="70" viewBox="0 0 81 70" fill="none" xmlns="http://www.w3.org/2000/svg">
<circle opacity="0.1" cx="45.875" cy="35" r="35" fill="#FF642B"/>
<path d="M55.0939 20.0566H48.9827C46.7533 20.0566 44.9017 21.9338 44.4865 24.1107C44.3916 24.6079 44.8098 25.0219 45.3161 25.0219H52.0383C52.6647 25.0219 53.1841 25.5414 53.1841 26.1678C53.1841 26.7941 52.6647 27.3136 52.0383 27.3136H45.3161C44.8098 27.3136 44.3994 27.724 44.3994 28.2303V30.2164C44.3994 30.7226 44.8098 31.133 45.3161 31.133H48.6925C49.3189 31.133 49.8383 31.6525 49.8383 32.2789C49.8383 32.9053 49.3189 33.4247 48.6925 33.4247H45.3161C44.8098 33.4247 44.3994 33.8351 44.3994 34.3414V36.2602C44.3994 36.7629 44.8043 37.1718 45.3069 37.1768L52.0383 37.2441C52.68 37.2441 53.1841 37.7636 53.1841 38.4053C53.1689 39.0316 52.6647 39.5358 52.0383 39.5358C52.023 39.5358 52.023 39.5358 52.023 39.5358L45.3253 39.4687C44.8154 39.4636 44.3994 39.8755 44.3994 40.3853V42.4386C44.3994 42.9448 44.8098 43.3553 45.3161 43.3553H50.3577C50.9994 43.3553 51.5036 43.8747 51.5036 44.5011C51.5036 45.1275 50.9994 45.6469 50.3577 45.6469H45.3161C44.8098 45.6469 44.3916 46.0609 44.4865 46.5582C44.9017 48.735 46.7533 50.6122 48.9827 50.6122H55.0939C57.6147 50.6122 59.6772 48.565 59.6772 46.0289V24.64C59.6772 22.1039 57.6147 20.0566 55.0939 20.0566Z" fill="#FF642B"/>
<path d="M39.7674 24.5636V25.633C39.7674 26.1393 39.357 26.5497 38.8508 26.5497H31.6549C31.1487 26.5497 30.7383 26.1393 30.7383 25.633V24.5636C30.7383 22.0886 32.7702 20.0566 35.2605 20.0566C37.7355 20.0566 39.7674 22.0886 39.7674 24.5636Z" fill="#FF642B"/>
<path d="M30.7383 44.3621C30.7383 45.0496 31.0286 46.1037 31.3952 46.6843L32.6327 48.7621C34.0841 51.176 36.4369 51.176 37.873 48.7621L39.1258 46.6843C39.4772 46.1037 39.7674 45.0496 39.7674 44.3621V29.7565C39.7674 29.2502 39.357 28.8398 38.8508 28.8398H31.6549C31.1487 28.8398 30.7383 29.2502 30.7383 29.7565V44.3621Z" fill="#FF642B"/>
</svg>
