<svg width="37" height="37" viewBox="0 0 37 37" fill="none" xmlns="http://www.w3.org/2000/svg">
<circle opacity="0.1" cx="18.0039" cy="18.5" r="18" fill="#FF642B"/>
<path d="M26.3538 23.0169L23.7454 16.9169C23.2704 15.8002 22.5621 15.1669 21.7538 15.1252C20.9538 15.0836 20.1788 15.6419 19.5871 16.7086L18.0038 19.5502C17.6704 20.1502 17.1954 20.5086 16.6788 20.5502C16.1538 20.6002 15.6288 20.3252 15.2038 19.7836L15.0204 19.5502C14.4288 18.8086 13.6954 18.4502 12.9454 18.5252C12.1954 18.6002 11.5538 19.1169 11.1288 19.9586L9.68711 22.8336C9.17044 23.8752 9.22044 25.0836 9.82878 26.0669C10.4371 27.0502 11.4954 27.6419 12.6538 27.6419H23.2871C24.4038 27.6419 25.4454 27.0836 26.0621 26.1502C26.6954 25.2169 26.7954 24.0419 26.3538 23.0169Z" fill="#FF642B"/>
<path d="M13.8123 15.9829C15.3679 15.9829 16.6289 14.7219 16.6289 13.1663C16.6289 11.6107 15.3679 10.3496 13.8123 10.3496C12.2567 10.3496 10.9956 11.6107 10.9956 13.1663C10.9956 14.7219 12.2567 15.9829 13.8123 15.9829Z" fill="#FF642B"/>
</svg>
