<svg width="48" height="48" viewBox="0 0 48 48" fill="none" xmlns="http://www.w3.org/2000/svg">
<circle cx="24" cy="24" r="24" fill="#4791FF"/>
<path d="M33.9657 11.6426H30.6057C29.1543 11.6426 28.2857 12.5111 28.2857 13.9626V17.3226C28.2857 18.774 29.1543 19.6426 30.6057 19.6426H33.9657C35.4171 19.6426 36.2857 18.774 36.2857 17.3226V13.9626C36.2857 12.5111 35.4171 11.6426 33.9657 11.6426ZM31.7257 18.0083C31.6914 18.0426 31.6114 18.0883 31.5543 18.0883L30.3657 18.2597C30.3314 18.2711 30.2857 18.2711 30.2514 18.2711C30.08 18.2711 29.9314 18.214 29.8286 18.0997C29.6914 17.9626 29.6343 17.7683 29.6686 17.5626L29.84 16.374C29.8514 16.3169 29.8857 16.2369 29.92 16.2026L31.8628 14.2597C31.8971 14.3397 31.9314 14.4311 31.9657 14.5226C32.0114 14.614 32.0571 14.694 32.1028 14.774C32.1371 14.8426 32.1828 14.9111 32.2286 14.9569C32.2743 15.0254 32.32 15.094 32.3543 15.1283C32.3771 15.1626 32.3886 15.174 32.4 15.1854C32.5028 15.3111 32.6171 15.4254 32.72 15.5054C32.7428 15.5283 32.7657 15.5511 32.7771 15.5511C32.8343 15.5969 32.9028 15.654 32.9486 15.6883C33.0171 15.734 33.0743 15.7797 33.1428 15.814C33.2228 15.8597 33.3143 15.9054 33.4057 15.9511C33.4971 15.9969 33.5886 16.0311 33.6686 16.054L31.7257 18.0083ZM34.4571 15.2769L34.0914 15.6426C34.0686 15.6769 34.0343 15.6883 34 15.6883C33.9886 15.6883 33.9771 15.6883 33.9657 15.6883C33.1428 15.4483 32.4914 14.7969 32.2514 13.974C32.24 13.9283 32.2514 13.8826 32.2857 13.8483L32.6628 13.4711C33.28 12.854 33.8628 12.8654 34.4686 13.4711C34.7771 13.7797 34.9257 14.0769 34.9257 14.374C34.9143 14.6711 34.7657 14.9683 34.4571 15.2769Z" fill="white"/>
<path d="M20.286 22.3629C21.7882 22.3629 23.006 21.1451 23.006 19.6429C23.006 18.1406 21.7882 16.9229 20.286 16.9229C18.7838 16.9229 17.566 18.1406 17.566 19.6429C17.566 21.1451 18.7838 22.3629 20.286 22.3629Z" fill="white"/>
<path d="M33.9656 19.6423H33.4284V24.9109L33.2799 24.7852C32.3884 24.0194 30.9484 24.0194 30.057 24.7852L25.3027 28.8652C24.4113 29.6309 22.9713 29.6309 22.0799 28.8652L21.6913 28.5452C20.8799 27.8366 19.5884 27.768 18.6742 28.3852L14.3999 31.2537C14.1484 30.6137 13.9999 29.8709 13.9999 29.0023V19.4252C13.9999 16.2023 15.7027 14.4994 18.9256 14.4994H28.2856V13.9623C28.2856 13.5052 28.3656 13.1166 28.5484 12.7852H18.9256C14.7656 12.7852 12.2856 15.2652 12.2856 19.4252V29.0023C12.2856 30.248 12.5027 31.3337 12.9256 32.248C13.9084 34.4194 16.0113 35.6423 18.9256 35.6423H28.5027C32.6627 35.6423 35.1427 33.1623 35.1427 29.0023V19.3794C34.8113 19.5623 34.4227 19.6423 33.9656 19.6423Z" fill="white"/>
</svg>
