<svg width="29" height="29" viewBox="0 0 29 29" fill="none" xmlns="http://www.w3.org/2000/svg">
<g clip-path="url(#clip0_336_123853)">
<path d="M1.61743 20.2148H27.3597L27.2853 20.9613C27.0551 22.8034 25.7454 23.8789 24.4144 23.8789H4.56268C3.05845 23.8789 1.88097 22.5839 1.69345 20.975C1.69137 20.9583 1.70171 21.0603 1.61743 20.2148Z" fill="white"/>
<path d="M28.4823 8.96585L27.5237 18.5744H1.4545L0.518358 9.16983C0.267779 6.96445 2.64652 5.94513 3.7447 7.2071C6.38682 10.2536 6.66966 10.855 7.55724 10.7492C7.89083 10.7086 8.12922 10.5592 8.32719 10.3768C13.7064 5.21593 13.3546 5.55012 13.41 5.50632C14.134 4.94938 15.065 5.04125 15.6105 5.49538C21.0458 10.0626 20.794 9.86141 20.9153 9.93053C21.4228 10.2222 22.0213 10.185 22.5329 9.68335C25.5535 6.71535 25.3619 6.9003 25.418 6.85546C26.7997 5.77964 28.7035 7.0298 28.4823 8.96585Z" fill="white"/>
</g>
<defs>
<clipPath id="clip0_336_123853">
<rect width="28" height="28" fill="white" transform="translate(0.5 0.5)"/>
</clipPath>
</defs>
</svg>
