<svg width="24" height="24" viewBox="0 0 24 24" fill="none" xmlns="http://www.w3.org/2000/svg">
<path d="M12 22C17.5228 22 22 17.5228 22 12C22 6.47715 17.5228 2 12 2C6.47715 2 2 6.47715 2 12C2 17.5228 6.47715 22 12 22Z" stroke="#002280" stroke-width="1.5" stroke-linecap="round" stroke-linejoin="round"/>
<path d="M16.3409 9.15909L15.9432 10.5625H8.49432L8.89205 9.15909H16.3409ZM12.7159 18L8.64773 13.0625L8.63636 11.9545H10.6534C11.1572 11.9545 11.5833 11.8769 11.9318 11.7216C12.2803 11.5663 12.5455 11.3409 12.7273 11.0455C12.9091 10.7462 13 10.3826 13 9.95455C13 9.31818 12.8106 8.8125 12.4318 8.4375C12.053 8.0625 11.4602 7.875 10.6534 7.875H8.49432L8.90909 6.36364H10.6534C11.5928 6.36364 12.3674 6.51326 12.9773 6.8125C13.5871 7.11174 14.0417 7.52651 14.3409 8.05682C14.6402 8.58712 14.7898 9.19886 14.7898 9.89205C14.7898 10.5095 14.6667 11.0682 14.4205 11.5682C14.1742 12.0682 13.7822 12.4754 13.2443 12.7898C12.7064 13.1042 12 13.2879 11.125 13.3409L11.0739 13.3523L14.7898 17.9034V18H12.7159ZM16.3466 6.36364L15.9432 7.77841L9.98864 7.74432L10.392 6.36364H16.3466Z" fill="#002280"/>
</svg>
