<svg width="71" height="70" viewBox="0 0 71 70" fill="none" xmlns="http://www.w3.org/2000/svg">
<path opacity="0.2" d="M35.5002 64.1966C51.6085 64.1966 64.6668 51.1383 64.6668 35.0299C64.6668 18.9216 51.6085 5.86328 35.5002 5.86328C19.3919 5.86328 6.3335 18.9216 6.3335 35.0299C6.3335 51.1383 19.3919 64.1966 35.5002 64.1966Z" fill="#FF4746"/>
<path d="M35.5 20.2402C29.4625 20.2402 24.5625 25.1402 24.5625 31.1777C24.5625 37.0986 29.2 41.9111 35.3542 42.0861C35.4417 42.0861 35.5583 42.0861 35.6167 42.0861C35.675 42.0861 35.7625 42.0861 35.8208 42.0861C35.85 42.0861 35.8792 42.0861 35.8792 42.0861C41.7708 41.8819 46.4083 37.0986 46.4375 31.1777C46.4375 25.1402 41.5375 20.2402 35.5 20.2402Z" fill="#FF4746"/>
<path d="M55.2751 56.4659C50.0834 61.2492 43.1418 64.1951 35.5001 64.1951C27.8584 64.1951 20.9168 61.2492 15.7251 56.4659C16.4251 53.8117 18.3209 51.3909 21.0918 49.5242C29.0543 44.2159 42.0043 44.2159 49.9084 49.5242C52.7084 51.3909 54.5751 53.8117 55.2751 56.4659Z" fill="#FF4746"/>
</svg>
