<svg width="24" height="24" viewBox="0 0 24 24" fill="none" xmlns="http://www.w3.org/2000/svg">
<path d="M12.1187 12.7844C12.0487 12.7744 11.9587 12.7744 11.8787 12.7844C10.1187 12.7244 8.71875 11.2844 8.71875 9.51438C8.71875 7.70438 10.1787 6.23438 11.9987 6.23438C13.8087 6.23438 15.2787 7.70438 15.2787 9.51438C15.2687 11.2844 13.8787 12.7244 12.1187 12.7844Z" stroke="#002280" stroke-width="1.5" stroke-linecap="round" stroke-linejoin="round"/>
<path d="M18.7378 19.3825C16.9578 21.0125 14.5978 22.0025 11.9978 22.0025C9.39781 22.0025 7.03781 21.0125 5.25781 19.3825C5.35781 18.4425 5.95781 17.5225 7.02781 16.8025C9.76781 14.9825 14.2478 14.9825 16.9678 16.8025C18.0378 17.5225 18.6378 18.4425 18.7378 19.3825Z" stroke="#002280" stroke-width="1.5" stroke-linecap="round" stroke-linejoin="round"/>
<path d="M12 22C17.5228 22 22 17.5228 22 12C22 6.47715 17.5228 2 12 2C6.47715 2 2 6.47715 2 12C2 17.5228 6.47715 22 12 22Z" stroke="#002280" stroke-width="1.5" stroke-linecap="round" stroke-linejoin="round"/>
</svg>
