<svg width="24" height="25" viewBox="0 0 24 25" fill="none" xmlns="http://www.w3.org/2000/svg">
<path opacity="0.4" d="M9 2.48438C6.38 2.48438 4.25 4.61438 4.25 7.23438C4.25 9.80437 6.26 11.8844 8.88 11.9744C8.96 11.9644 9.04 11.9644 9.1 11.9744C9.12 11.9744 9.13 11.9744 9.15 11.9744C9.16 11.9744 9.16 11.9744 9.17 11.9744C11.73 11.8844 13.74 9.80437 13.75 7.23438C13.75 4.61438 11.62 2.48438 9 2.48438Z" fill="white"/>
<path d="M14.08 14.6352C11.29 12.7752 6.73996 12.7752 3.92996 14.6352C2.65996 15.4852 1.95996 16.6352 1.95996 17.8652C1.95996 19.0952 2.65996 20.2352 3.91996 21.0752C5.31996 22.0152 7.15996 22.4852 8.99996 22.4852C10.84 22.4852 12.68 22.0152 14.08 21.0752C15.34 20.2252 16.04 19.0852 16.04 17.8452C16.03 16.6152 15.34 15.4752 14.08 14.6352Z" fill="white"/>
<path opacity="0.4" d="M19.9904 7.82447C20.1504 9.76447 18.7704 11.4645 16.8604 11.6945C16.8504 11.6945 16.8504 11.6945 16.8404 11.6945H16.8104C16.7504 11.6945 16.6904 11.6945 16.6404 11.7145C15.6704 11.7645 14.7804 11.4545 14.1104 10.8845C15.1404 9.96447 15.7304 8.58447 15.6104 7.08447C15.5404 6.27447 15.2604 5.53447 14.8404 4.90447C15.2204 4.71447 15.6604 4.59447 16.1104 4.55447C18.0704 4.38447 19.8204 5.84447 19.9904 7.82447Z" fill="white"/>
<path d="M21.9902 17.0748C21.9102 18.0448 21.2902 18.8848 20.2502 19.4548C19.2502 20.0048 17.9902 20.2648 16.7402 20.2348C17.4602 19.5848 17.8802 18.7748 17.9602 17.9148C18.0602 16.6748 17.4702 15.4848 16.2902 14.5348C15.6202 14.0048 14.8402 13.5848 13.9902 13.2748C16.2002 12.6348 18.9802 13.0648 20.6902 14.4448C21.6102 15.1848 22.0802 16.1148 21.9902 17.0748Z" fill="white"/>
</svg>
