<svg width="36" height="37" viewBox="0 0 36 37" fill="none" xmlns="http://www.w3.org/2000/svg">
<circle opacity="0.1" cx="18" cy="18.5" r="18" fill="#FF642B"/>
<path d="M23.3914 10.668H20.0581C18.8421 10.668 17.8321 11.6919 17.6056 12.8792C17.5539 13.1505 17.782 13.3763 18.0581 13.3763H21.7248C22.0664 13.3763 22.3498 13.6596 22.3498 14.0013C22.3498 14.343 22.0664 14.6263 21.7248 14.6263H18.0581C17.782 14.6263 17.5581 14.8502 17.5581 15.1263V16.2096C17.5581 16.4858 17.782 16.7096 18.0581 16.7096H19.8998C20.2414 16.7096 20.5248 16.993 20.5248 17.3346C20.5248 17.6763 20.2414 17.9596 19.8998 17.9596H18.0581C17.782 17.9596 17.5581 18.1835 17.5581 18.4596V19.5063C17.5581 19.7805 17.7789 20.0035 18.0531 20.0063L21.7248 20.043C22.0748 20.043 22.3498 20.3263 22.3498 20.6763C22.3414 21.018 22.0664 21.293 21.7248 21.293C21.7164 21.293 21.7164 21.293 21.7164 21.293L18.0631 21.2564C17.785 21.2536 17.5581 21.4782 17.5581 21.7563V22.8763C17.5581 23.1524 17.782 23.3763 18.0581 23.3763H20.8081C21.1581 23.3763 21.4331 23.6596 21.4331 24.0013C21.4331 24.343 21.1581 24.6263 20.8081 24.6263H18.0581C17.782 24.6263 17.5539 24.8521 17.6056 25.1234C17.8321 26.3107 18.8421 27.3346 20.0581 27.3346H23.3914C24.7664 27.3346 25.8914 26.218 25.8914 24.8346V13.168C25.8914 11.7846 24.7664 10.668 23.3914 10.668Z" fill="#FF642B"/>
<path d="M15.0334 13.1263V13.7096C15.0334 13.9858 14.8095 14.2096 14.5334 14.2096H10.6084C10.3323 14.2096 10.1084 13.9858 10.1084 13.7096V13.1263C10.1084 11.7763 11.2167 10.668 12.5751 10.668C13.9251 10.668 15.0334 11.7763 15.0334 13.1263Z" fill="#FF642B"/>
<path d="M10.1084 23.9237C10.1084 24.2987 10.2667 24.8737 10.4667 25.1904L11.1417 26.3237C11.9334 27.6404 13.2167 27.6404 14.0001 26.3237L14.6834 25.1904C14.8751 24.8737 15.0334 24.2987 15.0334 23.9237V15.957C15.0334 15.6809 14.8095 15.457 14.5334 15.457H10.6084C10.3323 15.457 10.1084 15.6809 10.1084 15.957V23.9237Z" fill="#FF642B"/>
</svg>
