<svg width="12" height="8" viewBox="0 0 12 8" fill="none" xmlns="http://www.w3.org/2000/svg">
<path d="M0.478516 6.51953H11.5109L11.479 6.81341C11.3804 7.53858 10.8191 7.962 10.2486 7.962H1.74077C1.09609 7.962 0.591461 7.45216 0.511094 6.81879C0.510203 6.8122 0.514633 6.85238 0.478516 6.51953Z" fill="#EE7402"/>
<path d="M11.9924 2.09118L11.5816 5.87253H0.409071L0.00786754 2.17146C-0.0995231 1.30356 0.919938 0.902414 1.39059 1.39905C2.52292 2.59797 2.64414 2.83465 3.02453 2.793C3.1675 2.77703 3.26966 2.71822 3.35451 2.64644C5.65989 0.615445 5.50912 0.746964 5.53286 0.729725C5.84313 0.510548 6.24215 0.546705 6.47591 0.72542C8.80534 2.52278 8.69741 2.44362 8.74942 2.47082C8.96692 2.5856 9.22342 2.57099 9.44266 2.37355C10.7372 1.20552 10.6551 1.27831 10.6791 1.26066C11.2713 0.83729 12.0872 1.32927 11.9924 2.09118Z" fill="#EE7402"/>
</svg>
