<svg width="26" height="25" viewBox="0 0 26 25" fill="none" xmlns="http://www.w3.org/2000/svg">
<path d="M7.08795 4.91449H6.2176V4.04413C6.2176 3.71128 5.93599 3.42969 5.60315 3.42969C5.27032 3.42969 4.98871 3.7113 4.98871 4.04413V4.91449H4.11835C3.7855 4.91449 3.50391 5.1961 3.50391 5.52893C3.50391 5.86177 3.78552 6.14338 4.11835 6.14338H4.98871V7.01373C4.98871 7.34659 5.27032 7.62818 5.60315 7.62818C5.93599 7.62818 6.2176 7.34657 6.2176 7.01373V6.14338H7.08795C7.42081 6.14338 7.7024 5.86177 7.7024 5.52893C7.70222 5.19608 7.42079 4.91449 7.08795 4.91449Z" fill="#002280"/>
<path d="M10.3904 5.53113C10.3904 2.89433 8.24003 0.769531 5.62879 0.769531C2.99199 0.769531 0.867188 2.91989 0.867188 5.53113C0.867188 8.14238 3.01754 10.2927 5.62879 10.2927C8.24003 10.2927 10.3904 8.16793 10.3904 5.53113ZM5.60319 9.14078C3.60639 9.14078 1.99354 7.52793 1.99354 5.53113C1.99354 3.53433 3.63194 1.92149 5.60319 1.92149C7.59999 1.92149 9.21283 3.53433 9.21283 5.53113C9.21283 7.52793 7.59999 9.14078 5.60319 9.14078Z" fill="#002280"/>
<path d="M21.6545 4.91406H19.1457C18.8128 4.91406 18.5312 5.19567 18.5312 5.52851C18.5312 5.86134 18.8129 6.14295 19.1457 6.14295H21.6545C21.9873 6.14295 22.2689 5.86134 22.2689 5.52851C22.2432 5.19565 21.9871 4.91406 21.6545 4.91406Z" fill="#002280"/>
<path d="M20.4022 0.742188C17.7654 0.742188 15.6406 2.89254 15.6406 5.50379C15.6406 8.11503 17.791 10.2654 20.4022 10.2654C23.0135 10.2654 25.1638 8.11503 25.1638 5.50379C25.1638 2.89272 23.0135 0.742188 20.4022 0.742188ZM20.4022 9.13899C18.4054 9.13899 16.7926 7.52614 16.7926 5.52934C16.7926 3.53254 18.4054 1.9197 20.4022 1.9197C22.399 1.9197 24.0119 3.53254 24.0119 5.52934C24.0119 7.52614 22.3735 9.13899 20.4022 9.13899Z" fill="#002280"/>
<path d="M21.5523 16.3085C21.194 16.3085 20.8355 16.4108 20.5539 16.5646C20.1956 15.899 19.4787 15.4381 18.6595 15.4381C18.3011 15.4381 17.9427 15.5405 17.6611 15.6942C17.3027 15.0287 16.5859 14.5678 15.7667 14.5678C15.5106 14.5678 15.2547 14.619 15.0243 14.6958V10.5997C15.0243 10.011 14.794 9.47327 14.3843 9.06363C13.9747 8.65399 13.4372 8.39807 12.8483 8.42363C11.6706 8.42363 10.6979 9.39647 10.6979 10.574V19.9948L9.72506 19.0219C8.98275 18.2796 7.83061 18.1771 6.98576 18.7659C6.47381 19.0987 6.14096 19.662 6.03861 20.2507C5.96182 20.8651 6.1154 21.4794 6.52506 21.9403L8.75221 24.5771C8.88025 24.7307 9.08507 24.8332 9.2899 24.8332C9.44347 24.8332 9.59705 24.7819 9.75061 24.6796C10.0578 24.4235 10.0835 23.9884 9.8274 23.6812L7.6258 21.0444C7.47222 20.8651 7.42097 20.6605 7.44651 20.43C7.47204 20.1996 7.60008 20.0203 7.77936 19.8923C8.08651 19.6874 8.49616 19.713 8.75221 19.9946L10.3394 21.5817C10.6465 21.8889 11.0817 21.9657 11.4658 21.8121C11.8497 21.6585 12.1058 21.2744 12.1058 20.8393L12.106 10.5997C12.106 10.1901 12.4388 9.85741 12.8483 9.85741C13.0531 9.85741 13.2322 9.9342 13.386 10.0878C13.5396 10.2413 13.6163 10.4206 13.6163 10.6255L13.6165 17.6655C13.6165 18.0494 13.9237 18.3567 14.3078 18.3567C14.6917 18.3567 14.999 18.0496 14.999 17.6655V16.6926C14.999 16.283 15.3319 15.9503 15.7413 15.9503C16.151 15.9503 16.4836 16.2832 16.4836 16.6926V18.5358C16.4836 18.9197 16.7908 19.2271 17.1749 19.2271C17.5588 19.2271 17.8661 18.9199 17.8661 18.5358V17.563C17.8661 17.1533 18.199 16.8207 18.6084 16.8207C19.0181 16.8208 19.402 17.1535 19.402 17.5632V19.4064C19.402 19.7903 19.7091 20.0976 20.0932 20.0976C20.4772 20.0976 20.7845 19.7905 20.7845 19.4064V18.5103V18.4335C20.7845 18.0238 21.1173 17.6912 21.5268 17.6912C21.9364 17.6912 22.2691 18.024 22.2691 18.4335V24.1423C22.2691 24.5262 22.5762 24.8335 22.9603 24.8335C23.3443 24.8335 23.6516 24.5264 23.6516 24.1423V18.4335C23.7027 17.256 22.7555 16.3087 21.5523 16.3087L21.5523 16.3085Z" fill="#002280"/>
</svg>
