<svg width="53" height="52" viewBox="0 0 53 52" fill="none" xmlns="http://www.w3.org/2000/svg">
<circle cx="26.8259" cy="26" r="26" fill="#F2F7FF"/>
<path d="M16.5243 20.6797L26.8259 26.6413L37.0576 20.7147" stroke="#4791FF" stroke-width="1.5" stroke-linecap="round" stroke-linejoin="round"/>
<path d="M26.8259 37.2145V26.6328" stroke="#4791FF" stroke-width="1.5" stroke-linecap="round" stroke-linejoin="round"/>
<path d="M38.0376 26.971V22.7009C38.0376 21.0909 36.8826 19.131 35.4709 18.3493L29.2409 14.8959C27.9109 14.1493 25.7409 14.1493 24.4109 14.8959L18.1809 18.3493C16.7692 19.131 15.6143 21.0909 15.6143 22.7009V29.3043C15.6143 30.9143 16.7692 32.8743 18.1809 33.656L24.4109 37.1093C25.0759 37.4826 25.9509 37.6693 26.8259 37.6693C27.7009 37.6693 28.5759 37.4826 29.2409 37.1093" stroke="#4791FF" stroke-width="1.5" stroke-linecap="round" stroke-linejoin="round"/>
<path d="M35.2259 36.9667C37.2878 36.9667 38.9592 35.2952 38.9592 33.2333C38.9592 31.1715 37.2878 29.5 35.2259 29.5C33.164 29.5 31.4926 31.1715 31.4926 33.2333C31.4926 35.2952 33.164 36.9667 35.2259 36.9667Z" stroke="#4791FF" stroke-width="1.5" stroke-linecap="round" stroke-linejoin="round"/>
<path d="M39.6592 37.6667L38.4926 36.5" stroke="#4791FF" stroke-width="1.5" stroke-linecap="round" stroke-linejoin="round"/>
</svg>
