<svg width="53" height="52" viewBox="0 0 53 52" fill="none" xmlns="http://www.w3.org/2000/svg">
<circle cx="26.8259" cy="26" r="26" fill="#F2F7FF"/>
<path d="M23.9093 28.0429C23.9093 29.1746 24.7843 30.0846 25.8577 30.0846H28.051C28.9843 30.0846 29.7426 29.2912 29.7426 28.2996C29.7426 27.2379 29.276 26.8529 28.5876 26.6079L25.076 25.3829C24.3876 25.1379 23.921 24.7646 23.921 23.6912C23.921 22.7112 24.6793 21.9062 25.6126 21.9062H27.806C28.8793 21.9062 29.7543 22.8163 29.7543 23.9479" stroke="#4791FF" stroke-width="1.5" stroke-linecap="round" stroke-linejoin="round"/>
<path d="M26.8259 20.75V31.25" stroke="#4791FF" stroke-width="1.5" stroke-linecap="round" stroke-linejoin="round"/>
<path d="M38.4926 26.0026C38.4926 32.4426 33.266 37.6693 26.826 37.6693C20.386 37.6693 15.1593 32.4426 15.1593 26.0026C15.1593 19.5626 20.386 14.3359 26.826 14.3359" stroke="#4791FF" stroke-width="1.5" stroke-linecap="round" stroke-linejoin="round"/>
<path d="M38.4926 19.0026V14.3359H33.8259" stroke="#4791FF" stroke-width="1.5" stroke-linecap="round" stroke-linejoin="round"/>
<path d="M32.6593 20.1693L38.4926 14.3359" stroke="#4791FF" stroke-width="1.5" stroke-linecap="round" stroke-linejoin="round"/>
</svg>
