<svg width="67" height="67" viewBox="0 0 67 67" fill="none" xmlns="http://www.w3.org/2000/svg">
<circle opacity="0.1" cx="33.7969" cy="33.3691" r="33" fill="#FF642B"/>
<path d="M41.6864 23.4799L33.0544 18.8354C32.1378 18.3465 31.053 18.3465 30.1364 18.8354L21.5197 23.4799C20.8933 23.8313 20.4961 24.5035 20.4961 25.2368C20.4961 25.9854 20.878 26.6576 21.5197 26.9937L30.1516 31.6382C30.61 31.8826 31.1141 32.0049 31.603 32.0049C32.0919 32.0049 32.6114 31.8826 33.0544 31.6382L41.6864 26.9937C42.3128 26.6576 42.71 25.9854 42.71 25.2368C42.71 24.5035 42.3128 23.8313 41.6864 23.4799Z" fill="#FF642B"/>
<path d="M28.7293 33.2578L20.7085 29.255C20.0821 28.9342 19.3793 28.98 18.7835 29.3314C18.203 29.6981 17.8516 30.3245 17.8516 31.012V38.5898C17.8516 39.9036 18.5849 41.08 19.7613 41.6759L27.7821 45.6786C28.0571 45.8161 28.3627 45.8925 28.6682 45.8925C29.0196 45.8925 29.3863 45.7856 29.7071 45.6023C30.2877 45.2356 30.6391 44.6092 30.6391 43.9217V36.3439C30.6238 35.03 29.8905 33.8536 28.7293 33.2578Z" fill="#FF642B"/>
<path d="M45.3503 31.012V34.7703C44.617 34.5564 43.8378 34.4648 43.0587 34.4648C40.9809 34.4648 38.949 35.1828 37.3448 36.4661C35.1448 38.1925 33.892 40.805 33.892 43.6314C33.892 44.38 33.9837 45.1286 34.1823 45.8467C33.9531 45.8161 33.724 45.7245 33.5101 45.587C32.9295 45.2356 32.5781 44.6092 32.5781 43.9217V36.3439C32.5781 35.03 33.3115 33.8536 34.4726 33.2578L42.4934 29.255C43.1198 28.9342 43.8226 28.98 44.4184 29.3314C44.999 29.6981 45.3503 30.3245 45.3503 31.012Z" fill="#FF642B"/>
<path d="M47.9206 38.7755C46.5609 37.4157 44.7581 36.7282 42.9706 36.7588C41.2442 36.7741 39.5179 37.4616 38.204 38.7755C37.2873 39.6768 36.6915 40.8074 36.4012 41.9838C36.2331 42.6255 36.172 43.2824 36.2179 43.9393V44.0157C36.2179 44.1227 36.2331 44.2143 36.2484 44.3366C36.2484 44.3366 36.2484 44.3366 36.2637 44.3518V44.3977C36.4012 45.8949 37.0429 47.3463 38.204 48.4921C39.9762 50.2643 42.4665 50.8602 44.7123 50.2949C45.3845 50.1268 46.0415 49.8518 46.6526 49.4852C47.1109 49.2255 47.5387 48.8893 47.9206 48.4921C49.0665 47.3463 49.7234 45.8949 49.8609 44.3824C49.8762 44.3824 49.8762 44.3518 49.8762 44.3366C49.9067 44.2296 49.9067 44.1074 49.9067 44.0005C49.9067 43.9852 49.922 43.9546 49.922 43.9241C50.0137 42.0755 49.3415 40.181 47.9206 38.7755ZM45.7054 46.2463C45.2623 46.6893 44.5442 46.6893 44.0859 46.2463L43.0776 45.238L42.0387 46.2768C41.5804 46.7352 40.8623 46.7352 40.4192 46.2768C39.9609 45.8338 39.9609 45.1157 40.4192 44.6574L41.4581 43.6185L40.4498 42.6102C40.0067 42.1518 40.0067 41.4338 40.4498 40.9907C40.9081 40.5324 41.6262 40.5324 42.0845 40.9907L43.0776 41.9991L44.0401 41.0213C44.4984 40.5782 45.2165 40.5782 45.6748 41.0213C46.1179 41.4796 46.1179 42.1977 45.6748 42.656L44.697 43.6185L45.7054 44.6116C46.1637 45.0699 46.1637 45.788 45.7054 46.2463Z" fill="#292D32"/>
</svg>
