<svg width="67" height="66" viewBox="0 0 67 66" fill="none" xmlns="http://www.w3.org/2000/svg">
<circle opacity="0.1" cx="33.5" cy="33" r="33" fill="#FF4746"/>
<path d="M32.0211 17.9033C33.1294 16.9691 34.9186 16.9691 35.9952 17.9033L38.4969 20.0408C38.9719 20.4366 39.8744 20.7691 40.5077 20.7691H43.1994C44.8777 20.7691 46.2552 22.1466 46.2552 23.8249V26.5166C46.2552 27.1499 46.5877 28.0366 46.9836 28.5116L49.1211 31.0133C50.0552 32.1216 50.0552 33.9108 49.1211 34.9874L46.9836 37.4891C46.5877 37.9641 46.2552 38.8508 46.2552 39.4841V42.1758C46.2552 43.8541 44.8777 45.2316 43.1994 45.2316H40.5077C39.8744 45.2316 38.9877 45.5641 38.5127 45.9599L36.0111 48.0974C34.9027 49.0316 33.1136 49.0316 32.0369 48.0974L29.5352 45.9599C29.0602 45.5641 28.1577 45.2316 27.5402 45.2316H24.7694C23.0911 45.2316 21.7136 43.8541 21.7136 42.1758V39.4683C21.7136 38.8508 21.3969 37.9483 21.0011 37.4891L18.8636 34.9716C17.9452 33.8791 17.9452 32.1058 18.8636 31.0133L21.0011 28.4958C21.3969 28.0208 21.7136 27.1341 21.7136 26.5166V23.8408C21.7136 22.1624 23.0911 20.7849 24.7694 20.7849H27.5086C28.1419 20.7849 29.0286 20.4524 29.5036 20.0566L32.0211 17.9033Z" fill="#FF4746"/>
<path d="M33.9998 40.735C33.129 40.735 32.4165 40.0225 32.4165 39.1517C32.4165 38.2809 33.1132 37.5684 33.9998 37.5684C34.8707 37.5684 35.5832 38.2809 35.5832 39.1517C35.5832 40.0225 34.8865 40.735 33.9998 40.735Z" fill="white"/>
<path d="M34 35.7476C33.3508 35.7476 32.8125 35.2092 32.8125 34.5601V26.8967C32.8125 26.2476 33.3508 25.7092 34 25.7092C34.6492 25.7092 35.1875 26.2476 35.1875 26.8967V34.5442C35.1875 35.2092 34.665 35.7476 34 35.7476Z" fill="white"/>
</svg>
