<svg width="71" height="70" viewBox="0 0 71 70" fill="none" xmlns="http://www.w3.org/2000/svg">
<circle opacity="0.1" cx="33.5" cy="33" r="33" fill="#FF4746"/>
<path d="M31.5208 17.8793C32.6291 16.9452 34.4183 16.9452 35.495 17.8793L37.9966 20.0168C38.4716 20.4127 39.3741 20.7452 40.0075 20.7452H42.6991C44.3775 20.7452 45.755 22.1227 45.755 23.801V26.4927C45.755 27.126 46.0875 28.0127 46.4833 28.4877L48.6208 30.9893C49.555 32.0977 49.555 33.8868 48.6208 34.9635L46.4833 37.4652C46.0875 37.9402 45.755 38.8268 45.755 39.4602V42.1518C45.755 43.8302 44.3775 45.2077 42.6991 45.2077H40.0075C39.3741 45.2077 38.4875 45.5402 38.0125 45.936L35.5108 48.0735C34.4025 49.0077 32.6133 49.0077 31.5366 48.0735L29.035 45.936C28.56 45.5402 27.6575 45.2077 27.04 45.2077H24.2691C22.5908 45.2077 21.2133 43.8302 21.2133 42.1518V39.4443C21.2133 38.8268 20.8966 37.9243 20.5008 37.4652L18.3633 34.9477C17.445 33.8552 17.445 32.0818 18.3633 30.9893L20.5008 28.4718C20.8966 27.9968 21.2133 27.1102 21.2133 26.4927V23.8168C21.2133 22.1385 22.5908 20.761 24.2691 20.761H27.0083C27.6416 20.761 28.5283 20.4285 29.0033 20.0327L31.5208 17.8793Z" fill="#FF4746"/>
<path d="M33.5001 40.7106C32.6292 40.7106 31.9167 39.9981 31.9167 39.1273C31.9167 38.2564 32.6134 37.5439 33.5001 37.5439C34.3709 37.5439 35.0834 38.2564 35.0834 39.1273C35.0834 39.9981 34.3867 40.7106 33.5001 40.7106Z" fill="white"/>
<path d="M33.5 35.7229C32.8508 35.7229 32.3125 35.1846 32.3125 34.5354V26.8721C32.3125 26.2229 32.8508 25.6846 33.5 25.6846C34.1492 25.6846 34.6875 26.2229 34.6875 26.8721V34.5196C34.6875 35.1846 34.165 35.7229 33.5 35.7229Z" fill="white"/>
</svg>
