<svg width="48" height="48" viewBox="0 0 48 48" fill="none" xmlns="http://www.w3.org/2000/svg">
<circle cx="23.625" cy="23.625" r="23.625" fill="#FF642A"/>
<path d="M27.75 12.75H18.75C14.8125 12.75 13.125 15 13.125 18.375V29.625C13.125 33 14.8125 35.25 18.75 35.25H27.75C31.6875 35.25 33.375 33 33.375 29.625V18.375C33.375 15 31.6875 12.75 27.75 12.75ZM18.75 24.2812H23.25C23.7113 24.2812 24.0938 24.6637 24.0938 25.125C24.0938 25.5863 23.7113 25.9688 23.25 25.9688H18.75C18.2888 25.9688 17.9062 25.5863 17.9062 25.125C17.9062 24.6637 18.2888 24.2812 18.75 24.2812ZM27.75 30.4688H18.75C18.2888 30.4688 17.9062 30.0863 17.9062 29.625C17.9062 29.1637 18.2888 28.7812 18.75 28.7812H27.75C28.2113 28.7812 28.5938 29.1637 28.5938 29.625C28.5938 30.0863 28.2113 30.4688 27.75 30.4688ZM30.5625 20.9062H28.3125C26.6025 20.9062 25.2188 19.5225 25.2188 17.8125V15.5625C25.2188 15.1012 25.6012 14.7188 26.0625 14.7188C26.5238 14.7188 26.9062 15.1012 26.9062 15.5625V17.8125C26.9062 18.5887 27.5363 19.2188 28.3125 19.2188H30.5625C31.0238 19.2188 31.4062 19.6013 31.4062 20.0625C31.4062 20.5237 31.0238 20.9062 30.5625 20.9062Z" fill="white"/>
</svg>
