<svg width="49" height="48" viewBox="0 0 49 48" fill="none" xmlns="http://www.w3.org/2000/svg">
<circle cx="24.125" cy="23.625" r="23.625" fill="#FF642A"/>
<path d="M28.25 12.75H19.25C15.3125 12.75 13.625 15 13.625 18.375V29.625C13.625 33 15.3125 35.25 19.25 35.25H28.25C32.1875 35.25 33.875 33 33.875 29.625V18.375C33.875 15 32.1875 12.75 28.25 12.75ZM19.25 24.2812H23.75C24.2113 24.2812 24.5938 24.6637 24.5938 25.125C24.5938 25.5863 24.2113 25.9688 23.75 25.9688H19.25C18.7888 25.9688 18.4062 25.5863 18.4062 25.125C18.4062 24.6637 18.7888 24.2812 19.25 24.2812ZM28.25 30.4688H19.25C18.7888 30.4688 18.4062 30.0863 18.4062 29.625C18.4062 29.1637 18.7888 28.7812 19.25 28.7812H28.25C28.7113 28.7812 29.0938 29.1637 29.0938 29.625C29.0938 30.0863 28.7113 30.4688 28.25 30.4688ZM31.0625 20.9062H28.8125C27.1025 20.9062 25.7188 19.5225 25.7188 17.8125V15.5625C25.7188 15.1012 26.1012 14.7188 26.5625 14.7188C27.0238 14.7188 27.4062 15.1012 27.4062 15.5625V17.8125C27.4062 18.5887 28.0363 19.2188 28.8125 19.2188H31.0625C31.5238 19.2188 31.9062 19.6013 31.9062 20.0625C31.9062 20.5237 31.5238 20.9062 31.0625 20.9062Z" fill="white"/>
</svg>
