<svg width="37" height="37" viewBox="0 0 37 37" fill="none" xmlns="http://www.w3.org/2000/svg">
<circle opacity="0.1" cx="17.7246" cy="18.2188" r="17.7188" fill="#FF642B"/>
<path d="M20.8184 10.0625H14.0684C11.1152 10.0625 9.84961 11.75 9.84961 14.2812V22.7188C9.84961 25.25 11.1152 26.9375 14.0684 26.9375H20.8184C23.7715 26.9375 25.0371 25.25 25.0371 22.7188V14.2812C25.0371 11.75 23.7715 10.0625 20.8184 10.0625ZM14.0684 18.7109H17.4434C17.7893 18.7109 18.0762 18.9978 18.0762 19.3438C18.0762 19.6897 17.7893 19.9766 17.4434 19.9766H14.0684C13.7224 19.9766 13.4355 19.6897 13.4355 19.3438C13.4355 18.9978 13.7224 18.7109 14.0684 18.7109ZM20.8184 23.3516H14.0684C13.7224 23.3516 13.4355 23.0647 13.4355 22.7188C13.4355 22.3728 13.7224 22.0859 14.0684 22.0859H20.8184C21.1643 22.0859 21.4512 22.3728 21.4512 22.7188C21.4512 23.0647 21.1643 23.3516 20.8184 23.3516ZM22.9277 16.1797H21.2402C19.9577 16.1797 18.9199 15.1419 18.9199 13.8594V12.1719C18.9199 11.8259 19.2068 11.5391 19.5527 11.5391C19.8987 11.5391 20.1855 11.8259 20.1855 12.1719V13.8594C20.1855 14.4416 20.658 14.9141 21.2402 14.9141H22.9277C23.2737 14.9141 23.5605 15.2009 23.5605 15.5469C23.5605 15.8928 23.2737 16.1797 22.9277 16.1797Z" fill="#FF642B"/>
</svg>
