<svg width="34" height="34" viewBox="0 0 34 34" fill="none" xmlns="http://www.w3.org/2000/svg">
<path opacity="0.4" d="M18.3318 8.64551H7.85638C5.55395 8.64551 3.66895 10.5305 3.66895 12.8329V28.1286C3.66895 30.081 5.06925 30.9157 6.77924 29.9598L12.0708 27.011C12.6363 26.7013 13.5519 26.7013 14.1039 27.011L19.3954 29.9598C21.1054 30.9157 22.5057 30.081 22.5057 28.1286V12.8329C22.5192 10.5305 20.6342 8.64551 18.3318 8.64551Z" fill="#A1B3C9"/>
<path d="M30.5983 7.60833V22.904C30.5983 24.8563 29.198 25.6777 27.488 24.7351L22.5196 21.9615V12.8326C22.5196 10.5301 20.6346 8.64512 18.3322 8.64512H11.748V7.60833C11.748 5.30591 13.6331 3.4209 15.9355 3.4209H26.4109C28.7133 3.4209 30.5983 5.30591 30.5983 7.60833Z" fill="#A1B3C9"/>
</svg>
