<svg width="24" height="24" viewBox="0 0 24 24" fill="none" xmlns="http://www.w3.org/2000/svg">
<path d="M20.9103 11.1203C20.9103 16.0103 17.3603 20.5903 12.5103 21.9303C12.1803 22.0203 11.8203 22.0203 11.4903 21.9303C6.64033 20.5903 3.09033 16.0103 3.09033 11.1203L3.09033 6.73028C3.09033 5.91028 3.71035 4.98028 4.48035 4.67028L10.0503 2.39031C11.3003 1.88031 12.7103 1.88031 13.9603 2.39031L19.5303 4.67028C20.2903 4.98028 20.9203 5.91028 20.9203 6.73028L20.9103 11.1203Z" stroke="#0D0849" stroke-width="1.25" stroke-linecap="round" stroke-linejoin="round"/>
<path d="M12 12.5C13.1046 12.5 14 11.6046 14 10.5C14 9.39543 13.1046 8.5 12 8.5C10.8954 8.5 10 9.39543 10 10.5C10 11.6046 10.8954 12.5 12 12.5Z" stroke="#0D0849" stroke-width="1.25" stroke-miterlimit="10" stroke-linecap="round" stroke-linejoin="round"/>
<path d="M12 12.5V15.5" stroke="#0D0849" stroke-width="1.25" stroke-miterlimit="10" stroke-linecap="round" stroke-linejoin="round"/>
</svg>
