<svg width="60" height="60" viewBox="0 0 60 60" fill="none" xmlns="http://www.w3.org/2000/svg">
<path d="M50.25 23.0496C45.725 23.0496 43.875 19.8496 46.125 15.9246C47.425 13.6496 46.65 10.7496 44.375 9.4496L40.05 6.9746C38.075 5.7996 35.525 6.4996 34.35 8.4746L34.075 8.9496C31.825 12.8746 28.125 12.8746 25.85 8.9496L25.575 8.4746C24.45 6.4996 21.9 5.7996 19.925 6.9746L15.6 9.4496C13.325 10.7496 12.55 13.6746 13.85 15.9496C16.125 19.8496 14.275 23.0496 9.75 23.0496C7.15 23.0496 5 25.1746 5 27.7996V32.1996C5 34.7996 7.125 36.9496 9.75 36.9496C14.275 36.9496 16.125 40.1496 13.85 44.0746C12.55 46.3496 13.325 49.2496 15.6 50.5496L19.925 53.0246C21.9 54.1996 24.45 53.4996 25.625 51.5246L25.9 51.0496C28.15 47.1246 31.85 47.1246 34.125 51.0496L34.4 51.5246C35.575 53.4996 38.125 54.1996 40.1 53.0246L44.425 50.5496C46.7 49.2496 47.475 46.3246 46.175 44.0746C43.9 40.1496 45.75 36.9496 50.275 36.9496C52.875 36.9496 55.025 34.8246 55.025 32.1996V27.7996C55 25.1996 52.875 23.0496 50.25 23.0496ZM30 38.1246C25.525 38.1246 21.875 34.4746 21.875 29.9996C21.875 25.5246 25.525 21.8746 30 21.8746C34.475 21.8746 38.125 25.5246 38.125 29.9996C38.125 34.4746 34.475 38.1246 30 38.1246Z" fill="#4791FF"/>
</svg>
