<svg width="60" height="60" viewBox="0 0 60 60" fill="none" xmlns="http://www.w3.org/2000/svg">
<path d="M47.3502 13.5496L34.4252 6.07461C31.9502 4.64961 28.0752 4.64961 25.6002 6.07461L12.5502 13.5996C7.3752 17.0996 7.0752 17.6246 7.0752 23.1996V36.7746C7.0752 42.3496 7.3752 42.8996 12.6502 46.4496L25.5752 53.9246C26.8252 54.6496 28.4252 54.9996 30.0002 54.9996C31.5752 54.9996 33.1752 54.6496 34.4002 53.9246L47.4502 46.3996C52.6252 42.8996 52.9252 42.3746 52.9252 36.7996V23.1996C52.9252 17.6246 52.6252 17.0996 47.3502 13.5496ZM30.0002 38.1246C25.5252 38.1246 21.8752 34.4746 21.8752 29.9996C21.8752 25.5246 25.5252 21.8746 30.0002 21.8746C34.4752 21.8746 38.1252 25.5246 38.1252 29.9996C38.1252 34.4746 34.4752 38.1246 30.0002 38.1246Z" fill="#4791FF"/>
</svg>
