<svg width="23" height="20" viewBox="0 0 23 20" fill="none" xmlns="http://www.w3.org/2000/svg">
<path d="M22.5754 17.5375C22.5754 16.5353 22.7902 12.5802 19.6702 9.44232C17.5704 7.33053 14.4277 6.96425 10.6695 6.79722V1.94899C10.6695 0.994946 9.53767 0.493584 8.83108 1.13462L0.56227 8.6363C0.0846001 9.06966 0.0807553 9.81918 0.553954 10.2574L8.82276 17.9152C9.52668 18.5671 10.6695 18.0679 10.6695 17.1085V12.295C13.0557 12.3607 14.7554 12.5124 16.2997 13.0037C19.2845 13.9533 21.0557 18.0252 21.5333 19.2655C21.6157 19.4794 21.8197 19.6255 22.0489 19.6255C22.343 19.6255 22.5813 19.3871 22.5804 19.0931C22.5787 18.5516 22.5754 17.9293 22.5754 17.5375Z" fill="#A1B3C9"/>
</svg>
