<svg width="24" height="25" viewBox="0 0 24 25" fill="none" xmlns="http://www.w3.org/2000/svg">
<path opacity="0.4" d="M21.0496 12.1941V18.1841C21.0496 20.9441 18.8096 23.1841 16.0496 23.1841H7.30957C7.07957 23.1841 6.84958 23.1641 6.62958 23.1341C6.99958 22.9741 7.32958 22.7541 7.62958 22.4841C7.66958 22.4541 7.69955 22.4241 7.72955 22.3841C7.99955 22.1541 8.22956 21.8641 8.41956 21.5441C8.78956 20.9441 8.99957 20.2341 8.99957 19.4841C8.99957 18.4341 8.58957 17.4841 7.92957 16.7641C7.82957 16.6541 7.71955 16.544 7.59955 16.454C6.89955 15.844 5.99957 15.4841 4.99957 15.4841C4.28957 15.4841 3.61955 15.6741 3.03955 16.0041C2.84955 16.1041 2.66957 16.2241 2.49957 16.3641C2.42957 16.4141 2.36957 16.4741 2.30957 16.5341V12.2641C3.06957 13.0841 4.14958 13.5541 5.31958 13.5541C6.57958 13.5541 7.78956 12.9241 8.54956 11.9141C9.22956 12.9241 10.3896 13.5541 11.6796 13.5541C12.9596 13.5541 14.0996 12.954 14.7896 11.954C15.5596 12.944 16.7496 13.5541 17.9896 13.5541C19.1996 13.5541 20.2996 13.0641 21.0496 12.1941Z" fill="white"/>
<path d="M14.67 2.05469H8.67002L7.93003 9.41467C7.87003 10.0947 7.97001 10.7347 8.22001 11.3147C8.80001 12.6747 10.16 13.5547 11.68 13.5547C13.22 13.5547 14.5501 12.6947 15.1501 11.3247C15.3301 10.8947 15.44 10.3947 15.45 9.8847V9.6947L14.67 2.05469Z" fill="white"/>
<path opacity="0.6" d="M22.0402 9.07495L21.7602 6.29492C21.3402 3.27492 19.9702 2.04492 17.0402 2.04492H13.2002L13.9402 9.54492C13.9502 9.64492 13.9602 9.75495 13.9602 9.94495C14.0202 10.4649 14.1802 10.9449 14.4202 11.3749C15.1402 12.6949 16.5402 13.5449 18.0002 13.5449C19.3302 13.5449 20.5302 12.9549 21.2802 11.9149C21.8702 11.1249 22.1402 10.115 22.0402 9.07495Z" fill="white"/>
<path opacity="0.6" d="M6.27031 2.05469C3.33031 2.05469 1.97027 3.28466 1.54027 6.33466L1.27031 9.08466C1.17031 10.1547 1.46032 11.1947 2.09032 12.0047C2.85032 12.9947 4.0203 13.5547 5.3203 13.5547C6.7803 13.5547 8.18031 12.7047 8.89031 11.4047C9.15031 10.9547 9.32029 10.4347 9.37029 9.89465L10.1503 2.0647H6.27031V2.05469Z" fill="white"/>
<path d="M7.92999 16.7644C7.82999 16.6544 7.71998 16.5443 7.59998 16.4543C6.89998 15.8443 6 15.4844 5 15.4844C4.29 15.4844 3.61998 15.6744 3.03998 16.0044C2.84998 16.1044 2.67 16.2244 2.5 16.3644C1.58 17.0944 1 18.2244 1 19.4844C1 20.2344 1.21002 20.9444 1.58002 21.5444C1.67002 21.7044 1.78002 21.8544 1.90002 21.9944C1.92002 22.0244 1.94997 22.0444 1.96997 22.0744C2.68997 22.9344 3.78 23.4844 5 23.4844C6.01 23.4844 6.93001 23.1144 7.63 22.4844C7.67 22.4544 7.69998 22.4244 7.72998 22.3844C7.99998 22.1544 8.22998 21.8644 8.41998 21.5444C8.78998 20.9444 9 20.2344 9 19.4844C9 18.4344 8.58999 17.4844 7.92999 16.7644ZM6.5 20.2144H5.75V20.9944C5.75 21.4044 5.41 21.7444 5 21.7444C4.59 21.7444 4.25 21.4044 4.25 20.9944V20.2144H3.5C3.09 20.2144 2.75 19.8744 2.75 19.4644C2.75 19.0544 3.09 18.7144 3.5 18.7144H4.25V18.0044C4.25 17.5944 4.59 17.2544 5 17.2544C5.41 17.2544 5.75 17.5944 5.75 18.0044V18.7144H6.5C6.91 18.7144 7.25 19.0544 7.25 19.4644C7.25 19.8744 6.91 20.2144 6.5 20.2144Z" fill="white"/>
</svg>
