<svg width="24" height="24" viewBox="0 0 24 24" fill="none" xmlns="http://www.w3.org/2000/svg">
<path d="M16 12.6899V18.0799C16 20.4199 14.44 21.9699 12.11 21.9699H5.89C3.56 21.9699 2 20.4199 2 18.0799L2 10.3099C2 7.96992 3.56 6.41992 5.89 6.41992H9.72C10.75 6.41992 11.74 6.82992 12.47 7.55992L14.86 9.93992C15.59 10.6699 16 11.6599 16 12.6899Z" stroke="#0D0849" stroke-width="1.25" stroke-linecap="round" stroke-linejoin="round"/>
<path d="M22 8.24875V13.6388C22 15.9688 20.44 17.5288 18.11 17.5288H16V12.6888C16 11.6588 15.59 10.6688 14.86 9.93875L12.47 7.55875C11.74 6.82875 10.75 6.41875 9.72 6.41875H8V5.85875C8 3.52875 9.56 1.96875 11.89 1.96875L15.72 1.96875C16.75 1.96875 17.74 2.37875 18.47 3.10875L20.86 5.49875C21.59 6.22875 22 7.21875 22 8.24875Z" stroke="#0D0849" stroke-width="1.25" stroke-linecap="round" stroke-linejoin="round"/>
</svg>
