<svg width="20" height="20" viewBox="0 0 20 20" fill="none" xmlns="http://www.w3.org/2000/svg">
<path d="M9.99984 17.0832H5.83317C3.33317 17.0832 1.6665 15.8332 1.6665 12.9165V7.08317C1.6665 4.1665 3.33317 2.9165 5.83317 2.9165H14.1665C16.6665 2.9165 18.3332 4.1665 18.3332 7.08317V9.58317" stroke="#5B6D8E" stroke-width="1.25" stroke-miterlimit="10" stroke-linecap="round" stroke-linejoin="round"/>
<path d="M14.1668 7.5L11.5585 9.58333C10.7002 10.2667 9.29183 10.2667 8.43349 9.58333L5.8335 7.5" stroke="#5B6D8E" stroke-width="1.25" stroke-miterlimit="10" stroke-linecap="round" stroke-linejoin="round"/>
<path d="M16.008 12.3081L13.0581 15.2581C12.9414 15.3747 12.833 15.5914 12.808 15.7497L12.6497 16.8748C12.5914 17.2831 12.8747 17.5664 13.283 17.5081L14.408 17.3498C14.5664 17.3248 14.7914 17.2164 14.8997 17.0997L17.8497 14.1498C18.3581 13.6414 18.5997 13.0498 17.8497 12.2998C17.1081 11.5581 16.5164 11.7997 16.008 12.3081Z" stroke="#5B6D8E" stroke-miterlimit="10" stroke-linecap="round" stroke-linejoin="round"/>
<path d="M15.583 12.7329C15.833 13.6329 16.533 14.3329 17.433 14.5829" stroke="#5B6D8E" stroke-miterlimit="10" stroke-linecap="round" stroke-linejoin="round"/>
</svg>
