<svg width="37" height="37" viewBox="0 0 37 37" fill="none" xmlns="http://www.w3.org/2000/svg">
<circle cx="18.5" cy="18.5" r="18.5" fill="#4791FF"/>
<path d="M12.0248 22.8433C12.1342 22.3426 11.9353 21.6271 11.5873 21.2694L9.1709 18.7859C8.41517 18.0092 8.11685 17.1814 8.33562 16.466C8.56433 15.7506 9.27034 15.26 10.3244 15.076L13.4269 14.5446C13.8744 14.4628 14.4213 14.054 14.6301 13.635L16.3405 10.1091C16.8377 9.09726 17.5138 8.53516 18.2497 8.53516C18.9855 8.53516 19.6617 9.09726 20.1589 10.1091L21.8693 13.635C21.9986 13.9007 22.267 14.1562 22.5554 14.33L11.8458 25.337C11.7066 25.4801 11.4679 25.3473 11.5077 25.1429L12.0248 22.8433Z" fill="white"/>
<path d="M24.9133 21.2715C24.5553 21.6394 24.3564 22.3446 24.4758 22.8454L25.1619 25.9217C25.4503 27.1992 25.2713 28.1599 24.6547 28.6198C24.4061 28.8037 24.1078 28.8957 23.7598 28.8957C23.2526 28.8957 22.656 28.7015 21.9997 28.3029L19.0862 26.5246C18.6287 26.2487 17.873 26.2487 17.4156 26.5246L14.502 28.3029C13.3982 28.9673 12.4536 29.0797 11.847 28.6198C11.6183 28.446 11.4492 28.211 11.3398 27.9044L23.4316 15.4767C23.8891 15.0066 24.5354 14.7919 25.1619 14.9044L26.1662 15.0781C27.2203 15.2621 27.9263 15.7526 28.155 16.468C28.3738 17.1834 28.0754 18.0113 27.3197 18.788L24.9133 21.2715Z" fill="white"/>
</svg>
