<svg width="24" height="24" viewBox="0 0 24 24" fill="none" xmlns="http://www.w3.org/2000/svg">
<path d="M5.7401 16C5.8501 15.51 5.6501 14.81 5.3001 14.46L2.8701 12.03C2.1101 11.27 1.8101 10.46 2.0301 9.76C2.2601 9.06 2.9701 8.58 4.0301 8.4L7.1501 7.88C7.6001 7.8 8.1501 7.4 8.3601 6.99L10.0801 3.54C10.5801 2.55 11.2601 2 12.0001 2C12.7401 2 13.4201 2.55 13.9201 3.54L15.6401 6.99C15.7701 7.25 16.0401 7.5 16.3301 7.67L5.5601 18.44C5.4201 18.58 5.1801 18.45 5.2201 18.25L5.7401 16Z" fill="#FFA300"/>
<path d="M18.7 14.4619C18.34 14.8219 18.14 15.5119 18.26 16.0019L18.95 19.0119C19.24 20.2619 19.06 21.2019 18.44 21.6519C18.19 21.8319 17.89 21.9219 17.54 21.9219C17.03 21.9219 16.43 21.7319 15.77 21.3419L12.84 19.6019C12.38 19.3319 11.62 19.3319 11.16 19.6019L8.23005 21.3419C7.12005 21.9919 6.17005 22.1019 5.56005 21.6519C5.33005 21.4819 5.16005 21.2519 5.05005 20.9519L17.21 8.79185C17.67 8.33185 18.32 8.12185 18.95 8.23185L19.96 8.40185C21.02 8.58185 21.73 9.06185 21.96 9.76185C22.18 10.4619 21.88 11.2719 21.12 12.0319L18.7 14.4619Z" fill="#FFA300"/>
</svg>
