<svg width="20" height="21" viewBox="0 0 20 21" fill="none" xmlns="http://www.w3.org/2000/svg">
<path opacity="0.4" d="M8.53371 12.7849C8.25871 12.5099 7.89204 12.3516 7.50038 12.3516H3.26704C2.75871 12.3516 2.29204 12.6099 2.02538 13.0432C1.75871 13.4682 1.73371 13.9766 1.95038 14.4266C2.97538 16.5266 4.82538 18.1766 7.02538 18.9516C7.17538 19.0016 7.34204 19.0349 7.50038 19.0349C7.79204 19.0349 8.08371 18.9432 8.33371 18.7682C8.72538 18.4932 8.95871 18.0432 8.95871 17.5682L8.96704 13.8182C8.95871 13.4266 8.80871 13.0599 8.53371 12.7849Z" fill="#FF642B"/>
<path d="M18.7329 8.49935C17.7996 4.39935 14.2079 1.54102 9.99961 1.54102C5.79128 1.54102 2.19961 4.39935 1.26628 8.49935C1.16628 8.93268 1.26628 9.37435 1.54961 9.72435C1.83295 10.0743 2.24961 10.2743 2.69961 10.2743H17.3079C17.7579 10.2743 18.1746 10.0743 18.4579 9.72435C18.7329 9.37435 18.8329 8.92435 18.7329 8.49935Z" fill="#FF642B"/>
<path opacity="0.4" d="M17.968 13.0833C17.7013 12.65 17.2346 12.3833 16.718 12.3833L12.5013 12.375C12.1096 12.375 11.743 12.525 11.468 12.8C11.193 13.075 11.043 13.4417 11.043 13.8333L11.0513 17.5667C11.0513 18.0417 11.2846 18.4917 11.6763 18.7667C11.9263 18.9417 12.218 19.0333 12.5096 19.0333C12.668 19.0333 12.8263 19.0083 12.9763 18.95C15.1596 18.1833 17.0096 16.5417 18.0346 14.4667C18.2513 14.025 18.2263 13.5083 17.968 13.0833Z" fill="#FF642B"/>
</svg>
