<svg width="12" height="12" viewBox="0 0 12 12" fill="none" xmlns="http://www.w3.org/2000/svg">
<path opacity="0.4" d="M2.0847 7.6499L4.3497 9.9149C5.2797 10.8449 6.7897 10.8449 7.7247 9.9149L9.9197 7.7199C10.8497 6.7899 10.8497 5.2799 9.9197 4.3449L7.6497 2.0849C7.1747 1.6099 6.5197 1.3549 5.8497 1.3899L3.3497 1.5099C2.3497 1.5549 1.5547 2.3499 1.5047 3.3449L1.3847 5.8449C1.3547 6.5199 1.6097 7.1749 2.0847 7.6499Z" fill="#0093D6"/>
<path d="M4.75006 6.19006C5.54535 6.19006 6.19006 5.54535 6.19006 4.75006C6.19006 3.95477 5.54535 3.31006 4.75006 3.31006C3.95477 3.31006 3.31006 3.95477 3.31006 4.75006C3.31006 5.54535 3.95477 6.19006 4.75006 6.19006Z" fill="#0093D6"/>
</svg>
