<svg width="21" height="20" viewBox="0 0 21 20" fill="none" xmlns="http://www.w3.org/2000/svg">
<path opacity="0.4" d="M4.301 12.7511L8.076 16.5261C9.626 18.0761 12.1427 18.0761 13.701 16.5261L17.3593 12.8678C18.9093 11.3178 18.9093 8.80114 17.3593 7.24281L13.576 3.47614C12.7843 2.68447 11.6927 2.25947 10.576 2.31781L6.40933 2.51781C4.74267 2.59281 3.41767 3.91781 3.33433 5.57614L3.13433 9.74281C3.08433 10.8678 3.50933 11.9595 4.301 12.7511Z" fill="#888888"/>
<path d="M8.74131 10.3156C10.0668 10.3156 11.1413 9.24111 11.1413 7.91563C11.1413 6.59014 10.0668 5.51562 8.74131 5.51562C7.41583 5.51562 6.34131 6.59014 6.34131 7.91563C6.34131 9.24111 7.41583 10.3156 8.74131 10.3156Z" fill="#888888"/>
</svg>
