<svg width="21" height="21" viewBox="0 0 21 21" fill="none" xmlns="http://www.w3.org/2000/svg">
<path opacity="0.4" d="M4.16282 13.2511L7.93782 17.0261C9.48782 18.5761 12.0045 18.5761 13.5628 17.0261L17.2212 13.3678C18.7712 11.8178 18.7712 9.30114 17.2212 7.74281L13.4378 3.97614C12.6462 3.18447 11.5545 2.75947 10.4378 2.81781L6.27115 3.01781C4.60448 3.09281 3.27948 4.41781 3.19615 6.07614L2.99615 10.2428C2.94615 11.3678 3.37115 12.4595 4.16282 13.2511Z" fill="#5B6D8E"/>
<path d="M8.60313 10.8156C9.92861 10.8156 11.0031 9.74111 11.0031 8.41563C11.0031 7.09014 9.92861 6.01562 8.60313 6.01562C7.27764 6.01562 6.20312 7.09014 6.20312 8.41563C6.20312 9.74111 7.27764 10.8156 8.60313 10.8156Z" fill="#5B6D8E"/>
</svg>
