<svg width="16" height="16" viewBox="0 0 16 16" fill="none" xmlns="http://www.w3.org/2000/svg">
<path d="M7.99973 3.10156C4.81306 3.10156 2.21973 5.6949 2.21973 8.88156C2.21973 12.0682 4.81306 14.6682 7.99973 14.6682C11.1864 14.6682 13.7797 12.0749 13.7797 8.88823C13.7797 5.70156 11.1864 3.10156 7.99973 3.10156ZM8.49973 8.66823C8.49973 8.94156 8.27306 9.16823 7.99973 9.16823C7.72639 9.16823 7.49973 8.94156 7.49973 8.66823V5.3349C7.49973 5.06156 7.72639 4.8349 7.99973 4.8349C8.27306 4.8349 8.49973 5.06156 8.49973 5.3349V8.66823Z" fill="#0093D6"/>
<path d="M9.92708 2.3026H6.07375C5.80708 2.3026 5.59375 2.08927 5.59375 1.8226C5.59375 1.55594 5.80708 1.33594 6.07375 1.33594H9.92708C10.1938 1.33594 10.4071 1.54927 10.4071 1.81594C10.4071 2.0826 10.1938 2.3026 9.92708 2.3026Z" fill="#0093D6"/>
</svg>
