<svg width="20" height="21" viewBox="0 0 20 21" fill="none" xmlns="http://www.w3.org/2000/svg">
<path d="M17.5 5.48405C14.725 5.20905 11.9333 5.06738 9.15 5.06738C7.5 5.06738 5.85 5.15072 4.2 5.31738L2.5 5.48405" stroke="#FF5C5C" stroke-width="1.25" stroke-linecap="round" stroke-linejoin="round"/>
<path d="M7.0835 4.64199L7.26683 3.55033C7.40016 2.75866 7.50016 2.16699 8.9085 2.16699H11.0918C12.5002 2.16699 12.6085 2.79199 12.7335 3.55866L12.9168 4.64199" stroke="#FF5C5C" stroke-width="1.25" stroke-linecap="round" stroke-linejoin="round"/>
<path d="M15.7082 8.11621L15.1665 16.5079C15.0748 17.8162 14.9998 18.8329 12.6748 18.8329H7.32484C4.99984 18.8329 4.92484 17.8162 4.83317 16.5079L4.2915 8.11621" stroke="#FF5C5C" stroke-width="1.25" stroke-linecap="round" stroke-linejoin="round"/>
<path d="M8.6084 14.25H11.3834" stroke="#FF5C5C" stroke-width="1.25" stroke-linecap="round" stroke-linejoin="round"/>
<path d="M7.9165 10.917H12.0832" stroke="#FF5C5C" stroke-width="1.25" stroke-linecap="round" stroke-linejoin="round"/>
</svg>
