<svg width="25" height="24" viewBox="0 0 25 24" fill="none" xmlns="http://www.w3.org/2000/svg">
<path opacity="0.4" d="M16.69 2H8.31C4.67 2 2.5 4.17 2.5 7.81V16.18C2.5 19.83 4.67 22 8.31 22H16.68C20.32 22 22.49 19.83 22.49 16.19V7.81C22.5 4.17 20.33 2 16.69 2Z" fill="#A4A4BE"/>
<path d="M17.3304 9.40998C17.2604 9.23998 17.1204 9.09998 16.9504 9.02998C16.8704 8.99998 16.7804 8.97998 16.6904 8.97998H14.8304C14.4404 8.97998 14.1304 9.28998 14.1304 9.67998C14.1304 10.07 14.4404 10.38 14.8304 10.38H15.0104L12.9004 12.49L11.8804 10.97C11.7604 10.8 11.5804 10.68 11.3704 10.66C11.1504 10.64 10.9604 10.71 10.8104 10.86L7.83043 13.84C7.56043 14.11 7.56043 14.55 7.83043 14.83C7.97043 14.97 8.14043 15.03 8.32043 15.03C8.50043 15.03 8.68043 14.96 8.81043 14.83L11.1904 12.45L12.2104 13.97C12.3304 14.14 12.5104 14.26 12.7204 14.28C12.9404 14.3 13.1304 14.23 13.2804 14.08L16.0004 11.36V11.54C16.0004 11.93 16.3104 12.24 16.7004 12.24C17.0904 12.24 17.4004 11.93 17.4004 11.54V9.66998C17.3804 9.57998 17.3704 9.48998 17.3304 9.40998Z" fill="#A4A4BE"/>
</svg>
