<svg width="24" height="25" viewBox="0 0 24 25" fill="none" xmlns="http://www.w3.org/2000/svg">
<path opacity="0.4" d="M15 3.48438V12.4844C15 13.5844 14.1 14.4844 13 14.4844H2V8.10437C2.73 8.97437 3.85003 9.51437 5.09003 9.48438C6.10003 9.46438 7.01 9.07438 7.69 8.42438C8 8.16438 8.26002 7.83437 8.46002 7.47437C8.82002 6.86437 9.02 6.14435 9 5.39435C8.97 4.22435 8.45001 3.19437 7.64001 2.48438H14C14.55 2.48438 15 2.93437 15 3.48438Z" fill="white"/>
<path d="M22 14.4844V17.4844C22 19.1444 20.66 20.4844 19 20.4844H18C18 19.3844 17.1 18.4844 16 18.4844C14.9 18.4844 14 19.3844 14 20.4844H10C10 19.3844 9.1 18.4844 8 18.4844C6.9 18.4844 6 19.3844 6 20.4844H5C3.34 20.4844 2 19.1444 2 17.4844V14.4844H13C14.1 14.4844 15 13.5844 15 12.4844V5.48438H16.84C17.56 5.48438 18.22 5.87438 18.58 6.49438L20.29 9.48438H19C18.45 9.48438 18 9.93437 18 10.4844V13.4844C18 14.0344 18.45 14.4844 19 14.4844H22Z" fill="white"/>
<path opacity="0.4" d="M8 22.4844C9.10457 22.4844 10 21.5889 10 20.4844C10 19.3798 9.10457 18.4844 8 18.4844C6.89543 18.4844 6 19.3798 6 20.4844C6 21.5889 6.89543 22.4844 8 22.4844Z" fill="white"/>
<path opacity="0.4" d="M16 22.4844C17.1046 22.4844 18 21.5889 18 20.4844C18 19.3798 17.1046 18.4844 16 18.4844C14.8954 18.4844 14 19.3798 14 20.4844C14 21.5889 14.8954 22.4844 16 22.4844Z" fill="white"/>
<path opacity="0.4" d="M22 13.0144V14.4844H19C18.45 14.4844 18 14.0344 18 13.4844V10.4844C18 9.93437 18.45 9.48438 19 9.48438H20.29L21.74 12.0244C21.91 12.3244 22 12.6644 22 13.0144Z" fill="white"/>
<path d="M7.64019 2.48513C6.92019 1.84513 5.96014 1.46513 4.91014 1.48513C3.97014 1.50513 3.11016 1.85512 2.43016 2.41512C1.53016 3.16512 0.970172 4.31515 1.00017 5.57515C1.02017 6.32515 1.24018 7.02513 1.63018 7.61513C1.74018 7.78513 1.86017 7.95512 2.00017 8.10512C2.73017 8.97512 3.8502 9.51513 5.0902 9.48513C6.1002 9.46513 7.01017 9.07513 7.69017 8.42513C8.00017 8.16513 8.26019 7.83512 8.46019 7.47512C8.82019 6.86512 9.02017 6.1451 9.00017 5.3951C8.97017 4.2251 8.45019 3.19513 7.64019 2.48513ZM7.06017 5.00515L4.97014 7.0251C4.82014 7.16511 4.64018 7.23513 4.45018 7.23513C4.26018 7.23513 4.08016 7.16511 3.93016 7.0251L2.92015 6.06514C2.62015 5.77514 2.6102 5.30515 2.9002 5.00515C3.1902 4.70515 3.66019 4.69513 3.96019 4.98513L4.45018 5.4551L6.02019 3.93514C6.32019 3.64514 6.79019 3.6551 7.08019 3.9551C7.37019 4.2451 7.36017 4.71515 7.06017 5.00515Z" fill="white"/>
</svg>
