<svg width="53" height="52" viewBox="0 0 53 52" fill="none" xmlns="http://www.w3.org/2000/svg">
<circle cx="26.3259" cy="26" r="26" fill="#F2F7FF"/>
<path d="M29.826 14.3359V26.0026C29.826 27.2859 28.776 28.3359 27.4926 28.3359H14.6593V20.8926C15.511 21.9076 16.8177 22.5376 18.2643 22.5026C19.4427 22.4793 20.5043 22.0243 21.2976 21.2659C21.6593 20.9626 21.9627 20.5776 22.196 20.1576C22.616 19.4459 22.8493 18.6059 22.826 17.7309C22.791 16.3659 22.1843 15.1643 21.2393 14.3359H29.826Z" stroke="#4791FF" stroke-width="1.5" stroke-linecap="round" stroke-linejoin="round"/>
<path d="M37.9926 28.3359V31.8359C37.9926 33.7726 36.4293 35.3359 34.4926 35.3359H33.326C33.326 34.0526 32.276 33.0026 30.9926 33.0026C29.7093 33.0026 28.6593 34.0526 28.6593 35.3359H23.9926C23.9926 34.0526 22.9426 33.0026 21.6593 33.0026C20.376 33.0026 19.326 34.0526 19.326 35.3359H18.1593C16.2226 35.3359 14.6593 33.7726 14.6593 31.8359V28.3359H27.4926C28.776 28.3359 29.826 27.2859 29.826 26.0026V17.8359H31.9727C32.8127 17.8359 33.5827 18.2909 34.0027 19.0143L35.9976 22.5026H34.4926C33.851 22.5026 33.326 23.0276 33.326 23.6693V27.1693C33.326 27.8109 33.851 28.3359 34.4926 28.3359H37.9926Z" stroke="#4791FF" stroke-width="1.5" stroke-linecap="round" stroke-linejoin="round"/>
<path d="M21.6593 37.6667C22.9479 37.6667 23.9926 36.622 23.9926 35.3333C23.9926 34.0447 22.9479 33 21.6593 33C20.3706 33 19.3259 34.0447 19.3259 35.3333C19.3259 36.622 20.3706 37.6667 21.6593 37.6667Z" stroke="#4791FF" stroke-width="1.5" stroke-linecap="round" stroke-linejoin="round"/>
<path d="M30.9926 37.6667C32.2813 37.6667 33.326 36.622 33.326 35.3333C33.326 34.0447 32.2813 33 30.9926 33C29.704 33 28.6593 34.0447 28.6593 35.3333C28.6593 36.622 29.704 37.6667 30.9926 37.6667Z" stroke="#4791FF" stroke-width="1.5" stroke-linecap="round" stroke-linejoin="round"/>
<path d="M37.9926 26V28.3333H34.4926C33.8509 28.3333 33.3259 27.8083 33.3259 27.1667V23.6667C33.3259 23.025 33.8509 22.5 34.4926 22.5H35.9976L37.9926 26Z" stroke="#4791FF" stroke-width="1.5" stroke-linecap="round" stroke-linejoin="round"/>
<path d="M22.8259 17.7266C22.8492 18.6016 22.6159 19.4416 22.1959 20.1533C21.9626 20.5733 21.6592 20.9583 21.2976 21.2616C20.5042 22.0199 19.4426 22.4749 18.2642 22.4983C16.8176 22.5333 15.5109 21.9033 14.6592 20.8883C14.4959 20.7133 14.3559 20.5149 14.2276 20.3166C13.7726 19.6283 13.5159 18.8116 13.4926 17.9366C13.4576 16.4666 14.1109 15.1249 15.1609 14.2499C15.9542 13.5966 16.9575 13.1883 18.0542 13.1649C19.2792 13.1416 20.3992 13.5849 21.2392 14.3316C22.1842 15.1599 22.7909 16.3616 22.8259 17.7266Z" stroke="#4791FF" stroke-width="1.5" stroke-miterlimit="10" stroke-linecap="round" stroke-linejoin="round"/>
<path d="M16.3392 17.8695L17.5176 18.9895L19.9559 16.6328" stroke="#4791FF" stroke-width="1.5" stroke-linecap="round" stroke-linejoin="round"/>
</svg>
