<svg width="24" height="25" viewBox="0 0 24 25" fill="none" xmlns="http://www.w3.org/2000/svg">
<path d="M11.9999 15.5C6.98991 15.5 2.90991 18.86 2.90991 23C2.90991 23.28 3.12991 23.5 3.40991 23.5H20.5899C20.8699 23.5 21.0899 23.28 21.0899 23C21.0899 18.86 17.0099 15.5 11.9999 15.5Z" fill="white"/>
<path d="M15.71 4.16C14.81 3.14 13.47 2.5 12 2.5C10.6 2.5 9.32 3.07 8.41 4.01C7.54 4.91 7 6.15 7 7.5C7 8.44 7.26 9.32 7.73 10.07C7.98 10.5 8.3 10.89 8.68 11.21C9.55 12.01 10.71 12.5 12 12.5C13.83 12.5 15.41 11.52 16.28 10.07C16.54 9.64 16.74 9.16 16.85 8.66C16.95 8.29 17 7.9 17 7.5C17 6.22 16.51 5.05 15.71 4.16ZM13.87 8.42H12.94V9.39C12.94 9.91 12.52 10.33 12 10.33C11.48 10.33 11.06 9.91 11.06 9.39V8.42H10.13C9.61 8.42 9.19 8 9.19 7.48C9.19 6.96 9.61 6.54 10.13 6.54H11.06V5.65C11.06 5.13 11.48 4.71 12 4.71C12.52 4.71 12.94 5.13 12.94 5.65V6.54H13.87C14.39 6.54 14.81 6.96 14.81 7.48C14.81 8 14.39 8.42 13.87 8.42Z" fill="white"/>
</svg>
