<svg width="18" height="9" viewBox="0 0 18 9" fill="none" xmlns="http://www.w3.org/2000/svg">
<path d="M17.7753 2.92648L17.1729 8.96377H0.793091L0.204894 3.05465C0.0474502 1.66896 1.54207 1.0285 2.23208 1.82142C3.89217 3.73562 4.06989 4.1135 4.62758 4.04701C4.83718 4.02151 4.98696 3.9276 5.11135 3.81301C8.49123 0.570327 8.27019 0.780309 8.305 0.752786C8.75987 0.40285 9.34487 0.460577 9.68759 0.745914C13.1027 3.61557 12.9445 3.48919 13.0207 3.53262C13.3396 3.71587 13.7157 3.69254 14.0371 3.3773C15.935 1.51245 15.8146 1.62866 15.8499 1.60048C16.718 0.924524 17.9142 1.71002 17.7753 2.92648Z" fill="white"/>
</svg>
