<svg width="18" height="18" viewBox="0 0 18 18" fill="none" xmlns="http://www.w3.org/2000/svg">
<path opacity="0.4" d="M16.9104 8.84355C16.6504 8.54355 16.2704 8.37355 15.8804 8.37355H12.3004C10.5404 8.37355 9.11039 6.94355 9.11039 5.18355V1.60355C9.11039 1.21355 8.94039 0.833549 8.64039 0.573549C8.35039 0.313549 7.95039 0.193549 7.57039 0.243549C5.22039 0.543549 3.06039 1.83355 1.65039 3.77355C0.230387 5.72355 -0.289613 8.10355 0.160387 10.4835C0.810387 13.9235 3.56039 16.6735 7.01039 17.3235C7.56039 17.4335 8.11039 17.4835 8.66039 17.4835C10.4704 17.4835 12.2204 16.9235 13.7104 15.8335C15.6504 14.4235 16.9404 12.2635 17.2404 9.91355C17.2904 9.52355 17.1704 9.13355 16.9104 8.84355Z" fill="white"/>
</svg>
