<svg width="18" height="20" viewBox="0 0 18 20" fill="none" xmlns="http://www.w3.org/2000/svg">
<path d="M17.5799 2.02V2.98C17.5799 3.39 17.1099 3.64 16.7399 3.45C16.2799 3.21 15.7899 3.03 15.2699 2.91C14.8299 2.8 14.3599 2.75 13.8799 2.75C10.4299 2.75 7.62992 5.55 7.62992 9C7.62992 10.14 7.93992 11.26 8.52992 12.22C9.02992 13.06 9.72992 13.76 10.4899 14.23C10.6599 14.34 10.8399 14.44 11.0099 14.54C11.1799 14.63 11.2999 14.81 11.2999 15V17.07C11.2999 17.68 10.8999 18.49 10.3999 18.79L8.99992 19.7C7.69992 20.51 5.90992 19.6 5.90992 17.98V12.63C5.90992 11.92 5.50992 11.01 5.10992 10.51L1.31992 6.47C0.819922 5.96 0.419922 5.05 0.419922 4.45V2.12C0.419922 0.91 1.31992 0 2.40992 0H15.5899C16.6799 0 17.5799 0.91 17.5799 2.02Z" fill="#104798"/>
</svg>
