<svg width="21" height="21" viewBox="0 0 21 21" fill="none" xmlns="http://www.w3.org/2000/svg">
<path d="M18.3007 9.39969L17.1464 8.01719C16.9257 7.75469 16.7475 7.26469 16.7475 6.91469V5.42719C16.7475 4.49969 16.0091 3.73844 15.1094 3.73844H13.6665C13.3355 3.73844 12.8517 3.55469 12.597 3.32719L11.256 2.13719C10.6703 1.62094 9.71123 1.62094 9.11709 2.13719L7.78453 3.33594C7.5299 3.55469 7.0461 3.73844 6.71508 3.73844H5.24672C4.34703 3.73844 3.6086 4.49969 3.6086 5.42719V6.92344C3.6086 7.26469 3.43036 7.75469 3.21817 8.01719L2.07234 9.40844C1.58005 10.0122 1.58005 10.9922 2.07234 11.5959L3.21817 12.9872C3.43036 13.2497 3.6086 13.7397 3.6086 14.0809V15.5772C3.6086 16.5047 4.34703 17.2659 5.24672 17.2659H6.71508C7.0461 17.2659 7.5299 17.4497 7.78453 17.6772L9.12558 18.8672C9.71123 19.3834 10.6703 19.3834 11.2645 18.8672L12.6055 17.6772C12.8601 17.4497 13.3355 17.2659 13.675 17.2659H15.1179C16.0176 17.2659 16.756 16.5047 16.756 15.5772V14.0897C16.756 13.7484 16.9342 13.2497 17.1549 12.9872L18.3092 11.6047C18.8015 11.0009 18.8015 10.0034 18.3007 9.39969ZM13.7174 8.84844L9.61786 13.0747C9.49904 13.1972 9.33777 13.2672 9.16802 13.2672C8.99826 13.2672 8.837 13.1972 8.71817 13.0747L6.66416 10.9572C6.41802 10.7034 6.41802 10.2834 6.66416 10.0297C6.9103 9.77594 7.31771 9.77594 7.56385 10.0297L9.16802 11.6834L12.8177 7.92094C13.0639 7.66719 13.4713 7.66719 13.7174 7.92094C13.9635 8.17469 13.9635 8.59469 13.7174 8.84844Z" fill="#12D26A"/>
</svg>
