<svg width="25" height="25" viewBox="0 0 25 25" fill="none" xmlns="http://www.w3.org/2000/svg">
<path d="M8.69336 12.4981L11.1034 14.9181L15.9334 10.0781" stroke="#23C99A" stroke-width="1.5" stroke-linecap="round" stroke-linejoin="round"/>
<path d="M11.0634 2.95031C11.7534 2.36031 12.8834 2.36031 13.5834 2.95031L15.1634 4.31031C15.4634 4.57031 16.0234 4.78031 16.4234 4.78031H18.1234C19.1834 4.78031 20.0534 5.65031 20.0534 6.71031V8.41031C20.0534 8.80031 20.2634 9.37031 20.5234 9.67031L21.8834 11.2503C22.4734 11.9403 22.4734 13.0703 21.8834 13.7703L20.5234 15.3503C20.2634 15.6503 20.0534 16.2103 20.0534 16.6103V18.3103C20.0534 19.3703 19.1834 20.2403 18.1234 20.2403H16.4234C16.0334 20.2403 15.4634 20.4503 15.1634 20.7103L13.5834 22.0703C12.8934 22.6603 11.7634 22.6603 11.0634 22.0703L9.48336 20.7103C9.18336 20.4503 8.62336 20.2403 8.22336 20.2403H6.49336C5.43336 20.2403 4.56336 19.3703 4.56336 18.3103V16.6003C4.56336 16.2103 4.35336 15.6503 4.10336 15.3503L2.75336 13.7603C2.17336 13.0703 2.17336 11.9503 2.75336 11.2603L4.10336 9.67031C4.35336 9.37031 4.56336 8.81031 4.56336 8.42031V6.70031C4.56336 5.64031 5.43336 4.77031 6.49336 4.77031H8.22336C8.61336 4.77031 9.18336 4.56031 9.48336 4.30031L11.0634 2.95031Z" stroke="#23C99A" stroke-width="1.5" stroke-linecap="round" stroke-linejoin="round"/>
</svg>
