<svg width="32" height="26" viewBox="0 0 32 26" fill="none" xmlns="http://www.w3.org/2000/svg">
<path d="M23.873 4.44141H2.03175C1.66162 4.44141 1.31456 4.54034 1.01569 4.71334L0.46875 6.47316V23.1516C0.46875 24.2737 1.37837 25.1833 2.5005 25.1833H23.873L25.6327 24.7591C25.8057 24.4602 25.9047 24.1132 25.9047 23.743V6.47316C25.9048 5.35103 24.9951 4.44141 23.873 4.44141Z" fill="#E5646E"/>
<path d="M16.6876 14.2226L10.6524 10.8697C10.5117 10.7916 10.3644 10.7508 10.2192 10.7422L9.79199 11.7578V17.8604C9.79199 18.6349 9.9753 19.1246 10.6524 18.7484L16.6876 15.3955L17.0531 14.5649C16.9669 14.4289 16.845 14.3101 16.6876 14.2226Z" fill="white"/>
<path d="M26.1663 7.7268L21.333 4.95111V2.91936L26.1691 0.281488C26.5076 0.0968626 26.9203 0.341863 26.9203 0.727425V6.34799L26.1663 7.7268Z" fill="#FFE6E7"/>
<path d="M18.7939 2.92188H21.3336V4.95362L19.0732 5.51056L18.3232 3.80219L18.7939 2.92188Z" fill="#DB4655"/>
<path d="M29.0138 6.03002C28.8839 6.03002 28.7539 5.98039 28.6547 5.88095C28.4562 5.68252 28.4562 5.36114 28.6547 5.1627C28.8466 4.97102 28.9523 4.71602 28.9523 4.4447C28.9523 4.17339 28.8467 3.91839 28.6547 3.7267C28.4562 3.52827 28.4562 3.20689 28.6547 3.00845C28.8531 2.80952 29.1745 2.81002 29.3729 3.00795C29.7569 3.39164 29.9682 3.90183 29.9682 4.4447C29.9682 4.98758 29.7569 5.49777 29.3729 5.88145C29.2738 5.98039 29.1438 6.03002 29.0138 6.03002Z" fill="#FFCCCF"/>
<path d="M30.4513 7.46602C30.3214 7.46602 30.1914 7.41639 30.0922 7.3172C29.8937 7.11877 29.8937 6.79739 30.0922 6.59895C30.6676 6.02358 30.9846 5.2582 30.9846 4.44395C30.9846 3.6297 30.6676 2.86433 30.0922 2.28895C29.8937 2.09052 29.8937 1.76914 30.0922 1.5707C30.2906 1.37227 30.612 1.37227 30.8104 1.5707C31.5778 2.33802 32.0004 3.35839 32.0004 4.44395C32.0004 5.52952 31.5778 6.54983 30.8104 7.3172C30.7113 7.41639 30.5813 7.46602 30.4513 7.46602Z" fill="#FFE6E7"/>
<path d="M4.57144 24.7601C2.60775 24.7601 1.01587 23.1682 1.01587 21.2045V4.71484C0.411125 5.06684 0 5.72428 0 6.47441V23.7442C0 24.8663 0.909625 25.776 2.03175 25.776H23.873C24.6231 25.776 25.2804 25.3648 25.6323 24.7601H4.57144Z" fill="#DB4655"/>
<path d="M12.335 17.185C11.3855 17.7126 10.2185 17.026 10.2185 15.9397V10.7439C9.66495 10.7113 9.14258 11.1456 9.14258 11.7591V18.4648C9.14258 19.2395 9.9747 19.729 10.6518 19.3529L16.6869 16C17.2268 15.7001 17.3493 15.0324 17.0524 14.5663L12.335 17.185Z" fill="#FFE6E7"/>
<path d="M21.3329 5.9695V4.95362H19.8091C19.248 4.95362 18.7932 4.49881 18.7932 3.93775V2.92188C18.2322 2.92188 17.7773 3.37669 17.7773 3.93775V4.95362C17.7773 5.51469 18.2322 5.9695 18.7932 5.9695H19.3012L20.7163 10.6869C20.7808 10.9017 20.9785 11.0489 21.2028 11.0489H22.34C22.5975 11.0489 22.7822 10.8006 22.7082 10.5539L21.3329 5.9695Z" fill="#BD4150"/>
<path d="M26.1691 8.60687C26.5076 8.7915 26.9203 8.5465 26.9203 8.16094V6.34994L21.333 4.95312V5.969L26.1691 8.60687Z" fill="#FFCCCF"/>
</svg>
