<svg width="21" height="20" viewBox="0 0 21 20" fill="none" xmlns="http://www.w3.org/2000/svg">
<path d="M13.8094 9.99896C13.8094 11.649 12.4761 12.9823 10.8261 12.9823C9.17611 12.9823 7.84277 11.649 7.84277 9.99896C7.84277 8.34896 9.17611 7.01562 10.8261 7.01562C12.4761 7.01562 13.8094 8.34896 13.8094 9.99896Z" stroke="#292D32" stroke-width="1.5" stroke-linecap="round" stroke-linejoin="round"/>
<path d="M10.826 16.8932C13.7677 16.8932 16.5094 15.1599 18.4177 12.1599C19.1677 10.9849 19.1677 9.0099 18.4177 7.8349C16.5094 4.8349 13.7677 3.10156 10.826 3.10156C7.88437 3.10156 5.14271 4.8349 3.23437 7.8349C2.48437 9.0099 2.48437 10.9849 3.23437 12.1599C5.14271 15.1599 7.88437 16.8932 10.826 16.8932Z" stroke="#292D32" stroke-width="1.5" stroke-linecap="round" stroke-linejoin="round"/>
</svg>
