<svg width="18" height="13" viewBox="0 0 18 13" fill="none" xmlns="http://www.w3.org/2000/svg">
<path d="M9.00163 12.9754C5.16163 12.9754 1.62288 10.6412 0.267454 7.02702C0.192099 6.87648 0.192099 6.72577 0.267454 6.65059C2.14979 1.83185 7.57123 -0.577754 12.4649 1.30476C14.8744 2.2835 16.8321 4.16602 17.8108 6.65059C17.8861 6.80113 17.8861 6.95184 17.8108 7.02702C16.38 10.6411 12.8412 12.9754 9.00117 12.9754H9.00163ZM1.39705 6.80119C3.20419 11.0176 8.09831 12.8999 12.3145 11.093C14.2722 10.2648 15.7781 8.68352 16.6063 6.80119C14.7992 2.58478 9.90508 0.702448 5.68885 2.5094C3.80633 3.3376 2.22526 4.84352 1.39705 6.80119Z" fill="#303065"/>
<path d="M9.00149 10.1905C7.11916 10.1905 5.61328 8.6846 5.61328 6.80227C5.61328 4.91994 7.11916 3.41406 9.00149 3.41406C10.8838 3.41406 12.3897 4.91994 12.3897 6.80227C12.3897 8.6846 10.8838 10.1905 9.00149 10.1905ZM9.00149 4.54339C7.72149 4.54339 6.74274 5.52213 6.74274 6.80213C6.74274 8.08213 7.72149 9.06087 9.00149 9.06087C10.2815 9.06087 11.2602 8.08213 11.2602 6.80213C11.2602 5.59747 10.2815 4.54339 9.00149 4.54339Z" fill="#303065"/>
</svg>
