<svg width="21" height="20" viewBox="0 0 21 20" fill="none" xmlns="http://www.w3.org/2000/svg">
<path opacity="0.4" d="M15.066 8.79296C14.716 9.13463 14.516 9.6263 14.566 10.1513C14.641 11.0513 15.466 11.7096 16.366 11.7096H17.9993V12.918C17.9993 15.418 16.3327 17.0846 13.8327 17.0846H6.33268C3.83268 17.0846 2.16602 15.418 2.16602 12.918V7.08464C2.16602 4.81797 3.53268 3.23463 5.65768 2.96797C5.87435 2.93463 6.09935 2.91797 6.33268 2.91797H13.8327C14.0493 2.91797 14.2577 2.92629 14.4577 2.95963C16.6077 3.20963 17.9993 4.8013 17.9993 7.08464V8.29298H16.266C15.7993 8.29298 15.3743 8.47629 15.066 8.79296Z" fill="#FF642B"/>
<path d="M18.8329 9.14293V10.8596C18.8329 11.318 18.4662 11.6929 17.9995 11.7096H16.3662C15.4662 11.7096 14.6412 11.0513 14.5662 10.1513C14.5162 9.62629 14.7162 9.13462 15.0662 8.79295C15.3745 8.47628 15.7995 8.29297 16.2662 8.29297H17.9995C18.4662 8.30964 18.8329 8.6846 18.8329 9.14293Z" fill="#FF642B"/>
</svg>
