<svg width="218" height="186" viewBox="0 0 218 186" fill="none" xmlns="http://www.w3.org/2000/svg">
<path d="M139.037 106.415C138.854 106.415 138.69 106.225 138.614 105.842V104.869C138.69 104.486 138.854 104.297 139.041 104.297C139.228 104.297 139.388 104.486 139.469 104.869V105.842C139.388 106.225 139.228 106.415 139.037 106.415ZM139.037 115.466C138.854 115.466 138.69 115.061 138.614 114.242V112.162C138.69 111.345 138.854 110.94 139.041 110.94C139.228 110.94 139.388 111.345 139.469 112.162V114.242C139.388 115.061 139.228 115.466 139.037 115.466ZM139.037 124.516C138.854 124.516 138.69 124.112 138.614 123.293V121.213C138.69 120.396 138.854 119.991 139.041 119.991C139.228 119.991 139.388 120.396 139.469 121.213V123.293C139.388 124.112 139.228 124.516 139.037 124.516ZM136.924 131.155C136.924 130.973 137.302 130.808 138.068 130.732H138.614V130.186C138.69 129.421 138.854 129.042 139.041 129.042C139.228 129.042 139.388 129.421 139.469 130.186V131.587H138.068C137.302 131.507 136.924 131.347 136.924 131.155ZM128.197 131.155C128.197 130.973 128.587 130.808 129.376 130.732H131.381C132.17 130.808 132.56 130.973 132.56 131.16C132.56 131.347 132.17 131.507 131.381 131.587H129.376C128.587 131.507 128.197 131.347 128.197 131.155ZM119.47 131.155C119.47 130.973 119.86 130.808 120.649 130.732H122.655C123.443 130.808 123.833 130.973 123.833 131.16C123.833 131.347 123.443 131.507 122.655 131.587H120.649C119.86 131.507 119.47 131.347 119.47 131.155ZM110.743 131.155C110.743 130.973 111.133 130.808 111.922 130.732H113.928C114.716 130.808 115.106 130.973 115.106 131.16C115.106 131.347 114.716 131.507 113.928 131.587H111.922C111.133 131.507 110.743 131.347 110.743 131.155ZM104.262 131.155C104.262 130.973 104.451 130.808 104.834 130.732H105.807C106.19 130.808 106.379 130.973 106.379 131.16C106.379 131.347 106.19 131.507 105.807 131.587H104.834C104.451 131.507 104.262 131.347 104.262 131.155Z" fill="#BBCAEA"/>
<path d="M100.399 148.025C107.626 148.025 113.484 142.167 113.484 134.94C113.484 127.714 107.626 121.855 100.399 121.855C93.1728 121.855 87.3145 127.714 87.3145 134.94C87.3145 142.167 93.1728 148.025 100.399 148.025Z" fill="#FFD964"/>
<path d="M152.812 21.5335C152.996 21.5302 153.163 21.9061 153.265 22.6617C153.291 23.3028 153.324 23.9454 153.397 24.5671C153.403 25.3186 153.38 25.6221 153.228 25.7273C153.062 25.843 152.704 25.4459 152.548 24.6694C152.47 24.0024 152.437 23.3483 152.411 22.6934C152.465 21.9183 152.622 21.5368 152.812 21.5335ZM152.938 13.0633C153.12 13.0696 153.275 13.4538 153.33 14.221L153.278 16.1648C153.182 16.9272 153.007 17.3029 152.82 17.2997C152.633 17.2965 152.483 16.9146 152.424 16.1459L152.476 14.1955C152.576 13.4303 152.746 13.0566 152.938 13.0633ZM151.52 6.3006C151.52 6.1182 151.899 5.95347 152.665 5.87778H153.523C153.763 5.80405 153.642 6.07353 153.661 6.21012L153.637 6.69757L153.587 7.70773C153.474 8.46703 153.29 8.83753 153.104 8.82905C152.917 8.82057 152.775 8.43466 152.733 7.66513L152.779 6.73107L152.779 6.73242H152.665C151.899 6.65228 151.52 6.492 151.52 6.3006ZM143.049 6.3006C143.049 6.1182 143.428 5.95347 144.194 5.87778H146.14C146.906 5.95347 147.285 6.1182 147.285 6.30515C147.285 6.492 146.906 6.65228 146.14 6.73242H144.194C143.428 6.65228 143.049 6.492 143.049 6.3006ZM134.578 6.3006C134.578 6.1182 134.957 5.95347 135.723 5.87778H137.67C138.435 5.95347 138.814 6.1182 138.814 6.30515C138.814 6.492 138.435 6.65228 137.67 6.73242H135.723C134.957 6.65228 134.578 6.492 134.578 6.3006ZM126.107 6.3006C126.107 6.1182 126.486 5.95347 127.252 5.87778H129.199C129.964 5.95347 130.343 6.1182 130.343 6.30515C130.343 6.492 129.964 6.65228 129.199 6.73242H127.252C126.486 6.65228 126.107 6.492 126.107 6.3006ZM117.636 6.3006C117.636 6.1182 118.015 5.95347 118.781 5.87778H120.728C121.493 5.95347 121.872 6.1182 121.872 6.30515C121.872 6.492 121.493 6.65228 120.728 6.73242H118.781C118.015 6.65228 117.636 6.492 117.636 6.3006ZM109.165 6.3006C109.165 6.1182 109.544 5.95347 110.31 5.87778H112.257C113.022 5.95347 113.401 6.1182 113.401 6.30515C113.401 6.492 113.022 6.65228 112.257 6.73242H110.31C109.544 6.65228 109.165 6.492 109.165 6.3006ZM100.695 6.3006C100.695 6.1182 101.073 5.95347 101.839 5.87778H103.786C104.551 5.95347 104.93 6.1182 104.93 6.30515C104.93 6.492 104.551 6.65228 103.786 6.73242H101.839C101.073 6.65228 100.695 6.492 100.695 6.3006ZM92.2237 6.3006C92.2237 6.1182 92.6025 5.95347 93.3685 5.87778H95.3151C96.0803 5.95347 96.4592 6.1182 96.4592 6.30515C96.4592 6.492 96.0803 6.65228 95.3151 6.73242H93.3685C92.6025 6.65228 92.2237 6.492 92.2237 6.3006ZM83.7528 6.3006C83.7528 6.1182 84.1316 5.95347 84.8976 5.87778H86.8442C87.6094 5.95347 87.9883 6.1182 87.9883 6.30515C87.9883 6.492 87.6094 6.65228 86.8442 6.73242H84.8976C84.1316 6.65228 83.7528 6.492 83.7528 6.3006ZM75.2819 6.3006C75.2819 6.1182 75.6607 5.95347 76.4267 5.87778H78.3733C79.1385 5.95347 79.5174 6.1182 79.5174 6.30515C79.5174 6.492 79.1385 6.65228 78.3733 6.73242H76.4267C75.6607 6.65228 75.2819 6.492 75.2819 6.3006ZM66.811 6.3006C66.811 6.1182 67.1898 5.95347 67.9558 5.87778H69.9024C70.6677 5.95347 71.0465 6.1182 71.0465 6.30515C71.0465 6.492 70.6677 6.65228 69.9024 6.73242H67.9558C67.1898 6.65228 66.811 6.492 66.811 6.3006ZM58.3401 6.3006C58.3401 6.1182 58.7189 5.95347 59.4849 5.87778H61.4315C62.1968 5.95347 62.5756 6.1182 62.5756 6.30515C62.5756 6.492 62.1968 6.65228 61.4315 6.73242H59.4849C58.7189 6.65228 58.3401 6.492 58.3401 6.3006ZM49.8692 6.3006C49.8692 6.1182 50.248 5.95347 51.014 5.87778H52.9607C53.7259 5.95347 54.1047 6.1182 54.1047 6.30515C54.1047 6.492 53.7259 6.65228 52.9607 6.73242H51.014C50.248 6.65228 49.8692 6.492 49.8692 6.3006ZM44.1729 6.3006C44.1729 6.1182 44.3035 5.95347 44.5677 5.87778H45.2392C45.5031 5.95347 45.6338 6.1182 45.6338 6.30515C45.6338 6.492 45.5031 6.65228 45.2392 6.73242H44.5677C44.3035 6.65228 44.1729 6.492 44.1729 6.3006Z" fill="#BBCAEA"/>
<path d="M157.929 32.5977V105.081C157.929 107.236 156.183 108.983 154.027 108.983H67.9511C65.7957 108.983 64.0488 107.236 64.0488 105.081V32.5977H157.929Z" fill="#F3F6FD"/>
<path d="M157.929 27.4012V32.5985H64.0488V27.4012C64.0488 25.2458 65.7957 23.4902 67.9511 23.4902H154.027C156.183 23.4902 157.929 25.2458 157.929 27.4012Z" fill="#E4ECF9"/>
<path d="M69.9203 29.8835C70.7942 29.8835 71.5026 29.175 71.5026 28.3011C71.5026 27.4272 70.7942 26.7188 69.9203 26.7188C69.0463 26.7188 68.3379 27.4272 68.3379 28.3011C68.3379 29.175 69.0463 29.8835 69.9203 29.8835Z" fill="#FE4C40"/>
<path d="M74.5785 29.8835C75.4524 29.8835 76.1608 29.175 76.1608 28.3011C76.1608 27.4272 75.4524 26.7188 74.5785 26.7188C73.7045 26.7188 72.9961 27.4272 72.9961 28.3011C72.9961 29.175 73.7045 29.8835 74.5785 29.8835Z" fill="#FFCF3D"/>
<path d="M79.2367 29.8835C80.1106 29.8835 80.819 29.175 80.819 28.3011C80.819 27.4272 80.1106 26.7188 79.2367 26.7188C78.3627 26.7188 77.6543 27.4272 77.6543 28.3011C77.6543 29.175 78.3627 29.8835 79.2367 29.8835Z" fill="#71C687"/>
<path d="M151.296 47.9135V90.5899C151.296 93.2169 149.161 95.352 146.534 95.352H74.2531C71.6262 95.352 69.5 93.2169 69.5 90.5899V47.9135C69.5 45.2863 71.6262 43.1602 74.2531 43.1602H146.534C149.161 43.1602 151.296 45.2863 151.296 47.9135Z" fill="white"/>
<path d="M142.732 50.6533V79.8702C142.732 81.6362 141.308 83.0682 139.543 83.0682H81.3016C79.5356 83.0682 78.1035 81.6362 78.1035 79.8702V50.6533C78.1035 48.8873 79.5356 47.4551 81.3016 47.4551H139.543C141.308 47.4551 142.732 48.8873 142.732 50.6533Z" fill="#F3F6FD"/>
<path d="M134.044 88.2847C134.044 88.8471 133.596 89.2952 133.034 89.2952H87.7721C87.2098 89.2952 86.7529 88.8471 86.7529 88.2847C86.7529 87.7225 87.2098 87.2656 87.7721 87.2656H133.034C133.596 87.2656 134.044 87.7225 134.044 88.2847Z" fill="#E4ECF9"/>
<path d="M131.611 75.1984H103.382L117.294 61.2763C117.904 60.6659 118.893 60.6657 119.503 61.2759L132.143 73.915C132.616 74.3886 132.281 75.1984 131.611 75.1984Z" fill="#D1DCF8"/>
<path d="M119.641 75.2004H89.185C88.5154 75.2004 88.1798 74.391 88.6531 73.9172L102.395 60.1612C103.009 59.5525 103.993 59.5525 104.607 60.1612L119.641 75.2004ZM116.107 56.0149C116.107 58.0526 114.45 59.7099 112.412 59.7099C110.369 59.7099 108.718 58.0526 108.718 56.0149C108.718 53.9718 110.369 52.3145 112.412 52.3145C114.45 52.3145 116.107 53.9718 116.107 56.0149Z" fill="#D1DCF8"/>
<g opacity="0.05">
<path opacity="0.05" d="M157.929 27.4012V53.2311H136.497C134.228 53.2311 132.386 51.3885 132.386 49.1201V23.4902H154.026C156.182 23.4902 157.929 25.2458 157.929 27.4012Z" fill="black"/>
</g>
<path d="M176.494 15.2909V49.3658C176.494 50.7689 175.356 51.9073 173.948 51.9073H136.498C135.094 51.9073 133.956 50.7689 133.956 49.3658V15.2909C133.956 13.8878 135.094 12.7441 136.498 12.7441H173.948C175.356 12.7441 176.494 13.8878 176.494 15.2909Z" fill="#F3F6FD"/>
<path d="M136.498 50.6926C135.767 50.6926 135.172 50.0978 135.172 49.3667V15.2918C135.172 14.5581 135.767 13.9609 136.498 13.9609H173.948C174.682 13.9609 175.279 14.5581 175.279 15.2918V49.3667C175.279 50.0978 174.682 50.6926 173.948 50.6926H136.498Z" fill="white"/>
<path d="M163.043 19.7524V31.6976C163.043 32.3006 162.556 32.7883 161.953 32.7883H148.498C147.895 32.7883 147.407 32.3006 147.407 31.6976V19.7524C147.407 19.1536 147.895 18.666 148.498 18.666H161.953C162.556 18.666 163.043 19.1536 163.043 19.7524Z" fill="#64D3FF"/>
<path d="M155.376 24.874C156.564 24.874 157.526 23.9115 157.526 22.7241C157.526 21.5368 156.564 20.5742 155.376 20.5742C154.189 20.5742 153.227 21.5368 153.227 22.7241C153.227 23.9115 154.189 24.874 155.376 24.874Z" fill="white"/>
<path d="M151.011 29.7205H159.436C159.681 29.7205 159.887 29.489 159.81 29.2447C159.244 27.2507 157.417 25.7715 155.23 25.7715C153.043 25.7715 151.204 27.2507 150.637 29.2447C150.573 29.489 150.766 29.7205 151.011 29.7205Z" fill="white"/>
<path d="M168.147 38.1896C168.147 38.7571 167.916 39.2753 167.542 39.6495C167.168 40.0237 166.65 40.254 166.078 40.254H144.373C143.23 40.254 142.305 39.3287 142.305 38.1896C142.305 37.618 142.535 37.0998 142.909 36.7256C143.283 36.3514 143.802 36.1211 144.373 36.1211H166.078C167.221 36.1211 168.147 37.0464 168.147 38.1896Z" fill="#E4ECF9"/>
<path d="M168.146 45.2052C168.146 45.7728 167.915 46.2909 167.541 46.6651C167.167 47.0393 166.649 47.2696 166.077 47.2696H144.372C143.229 47.2696 142.304 46.3443 142.304 45.2052C142.304 44.6336 142.534 44.1155 142.908 43.7412C143.282 43.367 143.801 43.1367 144.372 43.1367H166.077C167.22 43.1367 168.146 44.062 168.146 45.2052Z" fill="#E4ECF9"/>
<path d="M52.361 2.13932V30.7627C52.361 31.9414 51.4048 32.8977 50.2217 32.8977L5.09693 33.3033C3.91828 33.3033 2.96204 32.347 2.96204 31.1683V2.54493C2.96204 1.36633 3.91828 0.405604 5.09693 0.405604L50.2217 0C51.4048 -8.47089e-08 52.361 0.960721 52.361 2.13932Z" fill="#F3F6FD"/>
<path d="M47.712 6.86796C47.712 7.01487 47.5655 7.13826 47.3911 7.13826H7.36406C7.18961 7.13826 7.04309 7.01487 7.04309 6.86796C7.04309 6.71516 7.18961 6.59766 7.36406 6.59766H47.3911C47.5655 6.59766 47.712 6.71516 47.712 6.86796ZM20.3907 9.6631C20.3907 9.81002 20.2442 9.93341 20.0698 9.93341H7.36406C7.18961 9.93341 7.04309 9.81002 7.04309 9.6631C7.04309 9.51031 7.18961 9.3928 7.36406 9.3928H20.0698C20.2442 9.3928 20.3907 9.51031 20.3907 9.6631ZM48.033 9.6631C48.033 9.81002 47.8865 9.93341 47.712 9.93341H22.7616C22.5871 9.93341 22.4406 9.81002 22.4406 9.6631C22.4406 9.51031 22.5871 9.3928 22.7616 9.3928H47.712C47.8865 9.3928 48.033 9.51031 48.033 9.6631ZM24.6318 12.4582C24.6318 12.6052 24.4853 12.7286 24.3108 12.7286H7.36406C7.18961 12.7286 7.04309 12.6052 7.04309 12.4582C7.04309 12.3055 7.18961 12.1879 7.36406 12.1879H24.3108C24.4853 12.188 24.6318 12.3055 24.6318 12.4582ZM48.2809 12.4582C48.2809 12.6052 48.1344 12.7286 47.96 12.7286H40.4693C40.2949 12.7286 40.1483 12.6052 40.1483 12.4582C40.1483 12.3055 40.2949 12.1879 40.4693 12.1879H47.96C48.1344 12.188 48.2809 12.3055 48.2809 12.4582ZM26.0276 15.2534C26.0276 15.4003 25.8811 15.5237 25.7067 15.5237H15.1761C15.0017 15.5237 14.8552 15.4003 14.8552 15.2534C14.8552 15.1006 15.0017 14.9831 15.1761 14.9831H25.7067C25.8811 14.9831 26.0276 15.1006 26.0276 15.2534ZM38.8306 15.2534C38.8306 15.4003 38.6841 15.5237 38.5096 15.5237H27.2928C27.1184 15.5237 26.9719 15.4003 26.9719 15.2534C26.9719 15.1006 27.1184 14.9831 27.2928 14.9831H38.5096C38.6841 14.9831 38.8306 15.1006 38.8306 15.2534ZM47.5138 15.2534C47.5138 15.4003 47.3673 15.5237 47.1929 15.5237H40.8555C40.681 15.5237 40.5345 15.4003 40.5345 15.2534C40.5345 15.1006 40.681 14.9831 40.8555 14.9831H47.1929C47.3673 14.9831 47.5138 15.1006 47.5138 15.2534ZM47.712 18.0485C47.712 18.1955 47.5655 18.3188 47.3911 18.3188H27.0497C26.8753 18.3188 26.7288 18.1955 26.7288 18.0485C26.7288 17.8957 26.8753 17.7782 27.0497 17.7782H47.3911C47.5655 17.7782 47.712 17.8957 47.712 18.0485ZM25.3265 18.0485C25.3265 18.1955 25.18 18.3188 25.0055 18.3188H17.8976C17.7231 18.3188 17.5766 18.1955 17.5766 18.0485C17.5766 17.8957 17.7231 17.7782 17.8976 17.7782H25.0055C25.18 17.7782 25.3265 17.8957 25.3265 18.0485ZM21.4516 20.8437C21.4516 20.9906 21.305 21.114 21.1306 21.114H7.36406C7.18961 21.114 7.04309 20.9906 7.04309 20.8437C7.04309 20.6909 7.18961 20.5734 7.36406 20.5734H21.1306C21.305 20.5734 21.4516 20.6909 21.4516 20.8437ZM48.1935 20.8437C48.1935 20.9906 48.047 21.114 47.8725 21.114H27.0497C26.8753 21.114 26.7288 20.9906 26.7288 20.8437C26.7288 20.6909 26.8753 20.5734 27.0497 20.5734H47.8725C48.047 20.5734 48.1935 20.6909 48.1935 20.8437ZM36.0808 23.6388C36.0808 23.7858 35.9343 23.9091 35.7598 23.9091H7.36406C7.18961 23.9091 7.04309 23.7858 7.04309 23.6388C7.04309 23.486 7.18961 23.3685 7.36406 23.3685H35.7598C35.9343 23.3685 36.0808 23.486 36.0808 23.6388ZM48.2809 23.6388C48.2809 23.7858 48.1344 23.9091 47.96 23.9091H37.4611C37.2867 23.9091 37.1402 23.7858 37.1402 23.6388C37.1402 23.486 37.2867 23.3685 37.4611 23.3685H47.96C48.1344 23.3685 48.2809 23.486 48.2809 23.6388ZM24.7923 26.434C24.7923 26.5809 24.6458 26.7043 24.4713 26.7043H7.36406C7.18961 26.7043 7.04309 26.5809 7.04309 26.434C7.04309 26.2812 7.18961 26.1637 7.36406 26.1637H24.4713C24.6458 26.1637 24.7923 26.2812 24.7923 26.434Z" fill="#BBCAEA"/>
<path d="M57.1746 86.1679C57.1746 86.1679 60.923 118.652 62.4592 120.053C63.9954 121.453 53.6937 119.827 53.6937 119.827L45.6963 106.046L46.0578 96.2863C46.0578 96.2863 50.1242 83.9061 50.2598 83.9513C50.3953 83.9965 57.1746 86.1679 57.1746 86.1679ZM46.0042 181.147L49.8299 183.771L52.0541 182.793C52.0541 182.793 52.1097 181.671 52.1542 178.946C52.1764 176.888 52.2098 175.054 52.2098 174.942C52.2098 174.664 46.4935 174.998 46.2266 175.087C46.1154 175.12 46.0597 176.377 46.0376 177.89C45.982 180.136 46.0042 180.947 46.0042 181.147Z" fill="#FEC9AC"/>
<path opacity="0.5" d="M46.0371 177.89C47.7498 178.702 49.6515 179.091 51.5421 179.002C51.7423 178.991 51.9536 178.98 52.1538 178.946C52.176 176.889 52.2094 175.054 52.2094 174.942C52.2094 174.664 46.493 174.998 46.2262 175.087C46.115 175.121 46.0593 176.377 46.0371 177.89Z" fill="#FFAB90"/>
<path d="M44.0917 185.412C44.1431 185.757 44.4445 186 44.7973 186H62.0252C62.3266 186 62.5912 185.816 62.7014 185.537C62.9587 184.839 63.3041 183.545 62.503 182.994C61.3858 182.229 59.0191 182.935 57.3875 181.781C55.7632 180.635 53.8155 176.732 51.4783 179.385C51.4783 179.385 49.5967 182.266 48.3178 181.656C47.039 181.046 46.0835 177.893 44.5474 179.098C43.7756 179.708 43.8418 183.927 44.0917 185.412Z" fill="#3A4146"/>
<path d="M55.4051 175.65C54.9499 176.921 46.6088 178.372 44.1607 176.105C41.7125 173.837 32.6416 110.357 32.9163 107.822L51.1442 111.393C51.1442 111.393 51.1521 111.542 51.1757 111.824C51.5837 117.364 55.8288 174.449 55.4051 175.65Z" fill="#022E4F"/>
<path d="M4.72864 172.369L6.2403 176.755L8.6102 177.293C8.6102 177.293 9.32269 176.424 10.9804 174.261C12.223 172.621 13.342 171.167 13.4083 171.077C13.5738 170.854 8.78194 167.719 8.51446 167.632C8.40524 167.593 7.61253 168.569 6.6943 169.771C5.31236 171.543 4.84775 172.208 4.72864 172.369Z" fill="#FEC9AC"/>
<path opacity="0.5" d="M6.69446 169.771C7.58737 171.443 8.88388 172.888 10.4559 173.942C10.6234 174.052 10.7998 174.169 10.9805 174.261C12.2231 172.621 13.3422 171.167 13.4085 171.077C13.574 170.854 8.7821 167.719 8.51462 167.632C8.4054 167.593 7.61269 168.569 6.69446 169.771Z" fill="#FFAB90"/>
<path d="M0.652157 174.658C0.487886 174.966 0.585633 175.341 0.8691 175.551L14.7123 185.806C14.9544 185.985 15.2764 185.995 15.5313 185.836C16.1536 185.428 17.2012 184.594 16.8856 183.675C16.443 182.395 14.1212 181.554 13.497 179.655C12.8744 177.767 13.6325 173.471 10.1751 174.212C10.1751 174.212 6.94818 175.407 6.2837 174.156C5.61916 172.904 6.72833 169.802 4.77658 169.856C3.79327 169.887 1.33515 173.316 0.652157 174.658Z" fill="#3A4146"/>
<path d="M23.5975 107.047C23.4756 107.862 23.3614 108.669 23.2548 109.469C23.2244 109.4 23.2091 109.324 23.2091 109.248C23.331 108.509 23.4604 107.77 23.5975 107.047Z" fill="#71C687"/>
<path d="M44.1632 109.783C44.1632 109.783 42.3786 138.517 37.858 145.243C27.0404 161.338 14.4526 174.607 14.4526 174.607C14.4526 174.607 6.49483 169.166 6.51187 166.215C6.52472 163.989 22.3735 141.07 22.3735 141.07C22.3735 141.07 20.3824 112.318 23.6129 109.248C24.4749 108.428 44.1632 109.783 44.1632 109.783Z" fill="#003567"/>
<path d="M58.6193 87.2483C58.7262 87.8359 52.4518 88.3932 50.4901 88.1793C50.6351 99.3772 51.1389 111.384 51.1389 111.384C51.032 113.682 32.8653 112.72 25.8886 110.773C24.446 110.384 23.4766 109.934 23.2553 109.468C23.3621 108.667 23.4766 107.858 23.5987 107.048C25.0109 99.2704 26.8352 92.6447 26.713 92.5456C22.6675 93.1486 19.0494 91.8967 17.2022 89.6985C16.9961 89.4618 16.8206 89.2099 16.6603 88.9505C16.6603 88.9505 16.6756 88.8664 16.6984 88.7061C17.0267 86.9276 19.3089 75.8443 26.713 71.1119C26.9039 70.9898 27.0947 70.8752 27.2855 70.7608C33.911 66.9672 44.063 68.2189 49.9481 71.3791C50.9099 71.8599 51.7801 72.5164 52.5357 73.2948C56.4668 77.2336 57.9934 84.172 58.4667 86.5001C58.543 86.8894 58.5964 87.1566 58.6193 87.2483Z" fill="#64D3FF"/>
<path d="M51.1421 111.387C51.0355 113.68 32.8654 112.72 25.8898 110.778C31.5175 108.57 36.8101 105.493 41.4707 101.655C42.9404 100.444 44.334 99.1496 45.5982 97.7332C47.8904 95.1592 49.4135 91.4201 50.4872 88.1836C50.6319 99.3781 51.1421 111.387 51.1421 111.387Z" fill="#EA241F"/>
<path d="M65.2456 91.1544V119.771C65.2456 121.233 64.2556 122.414 63.0357 122.414H17.1711C15.9448 122.414 14.9484 121.226 14.9484 119.764V91.1697C14.9484 89.7075 15.9448 88.5195 17.1711 88.5195H63.0357C64.2556 88.5195 65.2456 89.6999 65.2456 91.1544Z" fill="#FE4C40"/>
<path d="M14.9484 116.035V119.764C14.9484 121.226 15.9448 122.414 17.1711 122.414H63.0357C64.2556 122.414 65.2457 121.234 65.2457 119.771V116.035H14.9484Z" fill="#F3F6FD"/>
<path d="M25.8893 120.054C25.6228 120.892 22.9193 120.67 22.9193 120.67C22.9193 120.67 27.35 123.734 20.0023 123.717C14.2234 123.703 16.8119 117.768 16.8119 117.768C12.9585 105.043 17.2002 89.6992 17.2002 89.6992C19.0508 91.9001 22.668 93.1489 26.7117 92.5473C26.1741 95.0405 23.361 108.669 23.2544 109.469C22.668 113.771 22.234 115.43 22.0436 117.532C22.0436 117.532 26.3843 118.47 25.8893 120.054ZM62.4306 122.376C62.4306 124.45 53.7987 124.45 53.7987 122.376C53.7987 120.301 55.7345 118.642 58.1213 118.642C60.4947 118.642 62.4306 120.301 62.4306 122.376Z" fill="#FEC9AC"/>
<path d="M29.5606 83.6738C29.5606 83.6738 28.278 89.6241 26.7124 92.5457C22.6687 93.1473 19.0514 91.8984 17.2009 89.6976C16.9954 89.4615 16.8202 89.2102 16.6603 88.9513C16.6603 88.9513 16.6755 88.8675 16.6983 88.7076C22.585 87.2911 29.5606 83.6738 29.5606 83.6738Z" fill="#13B1E2"/>
<path d="M58.6202 87.2459C58.7268 87.84 52.4518 88.3959 50.487 88.1827L50.1855 80.0723C50.1855 80.0723 54.3251 84.5958 58.4679 86.4997C58.544 86.888 58.5974 87.1546 58.6202 87.2459Z" fill="#13B1E2"/>
<path d="M41.1049 72.7577C34.8311 73.1717 34.8311 68.5408 34.8311 68.5408C35.5055 67.7473 35.7356 66.2555 35.7991 64.978C35.8705 63.756 35.7753 62.7324 35.7753 62.7324L42.8849 65.1446C42.8849 65.351 42.8929 65.5414 42.9167 65.7159C43.0992 67.5648 44.9074 69.4295 44.9074 69.4295C44.9074 69.4295 45.8146 72.4469 41.1049 72.7577Z" fill="#FEC9AC"/>
<g opacity="0.5">
<path opacity="0.5" d="M42.9177 65.7159C42.3623 66.1842 41.6878 66.5094 40.8706 66.6286C38.498 66.9856 36.8634 66.065 35.8002 64.978C35.8716 63.756 35.7764 62.7324 35.7764 62.7324L42.886 65.1446C42.886 65.351 42.894 65.5414 42.9177 65.7159Z" fill="#FFAB90"/>
</g>
<path d="M41.2126 65.7482C36.0948 66.5216 34.4246 61.3545 34.4246 61.3545C34.4246 61.3545 31.4625 60.2603 31.9809 58.0386C32.0549 57.726 32.1784 57.5039 32.3429 57.3641C33.034 56.7305 34.3587 57.4545 34.7619 57.7013C34.7619 57.7013 34.7784 57.7096 34.8031 57.726C34.8607 57.759 34.8853 57.7755 34.8853 57.7755L34.8936 57.759L37.2303 51.481C37.2303 51.481 43.1456 50.5188 45.2108 52.6993C45.3754 52.8638 45.5667 52.6176 45.6736 52.815C45.6736 52.815 47.2848 64.8351 41.2126 65.7482Z" fill="#FEC9AC"/>
<path d="M45.236 53.0772C44.6435 53.1758 44.0676 53.1511 43.648 53.0277C42.0847 52.5669 41.2454 53.3403 40.7682 53.4062C40.291 53.4721 40.1346 52.5505 40.1346 52.5505C37.2549 52.2708 35.7615 56.8496 35.5558 57.4173C35.4077 57.8369 35.1157 57.8492 34.8935 57.7588C34.8606 57.7505 34.8276 57.7341 34.803 57.7258C34.7783 57.7094 34.7618 57.7011 34.7618 57.7011C34.3586 57.4543 33.034 56.7303 32.3428 57.3639C30.8536 56.4093 28.8707 48.1814 33.503 45.6062C37.8802 43.1707 43.7631 44.1004 45.2277 46.5688C46.6841 49.0371 47.6385 48.8225 48.3132 49.6872C49.6003 51.3366 46.8239 52.8303 45.236 53.0772Z" fill="#2E363A"/>
<path d="M39.2568 58.4561C39.5534 58.4561 39.7938 58.1201 39.7938 57.7056C39.7938 57.2911 39.5534 56.9551 39.2568 56.9551C38.9602 56.9551 38.7197 57.2911 38.7197 57.7056C38.7197 58.1201 38.9602 58.4561 39.2568 58.4561Z" fill="#4F2D2B"/>
<path d="M43.6318 58.1182C43.9284 58.1182 44.1688 57.7822 44.1688 57.3677C44.1688 56.9532 43.9284 56.6172 43.6318 56.6172C43.3352 56.6172 43.0947 56.9532 43.0947 57.3677C43.0947 57.7822 43.3352 58.1182 43.6318 58.1182Z" fill="#4F2D2B"/>
<path d="M37.7132 56.497C37.6709 56.4614 37.7158 56.2879 37.9678 56.034C38.1941 55.8401 38.5012 55.6889 38.8285 55.6998C39.2243 55.7454 39.3281 55.9715 39.284 56.0013C39.2396 56.0554 39.1021 55.9673 38.8215 55.9846C38.581 55.9767 38.3482 56.0852 38.1502 56.2528C37.9011 56.434 37.7647 56.5419 37.7132 56.497Z" fill="#4F2D2B"/>
<path d="M44.6182 55.3256C44.5858 55.3868 44.4114 55.3184 44.0726 55.311C43.7875 55.2861 43.4917 55.3589 43.257 55.5164C42.9578 55.6789 42.9327 55.8321 42.8661 55.838C42.7952 55.8686 42.7386 55.5379 43.0981 55.2799C43.3917 55.0837 43.7488 54.9975 44.0961 55.0272C44.5097 55.0971 44.649 55.2822 44.6182 55.3256Z" fill="#4F2D2B"/>
<path d="M41.1351 60.8901C41.1466 60.8595 41.214 60.8632 41.3238 60.8217C41.4164 60.7825 41.6484 60.6828 41.713 60.5302C41.7751 60.4026 41.7108 60.1528 41.6639 59.9373C41.612 59.7165 41.545 59.4963 41.4787 59.2727C41.3406 58.7366 41.3508 58.4459 41.4114 58.4377C41.4746 58.4285 41.5664 58.678 41.7518 59.1917C41.8178 59.4142 41.8864 59.6395 41.9411 59.8719C41.978 60.1029 42.0876 60.3321 41.9716 60.6499C41.4884 61.2092 41.0786 60.9244 41.1351 60.8901Z" fill="#4F2D2B"/>
<path d="M38.946 61.4841C39.0057 61.4505 39.1408 61.6544 39.4538 61.9805C39.7046 62.2778 40.0363 62.4492 40.4192 62.5055C40.8635 62.6191 41.094 62.6092 41.1055 62.6765C41.1213 62.731 40.8687 62.8562 40.3683 62.7858C39.9414 62.7269 39.5175 62.5049 39.2415 62.1705C38.9307 61.7646 38.8972 61.5084 38.946 61.4841Z" fill="#4F2D2B"/>
<path d="M33.8548 57.9124C33.8663 57.9734 33.801 58.0389 33.6947 58.1274C33.5904 58.2151 33.4417 58.3384 33.4058 58.5032C33.2757 58.7948 33.5135 59.2389 33.8426 59.558C34.135 60.0248 34.3819 60.0608 34.3843 60.2054C34.3831 60.2646 34.2968 60.3308 34.1098 60.3205C33.9145 60.3194 33.6684 60.1868 33.4312 59.9523C33.2195 59.7446 33.0701 59.5376 32.9322 59.2565C32.8043 58.9798 32.7424 58.6265 32.8784 58.2876C33.0896 57.8846 33.4217 57.8207 33.5813 57.8075C33.7586 57.7994 33.8439 57.8516 33.8548 57.9124Z" fill="#FFAB90"/>
<path d="M45.8348 104.063L39.5272 107.819C39.1483 108.045 38.668 107.771 38.668 107.331V99.8134C38.668 99.3723 39.1486 99.0993 39.5275 99.3252L45.8351 103.087C46.205 103.307 46.2048 103.843 45.8348 104.063Z" fill="#F3F6FD"/>
<path d="M204.672 181.535C204.093 182.148 203.059 182.943 201.56 182.943C198.846 182.955 199.005 181.035 198.55 180.07V180.058C198.539 179.979 198.528 179.139 198.516 178.207C198.494 177.287 198.471 176.265 198.448 175.788C200.379 175.833 202.809 175.561 204.649 175.084V181.398L204.672 181.535Z" fill="#FEC9AC"/>
<path opacity="0.5" d="M204.649 175.084V176.583C204.456 176.765 204.24 176.924 204.013 177.072C203.741 177.253 203.457 177.412 203.15 177.548C202.094 178.026 200.936 178.207 199.777 178.23C199.357 178.241 198.937 178.23 198.516 178.207C198.494 177.287 198.471 176.265 198.448 175.788C200.379 175.833 202.809 175.561 204.649 175.084Z" fill="#FFAB90"/>
<path d="M206.525 185.402C206.382 185.729 206.061 185.947 205.699 185.947H188.088C187.904 185.947 187.749 185.798 187.749 185.615C187.749 184.955 187.938 184.324 188.277 183.785C188.615 183.251 189.091 182.786 189.7 182.523C192.803 181.163 196.171 177.124 198.35 178.335C198.505 178.421 198.609 178.559 198.695 178.731C198.695 178.736 198.695 178.742 198.695 178.742C199.119 179.637 198.97 181.427 201.494 181.415C202.882 181.41 203.606 180.662 204.145 180.094C204.495 179.726 204.697 179.418 204.908 179.436C205.041 179.448 208.045 181.851 206.525 185.402Z" fill="#2E363A"/>
<path d="M187.242 181.535C186.663 182.148 185.63 182.943 184.13 182.943C181.416 182.955 181.575 181.035 181.121 180.07V180.058C181.109 179.979 181.098 179.139 181.087 178.207C181.064 177.287 181.041 176.265 181.019 175.788C182.949 175.833 185.38 175.561 187.22 175.084V181.398L187.242 181.535Z" fill="#FEC9AC"/>
<path opacity="0.5" d="M187.22 175.084V176.583C187.027 176.765 186.811 176.924 186.584 177.072C186.311 177.253 186.027 177.412 185.721 177.548C184.664 178.026 183.506 178.207 182.347 178.23C181.927 178.241 181.507 178.23 181.087 178.207C181.064 177.287 181.041 176.265 181.019 175.788C182.949 175.833 185.38 175.561 187.22 175.084Z" fill="#FFAB90"/>
<path d="M189.096 185.402C188.952 185.729 188.631 185.947 188.27 185.947H170.658C170.474 185.947 170.319 185.798 170.319 185.615C170.319 184.955 170.509 184.324 170.847 183.785C171.186 183.251 171.662 182.786 172.27 182.523C175.373 181.163 178.741 177.124 180.921 178.335C181.076 178.421 181.179 178.559 181.265 178.731C181.265 178.736 181.265 178.742 181.265 178.742C181.689 179.637 181.54 181.427 184.065 181.415C185.453 181.41 186.177 180.662 186.716 180.094C187.066 179.726 187.267 179.418 187.478 179.436C187.612 179.448 190.616 181.851 189.096 185.402Z" fill="#3A4146"/>
<path d="M203.378 95.5259V102.009C203.378 102.009 215.517 100.052 217.173 94.2035C218.001 91.311 216.678 88.3542 215.119 86.0964C214.872 85.7523 214.624 85.4189 214.377 85.1071V85.0963C213.001 83.3439 211.689 82.2148 211.689 82.2148L208.356 84.6448C208.356 84.6448 204.582 88.408 204.98 89.4079C205.152 89.8488 205.571 90.5691 205.98 91.2356C206.517 92.1174 207.055 92.913 207.055 92.913L203.378 95.5259Z" fill="#FEC9AC"/>
<path opacity="0.5" d="M204.98 89.4079C205.152 89.8488 205.571 90.5691 205.979 91.2356C208.334 91.1713 214.377 86.8813 214.377 85.1071V85.0963C213.001 83.3439 211.689 82.2148 211.689 82.2148L208.356 84.6448C208.356 84.6448 204.582 88.408 204.98 89.4079Z" fill="#FFAB90"/>
<path d="M149.145 70.7734C149.145 70.7734 150.037 75.601 151.715 81.1167C153.779 87.9228 157.037 95.7822 161.284 96.9651C163.391 97.5457 166.262 95.4599 168.251 93.6534C169.638 92.4062 170.606 91.288 170.606 91.288L165.498 82.536L164.402 80.6437C164.187 80.7833 162.445 82.2457 161.821 82.7725C161.682 82.8909 161.596 82.966 161.596 82.966C161.596 82.966 154.058 69.526 154.058 69.3541C154.058 69.1821 154.962 63.5374 153.628 63.7093C152.284 63.8812 152.026 66.0747 152.026 66.0747C152.026 66.0747 149.403 59.0536 147.683 59.4838C146.005 59.9031 149.629 64.7414 149.822 64.9887C147.166 63.634 145.242 68.9669 149.145 70.7734Z" fill="#FEC9AC"/>
<path opacity="0.5" d="M161.82 82.7734C162.003 83.1926 162.336 83.569 162.562 83.956C162.906 84.5474 163.154 85.1926 163.347 85.8486C163.68 86.9666 163.863 88.1279 164.164 89.2569C164.476 90.3859 164.938 91.5149 165.723 92.3748C166.379 93.0846 167.304 93.6007 168.25 93.6543C169.637 92.4071 170.605 91.2889 170.605 91.2889L165.497 82.5369L164.401 80.6445C164.186 80.7842 162.444 82.2466 161.82 82.7734Z" fill="#FFAB90"/>
<path d="M170.262 92.9661L176.079 88.0203C176.079 88.0203 176.068 88.0523 176.057 88.1169C175.831 89.5578 173.219 101.718 173.563 104.664C174.068 109.169 203.109 108.847 205.302 105.836C206.711 103.901 204.614 91.5683 204.614 91.5683C207.668 91.7835 214.431 82.4291 212.947 80.1498C212.947 80.1498 210.442 75.9456 205.98 71.989C202.292 68.7311 197.271 65.6346 191.228 65.2475C175.799 64.2368 164.23 79.44 164.23 79.44C162.305 81.2465 168.09 93.8371 170.262 92.9661Z" fill="#FFCF3D"/>
<path d="M175.498 105.138C175.498 105.138 175.498 106.407 175.52 108.578C180.175 111.32 198.658 111.245 204.518 109.385C204.249 106.062 204.023 103.794 203.862 103.159C202.98 99.5361 175.498 105.138 175.498 105.138Z" fill="#022E4F"/>
<path d="M175.498 105.138C175.498 105.138 175.498 106.407 175.52 108.578V108.718C175.584 119.75 175.853 163.309 176.67 174.803C176.67 176.179 182.401 176.631 186.164 176.158C188.013 175.932 189.379 175.47 189.379 174.803C189.906 163.61 190.336 123.223 190.336 123.223C190.336 123.223 190.336 123.255 190.347 123.309C190.347 123.319 190.347 123.319 190.347 123.33C190.497 125.244 193.035 163.89 194.809 174.803C194.809 175.459 196.615 175.867 198.819 176.018C202.313 176.244 206.84 175.846 206.84 174.803C207.281 168.782 206.378 137.469 205.421 122.352C205.12 117.395 204.797 112.879 204.518 109.385C204.249 106.062 204.023 103.794 203.862 103.159C202.98 99.5361 175.498 105.138 175.498 105.138Z" fill="#003567"/>
<path d="M175.498 105.138C175.498 105.138 175.498 106.407 175.52 108.578V108.718C178.261 110.61 181.562 111.696 184.884 111.707C188.927 111.707 193.228 110.267 196.873 112.03C200.937 113.987 202.378 119.051 205.421 122.352C205.12 117.395 204.797 112.879 204.518 109.385C204.249 106.062 204.023 103.794 203.862 103.159C202.98 99.5361 175.498 105.138 175.498 105.138ZM190.347 123.33C190.497 125.244 193.035 163.89 194.809 174.803C194.809 175.459 196.615 175.867 198.819 176.018C195.024 163.997 190.648 125.287 190.347 123.33ZM186.164 176.158C188.013 175.932 189.379 175.47 189.379 174.803C189.906 163.61 190.336 123.223 190.336 123.223C190.336 123.223 187.196 163.815 186.164 176.158Z" fill="#022E4F"/>
<path d="M183.008 66.1654L183.401 59.5702C183.401 59.5702 179.023 60.4027 178.588 58.0728C178.208 56.0425 178.588 54.5078 178.588 54.5078C178.588 54.5078 177.019 53.367 177.304 52.9035C177.589 52.44 180.049 51.0497 180.049 51.0497C180.049 51.0497 180.049 42.9213 185.219 43.5987C190.388 44.2761 191.885 54.3295 191.885 54.3295L190.709 59.3206L191.137 66.1654C191.137 66.7548 183.008 66.7548 183.008 66.1654Z" fill="#FEC9AC"/>
<path d="M181.949 45.7007C182.701 46.1845 183.293 46.7651 183.776 47.3888C185.475 49.6143 185.637 52.3345 185.4 52.6572C185.099 53.0766 187.443 56.4526 187.443 56.4526C187.443 56.4526 186.948 58.9472 185.11 60.5169C184.336 61.1834 183.884 62.5382 184.207 63.9252C184.389 64.7101 184.809 65.5057 185.572 66.1832C186.626 67.1616 188.335 67.9034 190.894 68.0968C198.517 68.667 205.065 67.1077 205.409 62.5704C205.754 58.0439 201.485 56.1731 200.646 50.5821C200.292 48.1844 199.13 45.7329 197.356 43.7868C196.926 43.3138 196.464 42.8728 195.969 42.4643C193.733 40.6258 190.819 39.5398 187.507 39.916C183.153 40.4 181.25 41.9698 180.927 43.4211C180.723 44.3244 181.142 45.1846 181.949 45.7007Z" fill="#AD4F36"/>
<path d="M178.564 55.6803C178.619 55.6367 178.771 55.8221 179.16 55.9944C179.481 56.1503 179.864 56.1506 180.22 56.0458C180.64 55.9517 180.78 55.7721 180.838 55.8128C180.894 55.8278 180.797 56.1456 180.299 56.3194C179.898 56.4381 179.435 56.445 179.036 56.2509C178.586 55.9838 178.518 55.7039 178.564 55.6803Z" fill="#4F2D2B"/>
<path d="M181.508 50.7501C181.542 50.3769 181.403 50.0594 181.197 50.041C180.992 50.0226 180.799 50.3103 180.766 50.6836C180.732 51.0568 180.871 51.3743 181.076 51.3926C181.281 51.411 181.475 51.1233 181.508 50.7501Z" fill="#4F2D2B"/>
<path d="M182.246 49.1555C182.18 49.1753 182.102 48.9647 181.837 48.6522C181.625 48.3766 181.322 48.178 180.985 48.094C180.593 47.9751 180.37 47.9879 180.361 47.9176C180.348 47.8674 180.575 47.7343 181.056 47.818C181.452 47.916 181.814 48.1537 182.062 48.4777C182.33 48.8855 182.299 49.1471 182.246 49.1555Z" fill="#4F2D2B"/>
<path d="M173.562 104.663C174.068 109.168 203.109 108.846 205.302 105.835C206.711 103.9 204.614 91.5676 204.614 91.5676C207.668 91.7828 214.431 82.4284 212.947 80.1491C212.947 80.1491 210.442 75.9449 205.98 71.9883C203.754 75.0957 201.432 78.1491 198.733 80.8479C195.668 83.9231 192.077 86.5465 188.002 88.0409C183.927 89.5248 180.143 89.6109 176.057 88.1162C175.831 89.5571 173.218 101.717 173.562 104.663Z" fill="#FCC230"/>
<path d="M187.427 56.4394C188.633 56.2138 189.424 55.0293 189.193 53.7936C188.962 52.558 187.797 51.7391 186.59 51.9647C185.384 52.1902 184.594 53.3747 184.825 54.6104C185.056 55.8461 186.221 56.6649 187.427 56.4394Z" fill="#FEC9AC"/>
<path d="M185.571 66.1835C186.625 67.1619 188.335 67.9037 190.893 68.0972C198.517 68.6673 205.065 67.1081 205.409 62.5708C205.753 58.0442 201.484 56.1734 200.646 50.5824C200.291 48.1848 199.129 45.7333 197.355 43.7871C196.968 44.3785 197.183 45.7118 197.205 46.2601C197.345 48.6578 198.011 51.0339 199.14 53.1628C199.785 54.3779 200.592 55.5174 201.527 56.5283C202.656 57.7216 204.054 58.969 204.054 60.6138C204.043 62.0977 202.85 63.3126 201.613 64.1298C198.839 65.9578 195.463 66.6889 192.151 66.7427C189.947 66.7747 187.754 66.5382 185.571 66.1835Z" fill="#C16244"/>
<path d="M186.329 54.8979C186.347 54.8697 186.437 54.9118 186.614 54.9333C186.787 54.9537 187.065 54.9396 187.342 54.7264C187.58 54.5537 187.761 54.29 187.729 54.0163C187.706 53.7376 187.529 53.4565 187.321 53.2395C187.083 52.9713 186.824 52.9328 186.66 52.9694C186.496 53.0026 186.429 53.0794 186.4 53.0577C186.377 53.0494 186.397 52.9147 186.604 52.8093C186.795 52.6961 187.216 52.722 187.523 53.0388C187.766 53.2969 187.974 53.605 188.013 53.9932C188.053 54.3983 187.798 54.7521 187.508 54.9583C187.137 55.2072 186.763 55.1761 186.572 55.0978C186.372 55.0176 186.312 54.9194 186.329 54.8979Z" fill="#FFAB90"/>
<path d="M108.701 130.832L107.605 131.846C107.489 131.954 107.301 131.954 107.184 131.846L104.346 129.219C104.23 129.112 104.23 128.938 104.346 128.83L105.442 127.816C105.666 127.608 106.03 127.608 106.254 127.816L108.701 130.081C108.925 130.288 108.925 130.624 108.701 130.832ZM103.87 129.66L106.708 132.287C106.824 132.394 106.824 132.569 106.708 132.676L98.5433 140.233C98.4463 140.323 98.2891 140.323 98.1922 140.233L95.2846 137.542C95.1877 137.452 95.1877 137.307 95.2846 137.217L103.45 129.66C103.566 129.553 103.754 129.553 103.87 129.66ZM97.4047 141.024L93.1992 142.163L94.4303 138.271C94.4833 138.103 94.7107 138.049 94.8441 138.173L97.5105 140.641C97.6438 140.764 97.5857 140.975 97.4047 141.024Z" fill="white"/>
</svg>
