<svg width="39" height="54" viewBox="0 0 39 54" fill="none" xmlns="http://www.w3.org/2000/svg">
<path fill-rule="evenodd" clip-rule="evenodd" d="M8.32691 0.828125H29.1439C32.1023 0.828125 34.4027 3.12874 34.4027 6.0869V16.4953C34.4027 19.4536 32.1021 21.754 29.1439 21.754H27.6098V27.9995H35.0598C36.7034 27.9995 38.0181 29.3142 38.0181 30.9578V35.9978C38.0181 37.6414 36.7034 38.9562 35.0598 38.9562H31.4446L34.8411 53.8569H30.6775L29.4722 48.5981H8.43642L7.23111 53.8569H3.06754L6.35465 38.9562H2.8488C1.31465 38.9562 0 37.6415 0 35.9978V30.9578C0 29.3142 1.31471 27.9995 2.8488 27.9995H10.4088V21.754H8.32714C5.47835 21.754 3.17774 19.4534 3.17774 16.4953V6.0869C3.17774 3.12857 5.47835 0.828125 8.32714 0.828125H8.32691ZM27.3907 38.9557H10.5177L9.09354 45.4199H28.8152L27.3911 38.9557H27.3907ZM23.9942 27.9991V21.7537H13.9141V27.9991H23.9942ZM3.72569 31.1762H34.184V35.1204H3.72569V31.1762ZM9.86093 3.89467H27.6106C29.6923 3.89467 31.2258 5.42882 31.2258 7.50989V14.9599C31.2258 17.1511 29.6917 18.6852 27.6106 18.6852H9.86093C7.8886 18.6852 6.35508 17.151 6.35508 14.9599V7.50989C6.35508 5.42819 7.88923 3.89467 9.86093 3.89467Z" fill="#EE7402"/>
</svg>
