<svg width="71" height="70" viewBox="0 0 71 70" fill="none" xmlns="http://www.w3.org/2000/svg">
<circle opacity="0.1" cx="35.5" cy="35" r="35" fill="#FF642B"/>
<path d="M47.3756 28.9484L35.6117 35.7623C35.1381 36.0373 34.5422 36.0373 34.0534 35.7623L22.2895 28.9484C21.4492 28.4595 21.2353 27.3137 21.877 26.5956C22.32 26.0914 22.8242 25.6789 23.3589 25.3887L31.6395 20.8053C33.4117 19.8123 36.2839 19.8123 38.0561 20.8053L46.3367 25.3887C46.8714 25.6789 47.3756 26.1067 47.8186 26.5956C48.4297 27.3137 48.2159 28.4595 47.3756 28.9484Z" fill="#FF642B"/>
<path d="M33.9628 38.6029V49.0224C33.9628 50.1835 32.7864 50.9474 31.7475 50.4432C28.6003 48.9002 23.2989 46.0127 23.2989 46.0127C21.435 44.9585 19.9072 42.3002 19.9072 40.1154V32.2321C19.9072 31.0252 21.1753 30.2613 22.2142 30.8571L33.1989 37.2279C33.6572 37.5182 33.9628 38.0377 33.9628 38.6029Z" fill="#FF642B"/>
<path d="M35.7041 38.6029V49.0224C35.7041 50.1835 36.8805 50.9474 37.9194 50.4432C41.0666 48.9002 46.368 46.0127 46.368 46.0127C48.2319 44.9585 49.7597 42.3002 49.7597 40.1154V32.2321C49.7597 31.0252 48.4916 30.2613 47.4527 30.8571L36.468 37.2279C36.0097 37.5182 35.7041 38.0377 35.7041 38.6029Z" fill="#FF642B"/>
</svg>
